<?xml version="1.0" encoding="utf-8"?>
<!-- Generator: Adobe Illustrator 21.1.0, SVG Export Plug-In . SVG Version: 6.00 Build 0)  -->
<svg version="1.1" id="Слой_1" xmlns="http://www.w3.org/2000/svg" xmlns:xlink="http://www.w3.org/1999/xlink" x="0px" y="0px"
	 viewBox="0 0 85 70" style="enable-background:new 0 0 85 70;" xml:space="preserve">
<style type="text/css">
	.st0{fill:#578C7F;}
</style>
<path class="st0" d="M3.7,25.4c-0.9,0-1.7,0.8-1.7,1.7v35.8c0,0.9,0.8,1.7,1.7,1.7l12,1V23.3L3.7,25.4z M12.9,45.5H8.2
	c-0.5,0-0.9-0.4-0.9-0.9c0-0.5,0.4-0.9,0.9-0.9h4.7c0.5,0,0.9,0.4,0.9,0.9C13.7,45.2,13.4,45.5,12.9,45.5z M81.8,35.8L81.8,35.8
	l-0.4-0.1L36.4,20c-0.2,0,0.4,0.4,0.4,0.4l0.4,0.9v0.3c-0.1-0.8-0.8-1.5-1.6-1.5L17.4,23v42.6l18.3,1.5c0.3,0,0.5-0.1,0.8-0.2
	l-0.1,0.2l45-2.8h0.1v0c0.5,0,1-0.5,1-1V36.7C82.3,36.3,82.1,36,81.8,35.8z M24.2,45.5h-4.7c-0.5,0-0.9-0.4-0.9-0.9
	c0-0.5,0.4-0.9,0.9-0.9h4.7c0.5,0,0.9,0.4,0.9,0.9C25,45.2,24.7,45.5,24.2,45.5z M44.5,62.9c0,0.9-0.8,1.7-1.7,1.7
	c-0.9,0-1.7-0.8-1.7-1.7V26.6c0-0.9,0.8-1.7,1.7-1.7c0.9,0,1.7,0.8,1.7,1.7V62.9z M52,62.4c0,0.9-0.8,1.7-1.7,1.7
	c-0.9,0-1.7-0.8-1.7-1.7V29.1c0-0.9,0.8-1.7,1.7-1.7c0.9,0,1.7,0.8,1.7,1.7V62.4z M58.6,62.1c0,0.9-0.8,1.7-1.7,1.7
	c-0.9,0-1.7-0.8-1.7-1.7V31.5c0-0.9,0.8-1.7,1.7-1.7c0.9,0,1.7,0.8,1.7,1.7V62.1z M65.1,61.8c0,0.9-0.8,1.7-1.7,1.7
	c-0.9,0-1.7-0.8-1.7-1.7V33.9c0-0.9,0.8-1.7,1.7-1.7c0.9,0,1.7,0.8,1.7,1.7V61.8z M71.6,61.8c0,0.9-0.8,1.7-1.7,1.7
	c-0.9,0-1.7-0.8-1.7-1.7v-26c0-0.9,0.8-1.7,1.7-1.7c0.9,0,1.7,0.8,1.7,1.7V61.8z M78.2,61.8c0,0.9-0.8,1.7-1.7,1.7
	c-0.9,0-1.7-0.8-1.7-1.7V38.2c0-0.9,0.8-1.7,1.7-1.7c0.9,0,1.7,0.8,1.7,1.7V61.8z"/>
</svg>
