<?xml version="1.0" encoding="utf-8"?>
<!-- Generator: Adobe Illustrator 21.1.0, SVG Export Plug-In . SVG Version: 6.00 Build 0)  -->
<svg version="1.1" id="Слой_1" xmlns="http://www.w3.org/2000/svg" xmlns:xlink="http://www.w3.org/1999/xlink" x="0px" y="0px"
	 viewBox="0 0 85 70" style="enable-background:new 0 0 85 70;" xml:space="preserve">
<style type="text/css">
	.st0{fill:#578C7F;}
</style>
<g>
	<rect x="27.3" y="5.2" class="st0" width="7.5" height="3.6"/>
	<path class="st0" d="M62,2.7H23c-0.4,0-0.8,0.3-0.8,0.8v59.3c0,0.4,0.3,0.8,0.8,0.8H62c0.4,0,0.8-0.3,0.8-0.8V3.4
		C62.7,3,62.4,2.7,62,2.7z M26.6,4.5h8.8v5h-8.8V4.5z M54.9,34.3c0,0.1,0,0.2-0.1,0.4l0,0.1c-0.1,0.2-0.1,0.3-0.2,0.3
		c-0.1,0.1-0.2,0.2-0.2,0.3c-0.1,0.1-0.2,0.2-0.3,0.3c-0.1,0.1-0.2,0.2-0.3,0.2c-0.1,0.1-0.2,0.1-0.3,0.2c-0.1,0-0.3,0.1-0.4,0.1
		c-0.2,0-0.4,0.1-0.5,0.1c-0.2,0-0.4,0-0.6,0c-0.3,0-0.5-0.1-0.7-0.1c-0.3-0.1-0.5-0.1-0.8-0.3c-0.3-0.1-0.5-0.2-0.8-0.4
		c-0.3-0.2-0.5-0.3-0.8-0.5c0,0-0.2-0.2-0.6-0.6l-0.2-0.3l-0.6,0.6c-0.8,0.9-1.5,1.6-1.9,2.1c-0.3,0.3-0.7,0.7-1.4,1.4
		c0.1,0.5,0.1,0.8,0.1,1c0,0.2,0,0.6,0,1c0,0.2,0,0.4-0.1,0.5c-0.1,0.7-0.2,1.2-0.3,1.5c-0.2,0.5-0.3,0.9-0.6,1.4
		c-0.2,0.5-0.5,0.9-0.8,1.3c-0.3,0.4-0.6,0.8-1,1.2c-0.4,0.4-0.8,0.8-1.2,1.1c0,0-0.5,0.3-1.4,0.9l0,0l-0.1,0l-0.1,0
		c0,0-0.1,0-0.1,0c-0.1,0-0.2,0-0.2,0c-0.1,0-0.2,0-0.4-0.1c0,0-0.1,0-0.1-0.1l0,0v0l1.2-0.8c0.4-0.3,0.8-0.6,1.2-1
		c0.4-0.3,0.7-0.7,1-1.1c0.3-0.4,0.6-0.8,0.8-1.2c0.2-0.4,0.4-0.8,0.6-1.3c0.2-0.4,0.3-0.9,0.4-1.4c0-0.2,0.1-0.7,0.2-1.5
		c0,0,0-0.1,0-0.2l0-0.4c-0.4,0.2-0.7,0.4-0.9,0.5c-0.2,0.1-0.4,0.2-0.7,0.3c-0.2,0.1-0.4,0.1-0.7,0.2c-0.2,0-0.5,0.1-0.7,0
		c-0.2,0-0.5,0-0.7-0.1c-0.1,0-0.4-0.1-0.8-0.2c0,0-0.1,0-0.2-0.1c-0.2-0.1-0.3-0.1-0.4-0.2c-0.1-0.1-0.3-0.2-0.4-0.3
		c-0.1-0.1-0.3-0.3-0.4-0.4c-0.1-0.1-0.2-0.3-0.3-0.4c-0.1-0.2-0.2-0.3-0.2-0.5c0-0.1-0.1-0.3-0.1-0.5c0-0.1,0-0.3,0-0.4
		c0-0.1,0-0.3,0-0.4c0-0.1,0-0.3,0.1-0.4c0-0.2,0.1-0.3,0.1-0.4c0.1-0.1,0.1-0.2,0.2-0.3c0.1-0.1,0.1-0.2,0.3-0.3l0.1-0.1
		c0.2-0.1,0.3-0.2,0.3-0.2c0.1-0.1,0.2-0.1,0.3-0.2c0.1-0.1,0.3-0.1,0.4-0.1c0.2-0.1,0.3-0.1,0.5-0.1c0.3,0,0.5,0,0.7,0
		c0.3,0,0.5,0,0.8,0.1c0.1,0,0.4,0.1,0.9,0.2c0,0,0.1,0,0.2,0.1c0.3,0.2,0.5,0.3,0.6,0.3c0.2,0.1,0.4,0.2,0.5,0.4
		c0.2,0.1,0.3,0.3,0.4,0.5c0.2,0.2,0.3,0.4,0.4,0.5c0.1,0.2,0.2,0.4,0.3,0.7l0.7-0.6c0,0,0.1-0.1,0.2-0.2c0.2-0.2,0.4-0.5,0.8-0.8
		c0.2-0.3,0.6-0.6,1-1.2c0.3-0.3,0.6-0.7,1.1-1.1L47.6,33c-0.1-0.4-0.2-0.7-0.3-0.9c-0.1-0.1-0.1-0.4-0.3-0.6
		c-0.1-0.1-0.1-0.3-0.2-0.4c-0.5-0.7-0.8-1.1-1-1.3c-0.3-0.4-0.7-0.8-1.1-1.2c-0.3-0.2-0.7-0.6-1.3-1c-0.1-0.1-0.3-0.2-0.5-0.3
		c-0.5-0.2-0.8-0.4-1-0.4c-0.3-0.1-0.7-0.2-1.1-0.3c-0.3-0.1-0.7-0.1-1.1-0.1c-0.4,0-0.8,0-1.1,0.1c-0.5,0.1-0.9,0.2-1.3,0.3
		c-0.5,0.2-0.9,0.4-1.3,0.6c-0.4,0.2-0.8,0.5-1.2,0.8c-0.3,0.3-0.7,0.6-1.1,1c-0.2,0.2-0.4,0.4-0.6,0.7c-0.1,0.2-0.2,0.4-0.4,0.6
		c-0.1,0.1-0.1,0.2-0.2,0.4c0,0.1,0,0.2-0.1,0.3c0,0.1,0,0.1,0,0.2c0,0,0,0.1,0,0.1l0,0.1l0.1,0.2l0.1,0.1l0.1,0.1
		c0.1,0,0.1,0.1,0.1,0.1c0,0,0.1,0.1,0.2,0.1c0.1,0,0.2,0,0.2,0.1c0.2,0,0.3,0,0.4,0l0.2,0c0.1,0,0.1,0,0.2,0l0.1,0.1l0.1,0l0,0l0,0
		l0,0v0l0,0l-0.1,0l-0.1,0l-0.2,0c-0.1,0-0.1,0-0.2,0c-0.5,0-0.8-0.1-0.9-0.1c-0.1,0-0.3-0.1-0.5-0.1c-0.1,0-0.2-0.1-0.3-0.1
		c0,0-0.1-0.1-0.2-0.1c0,0-0.1-0.1-0.1-0.1c-0.1-0.1-0.1-0.1-0.1-0.1c0,0-0.1-0.1-0.1-0.2c0,0,0-0.1-0.1-0.2c0-0.1,0-0.1,0-0.2
		c0-0.1,0-0.1,0-0.2c0,0,0-0.1,0-0.2c0-0.1,0-0.2,0-0.2c0-0.1,0.1-0.2,0.1-0.3c0.1-0.2,0.2-0.4,0.3-0.5c0.2-0.2,0.3-0.4,0.5-0.6
		c0.1-0.1,0.4-0.4,0.8-0.8c0.1-0.1,0.2-0.2,0.3-0.3c0.6-0.4,1-0.7,1.1-0.8c0.4-0.3,0.9-0.5,1.3-0.7c0.4-0.2,0.9-0.3,1.4-0.5
		c0.4-0.1,0.9-0.2,1.3-0.2c0.5,0,1-0.1,1.4,0c0.4,0,0.9,0.1,1.4,0.2c0.4,0.1,0.9,0.2,1.3,0.4c0.4,0.1,0.8,0.3,1.2,0.6
		c0.4,0.2,0.7,0.5,1.1,0.7c0.5,0.4,0.9,0.7,1.2,1.1c0.4,0.4,0.7,0.8,1,1.2c0.2,0.3,0.5,0.7,0.8,1.3c0.1,0.1,0.2,0.3,0.3,0.6
		c0.1,0.1,0.1,0.3,0.2,0.6c0.2-0.1,0.4-0.3,0.5-0.3c0.3-0.1,0.5-0.3,0.7-0.3c0.2-0.1,0.4-0.1,0.7-0.2c0.2,0,0.4-0.1,0.7-0.1
		c0.1,0,0.2,0,0.4,0c0.4,0,0.6,0,0.8,0.1c0.2,0,0.5,0.1,0.8,0.2c0.2,0.1,0.4,0.1,0.6,0.2c0.1,0,0.2,0.1,0.4,0.2c0,0,0.1,0.1,0.2,0.2
		l0.1,0.1c0.1,0.1,0.2,0.2,0.2,0.3c0.1,0.1,0.1,0.2,0.2,0.3c0,0.1,0.1,0.2,0.1,0.3c0,0.1,0,0.1,0,0.2c0,0.1,0,0.2,0,0.3
		C54.9,34.1,54.9,34.2,54.9,34.3z M53.8,33.5c0-0.1-0.1-0.2-0.1-0.3c0-0.1-0.1-0.2-0.1-0.3c-0.1-0.1-0.1-0.2-0.2-0.2
		c-0.1-0.1-0.1-0.1-0.2-0.2c-0.1-0.1-0.2-0.1-0.3-0.2c-0.1,0-0.2-0.1-0.3-0.2c-0.1-0.1-0.3-0.1-0.4-0.1c-0.1,0-0.3-0.1-0.4-0.1
		c-0.1,0-0.3,0-0.4,0c-0.1,0-0.2,0-0.4,0.1c-0.1,0-0.2,0-0.2,0.1c-0.4,0.2-0.6,0.3-0.7,0.3c-0.2,0.1-0.5,0.3-0.9,0.6
		c-0.1,0.1-0.3,0.2-0.5,0.4c0.1,0.3,0.2,0.5,0.3,0.6c0.1,0.1,0.1,0.2,0.3,0.4c0.1,0.1,0.1,0.2,0.2,0.2c0.1,0.1,0.3,0.3,0.4,0.3
		c0.2,0.1,0.3,0.2,0.5,0.3c0.2,0.1,0.4,0.2,0.6,0.3c0.2,0.1,0.4,0.1,0.6,0.2c0.1,0,0.3,0,0.5,0c0.1,0,0.2,0,0.4,0
		c0.1,0,0.2,0,0.3-0.1c0.1,0,0.2-0.1,0.2-0.1c0.1,0,0.1-0.1,0.2-0.1c0,0,0.1-0.1,0.2-0.1c0,0,0.1-0.1,0.1-0.1c0-0.1,0.1-0.1,0.1-0.2
		c0-0.1,0.1-0.1,0.1-0.2c0-0.1,0.1-0.2,0.1-0.3c0-0.1,0-0.2,0-0.3c0-0.1,0-0.2,0-0.3C53.8,33.7,53.8,33.6,53.8,33.5z M42.5,36.2
		c-0.1-0.2-0.2-0.3-0.4-0.5c-0.1-0.1-0.2-0.2-0.3-0.4c-0.1-0.1-0.2-0.2-0.4-0.3c-0.1-0.1-0.2-0.1-0.4-0.2c-0.2-0.1-0.3-0.1-0.4-0.1
		c0,0-0.2,0-0.4-0.1c-0.1,0-0.1,0-0.1,0c-0.2,0-0.3,0-0.4,0c-0.1,0-0.2,0-0.3,0.1c-0.1,0-0.2,0.1-0.3,0.1C39,34.9,38.9,35,38.9,35
		c-0.1,0.1-0.2,0.1-0.2,0.2c-0.1,0.1-0.1,0.1-0.2,0.2c-0.1,0.1-0.1,0.2-0.2,0.3c-0.1,0.1-0.1,0.2-0.2,0.3c-0.1,0.1-0.1,0.3-0.1,0.5
		c0,0.2,0,0.3,0,0.5c0,0.2,0,0.3,0,0.5c0,0.1,0,0.3,0.1,0.4c0,0.1,0.1,0.2,0.1,0.4c0.1,0.1,0.1,0.2,0.2,0.3c0.1,0.1,0.1,0.2,0.2,0.2
		c0.1,0.1,0.1,0.1,0.2,0.2c0.1,0.1,0.2,0.1,0.2,0.1c0.1,0,0.2,0.1,0.3,0.1c0.1,0,0.2,0.1,0.3,0.1c0.1,0,0.2,0,0.3,0
		c0.1,0,0.3,0,0.4,0c0.1,0,0.3-0.1,0.4-0.1c0.1,0,0.2-0.1,0.3-0.1c0.5-0.2,0.8-0.4,1-0.5c0.2-0.1,0.5-0.4,1-0.7
		c-0.1-0.4-0.2-0.8-0.3-1C42.7,36.7,42.6,36.5,42.5,36.2z"/>
	<path class="st0" d="M60.3,63.7v2c0,0.1-0.1,0.2-0.2,0.2H60V64c0-0.1-0.1-0.2-0.2-0.2h-1.2c-0.1,0-0.2,0.1-0.2,0.2v1.9h-0.2
		c-0.1,0-0.2-0.1-0.2-0.2v-2c0-0.1,0.1-0.2,0.2-0.2h2C60.3,63.6,60.3,63.6,60.3,63.7z"/>
	<path class="st0" d="M59.2,67.8L59.2,67.8c-0.4,0-0.7-0.3-0.7-0.6V65c0-0.3,0.3-0.6,0.6-0.6h0.1c0.3,0,0.6,0.3,0.6,0.6v2.2
		C59.8,67.6,59.5,67.8,59.2,67.8z"/>
	<path class="st0" d="M27,63.7v2c0,0.1-0.1,0.2-0.2,0.2h-0.2V64c0-0.1-0.1-0.2-0.2-0.2h-1.2c-0.1,0-0.2,0.1-0.2,0.2v1.9h-0.2
		c-0.1,0-0.2-0.1-0.2-0.2v-2c0-0.1,0.1-0.2,0.2-0.2h2C26.9,63.6,27,63.6,27,63.7z"/>
	<path class="st0" d="M25.9,67.8L25.9,67.8c-0.4,0-0.7-0.3-0.7-0.6V65c0-0.3,0.3-0.6,0.6-0.6h0.1c0.3,0,0.6,0.3,0.6,0.6v2.2
		C26.4,67.6,26.2,67.8,25.9,67.8z"/>
</g>
</svg>
