<?xml version="1.0" encoding="utf-8"?>
<!-- Generator: Adobe Illustrator 21.1.0, SVG Export Plug-In . SVG Version: 6.00 Build 0)  -->
<svg version="1.1" id="Слой_1" xmlns="http://www.w3.org/2000/svg" xmlns:xlink="http://www.w3.org/1999/xlink" x="0px" y="0px"
	 viewBox="0 0 85 70" style="enable-background:new 0 0 85 70;" xml:space="preserve">
<style type="text/css">
	.st0{fill:#578C7F;}
</style>
<g>
	<path class="st0" d="M72.9,61.9v1.8c0,0.1-0.1,0.1-0.1,0.1h-0.2v-1.7c0-0.1-0.1-0.1-0.1-0.1h-1.1c-0.1,0-0.1,0.1-0.1,0.1v1.7h-0.2
		c-0.1,0-0.1-0.1-0.1-0.1v-1.8c0-0.1,0.1-0.1,0.1-0.1h1.8C72.8,61.8,72.9,61.8,72.9,61.9z"/>
	<path class="st0" d="M71.8,65.6L71.8,65.6c-0.3,0-0.6-0.3-0.6-0.6v-2c0-0.3,0.3-0.6,0.6-0.6l0,0c0.3,0,0.6,0.3,0.6,0.6v2
		C72.4,65.3,72.2,65.6,71.8,65.6z"/>
	<path class="st0" d="M13.4,61.9v1.8c0,0.1-0.1,0.1-0.1,0.1h-0.2v-1.7c0-0.1-0.1-0.1-0.1-0.1h-1.1c-0.1,0-0.1,0.1-0.1,0.1v1.7h-0.2
		c-0.1,0-0.1-0.1-0.1-0.1v-1.8c0-0.1,0.1-0.1,0.1-0.1h1.8C13.4,61.8,13.4,61.8,13.4,61.9z"/>
	<path class="st0" d="M12.4,65.6L12.4,65.6c-0.3,0-0.6-0.3-0.6-0.6v-2c0-0.3,0.3-0.6,0.6-0.6h0c0.3,0,0.6,0.3,0.6,0.6v2
		C12.9,65.3,12.7,65.6,12.4,65.6z"/>
	<path class="st0" d="M75.3,4.4H9.7C9,4.4,8.5,4.9,8.5,5.5v54.9c0,0.6,0.5,1.1,1.1,1.1h65.7c0.6,0,1.1-0.5,1.1-1.1V5.5
		C76.5,4.9,76,4.4,75.3,4.4z M36.3,25H20.6c-0.5,0-1-0.4-1-1V12.3c0-0.5,0.4-1,1-1h15.7c0.5,0,1,0.4,1,1V24
		C37.3,24.5,36.9,25,36.3,25z M37.8,44.5c0,0.2-0.2,0.4-0.4,0.4c-0.2,0-0.4-0.2-0.4-0.4v-14c0-0.2,0.2-0.4,0.4-0.4
		c0.2,0,0.4,0.2,0.4,0.4V44.5z M47.9,44.5c0,0.2-0.2,0.4-0.4,0.4c-0.2,0-0.4-0.2-0.4-0.4v-14c0-0.2,0.2-0.4,0.4-0.4
		c0.2,0,0.4,0.2,0.4,0.4V44.5z M65.3,24c0,0.5-0.4,1-1,1H48.6c-0.5,0-1-0.4-1-1V12.3c0-0.5,0.4-1,1-1h15.7c0.5,0,1,0.4,1,1V24z"/>
</g>
</svg>
