<?xml version="1.0" encoding="utf-8"?>
<!-- Generator: Adobe Illustrator 21.1.0, SVG Export Plug-In . SVG Version: 6.00 Build 0)  -->
<svg version="1.1" id="Слой_1" xmlns="http://www.w3.org/2000/svg" xmlns:xlink="http://www.w3.org/1999/xlink" x="0px" y="0px"
	 viewBox="0 0 85 70" style="enable-background:new 0 0 85 70;" xml:space="preserve">
<style type="text/css">
	.st0{fill:#578C7F;}
</style>
<path class="st0" d="M73,63.1v1.8c0,0.1-0.1,0.1-0.1,0.1h-0.2v-1.8c0-0.1-0.1-0.1-0.1-0.1h-1.1c-0.1,0-0.1,0.1-0.1,0.1V65h-0.2
	c-0.1,0-0.1-0.1-0.1-0.1v-1.8c0-0.1,0.1-0.1,0.1-0.1h1.8C72.9,62.9,73,63,73,63.1z"/>
<path class="st0" d="M72,66.8L72,66.8c-0.3,0-0.6-0.3-0.6-0.6v-2c0-0.3,0.3-0.6,0.6-0.6l0,0c0.3,0,0.6,0.3,0.6,0.6v2
	C72.5,66.5,72.3,66.8,72,66.8z"/>
<path class="st0" d="M13.2,63.1v1.8c0,0.1-0.1,0.1-0.1,0.1h-0.2v-1.8c0-0.1-0.1-0.1-0.1-0.1h-1.1c-0.1,0-0.1,0.1-0.1,0.1V65h-0.2
	c-0.1,0-0.1-0.1-0.1-0.1v-1.8c0-0.1,0.1-0.1,0.1-0.1h1.8C13.2,62.9,13.2,63,13.2,63.1z"/>
<path class="st0" d="M12.2,66.8L12.2,66.8c-0.3,0-0.6-0.3-0.6-0.6v-2c0-0.3,0.3-0.6,0.6-0.6h0c0.3,0,0.6,0.3,0.6,0.6v2
	C12.7,66.5,12.5,66.8,12.2,66.8z"/>
<path class="st0" d="M75.5,5.2h-66c-0.6,0-1.1,0.5-1.1,1.1v55.2c0,0.6,0.5,1.1,1.1,1.1h66c0.6,0,1.1-0.5,1.1-1.1V6.4
	C76.6,5.7,76.1,5.2,75.5,5.2z M37.2,48.6H19V11.2h18.1V48.6z M65.6,48.6H47.5V11.2h18.1V48.6z"/>
</svg>
