<?xml version="1.0" encoding="utf-8"?>
<!-- Generator: Adobe Illustrator 21.1.0, SVG Export Plug-In . SVG Version: 6.00 Build 0)  -->
<svg version="1.1" id="Слой_1" xmlns="http://www.w3.org/2000/svg" xmlns:xlink="http://www.w3.org/1999/xlink" x="0px" y="0px"
	 viewBox="0 0 85 70" style="enable-background:new 0 0 85 70;" xml:space="preserve">
<style type="text/css">
	.st0{fill:#578C7F;}
</style>
<g>
	<path class="st0" d="M42.2,35.5c0.1,0.2,0.2,0.5,0.3,0.9c-0.4,0.3-0.7,0.5-0.9,0.6c-0.2,0.1-0.5,0.3-1,0.5c-0.1,0-0.2,0.1-0.3,0.1
		c-0.2,0-0.3,0.1-0.4,0.1c-0.1,0-0.2,0-0.3,0c-0.1,0-0.2,0-0.3,0c-0.1,0-0.2,0-0.3-0.1c-0.1,0-0.2-0.1-0.2-0.1
		c-0.1,0-0.1-0.1-0.2-0.1c-0.1,0-0.1-0.1-0.2-0.2c-0.1-0.1-0.1-0.1-0.2-0.2c0-0.1-0.1-0.2-0.2-0.3c0-0.1-0.1-0.2-0.1-0.3
		c0-0.1-0.1-0.2-0.1-0.3c0-0.2,0-0.3,0-0.5c0-0.1,0-0.3,0-0.4c0-0.1,0.1-0.3,0.1-0.4c0-0.1,0.1-0.2,0.1-0.3c0-0.1,0.1-0.2,0.2-0.3
		c0.1-0.1,0.1-0.2,0.2-0.2c0.1-0.1,0.1-0.1,0.2-0.2c0.1,0,0.1-0.1,0.2-0.1c0.1,0,0.2-0.1,0.3-0.1c0.1,0,0.2,0,0.3-0.1
		c0.1,0,0.2,0,0.3,0c0,0,0.1,0,0.1,0c0.2,0,0.4,0.1,0.4,0.1c0.1,0,0.2,0.1,0.4,0.1c0.1,0.1,0.2,0.1,0.3,0.2c0.1,0.1,0.2,0.1,0.3,0.2
		c0.1,0.1,0.2,0.2,0.3,0.3c0.1,0.2,0.2,0.3,0.3,0.5C42,35.1,42.1,35.4,42.2,35.5z"/>
	<path class="st0" d="M52.3,32.7c0,0.1,0,0.2,0,0.3c0,0.1,0,0.2,0,0.3c0,0.1,0,0.2-0.1,0.2c0,0.1-0.1,0.1-0.1,0.2
		c0,0.1-0.1,0.1-0.1,0.2c0,0-0.1,0.1-0.1,0.1c-0.1,0.1-0.1,0.1-0.1,0.1c0,0-0.1,0.1-0.2,0.1c-0.1,0-0.1,0.1-0.2,0.1
		c-0.1,0-0.2,0-0.3,0.1c-0.1,0-0.2,0-0.3,0c-0.2,0-0.3,0-0.4,0c-0.2,0-0.4-0.1-0.6-0.1c-0.2-0.1-0.4-0.1-0.6-0.2
		c-0.1-0.1-0.3-0.2-0.4-0.3c-0.1-0.1-0.2-0.2-0.4-0.3c-0.1,0-0.1-0.1-0.2-0.2C48.1,33.1,48,33,48,32.9c-0.1-0.1-0.2-0.3-0.3-0.6
		c0.2-0.2,0.3-0.3,0.4-0.4c0.3-0.2,0.6-0.4,0.8-0.6c0.1,0,0.3-0.1,0.6-0.3c0,0,0.1,0,0.2-0.1c0.1,0,0.3-0.1,0.3-0.1
		c0.1,0,0.3,0,0.4,0c0.1,0,0.3,0,0.4,0.1c0.1,0,0.2,0.1,0.3,0.1c0.1,0,0.2,0.1,0.3,0.1c0.1,0.1,0.2,0.1,0.2,0.2
		c0.1,0.1,0.2,0.1,0.2,0.2c0,0.1,0.1,0.1,0.2,0.2c0,0.1,0.1,0.2,0.1,0.2c0,0.1,0.1,0.2,0.1,0.3C52.3,32.5,52.3,32.6,52.3,32.7z"/>
	<path class="st0" d="M64.2,7.2H20.8c-0.4,0-0.7,0.3-0.7,0.7v54.2c0,0.4,0.3,0.7,0.7,0.7h43.3c0.4,0,0.7-0.3,0.7-0.7V7.9
		C64.9,7.5,64.5,7.2,64.2,7.2z M53.2,33.2c0,0.1,0,0.2-0.1,0.3l0,0.1c-0.1,0.2-0.1,0.3-0.2,0.3c-0.1,0.1-0.1,0.2-0.2,0.3
		c-0.1,0.1-0.2,0.2-0.3,0.3c-0.1,0.1-0.2,0.2-0.3,0.2c-0.1,0.1-0.2,0.1-0.3,0.2c-0.1,0-0.2,0.1-0.3,0.1c-0.2,0-0.3,0.1-0.4,0.1
		c-0.2,0-0.4,0-0.6,0c-0.3,0-0.5-0.1-0.6-0.1c-0.2-0.1-0.5-0.1-0.7-0.2c-0.2-0.1-0.5-0.2-0.7-0.4c-0.3-0.2-0.5-0.3-0.7-0.5
		c0,0-0.2-0.2-0.6-0.6L47,32.9l-0.5,0.5c-0.8,0.9-1.4,1.5-1.8,1.9c-0.3,0.3-0.7,0.7-1.3,1.2c0.1,0.4,0.1,0.7,0.1,0.9
		c0,0.2,0,0.5,0,0.9c0,0.2,0,0.3-0.1,0.5c-0.1,0.6-0.2,1.1-0.3,1.3c-0.1,0.4-0.3,0.9-0.5,1.3c-0.2,0.4-0.4,0.8-0.7,1.2
		c-0.3,0.4-0.6,0.8-0.9,1.1c-0.3,0.4-0.7,0.7-1.1,1c0,0-0.4,0.3-1.3,0.8l0,0l0,0l-0.1,0c0,0-0.1,0-0.1,0c-0.1,0-0.1,0-0.2,0
		c-0.1,0-0.2,0-0.3-0.1c0,0-0.1,0-0.1,0l0,0v0l1.1-0.7c0.4-0.3,0.8-0.6,1.1-0.9c0.3-0.3,0.6-0.7,0.9-1c0.3-0.3,0.5-0.7,0.7-1.1
		c0.2-0.4,0.4-0.8,0.5-1.2c0.1-0.4,0.3-0.8,0.3-1.3c0-0.2,0.1-0.6,0.2-1.4c0,0,0-0.1,0-0.2l0-0.4c-0.4,0.2-0.6,0.4-0.9,0.5
		c-0.2,0.1-0.4,0.2-0.6,0.3c-0.2,0.1-0.4,0.1-0.6,0.1c-0.2,0-0.4,0.1-0.6,0c-0.2,0-0.5,0-0.7-0.1c-0.1,0-0.3-0.1-0.7-0.2
		c0,0-0.1,0-0.1-0.1c-0.2-0.1-0.3-0.1-0.3-0.2c-0.1-0.1-0.2-0.2-0.3-0.2c-0.1-0.1-0.2-0.2-0.3-0.3c-0.1-0.1-0.2-0.2-0.3-0.4
		c-0.1-0.1-0.1-0.3-0.2-0.4c0-0.1-0.1-0.3-0.1-0.4c0-0.1,0-0.3,0-0.4c0-0.1,0-0.3,0-0.4c0-0.1,0-0.2,0.1-0.3c0-0.1,0.1-0.3,0.1-0.3
		c0.1-0.1,0.1-0.2,0.2-0.3c0.1-0.1,0.1-0.2,0.2-0.3l0.1-0.1c0.2-0.1,0.2-0.2,0.3-0.2c0.1-0.1,0.2-0.1,0.3-0.2
		c0.1-0.1,0.3-0.1,0.4-0.1c0.2,0,0.3-0.1,0.5-0.1c0.2,0,0.5,0,0.7,0c0.2,0,0.5,0,0.7,0.1c0.1,0,0.4,0.1,0.8,0.2c0,0,0.1,0,0.2,0.1
		c0.3,0.1,0.5,0.3,0.6,0.3c0.2,0.1,0.3,0.2,0.5,0.4c0.1,0.1,0.3,0.3,0.4,0.4c0.1,0.2,0.3,0.3,0.3,0.5c0.1,0.1,0.2,0.4,0.3,0.6
		l0.6-0.6c0,0,0.1-0.1,0.2-0.2c0.2-0.2,0.4-0.4,0.7-0.7c0.2-0.2,0.5-0.6,0.9-1.1c0.3-0.3,0.6-0.6,1-1l-0.1-0.3
		c-0.1-0.4-0.2-0.7-0.3-0.9c-0.1-0.1-0.1-0.3-0.3-0.6c-0.1-0.1-0.1-0.2-0.2-0.3c-0.4-0.6-0.7-1-0.9-1.2c-0.3-0.4-0.7-0.7-1.1-1.1
		c-0.2-0.2-0.6-0.5-1.2-0.9c-0.1-0.1-0.3-0.2-0.5-0.3c-0.4-0.2-0.7-0.3-0.9-0.4c-0.3-0.1-0.7-0.2-1-0.2C40,26,39.6,26,39.3,26
		c-0.4,0-0.7,0-1,0.1c-0.4,0.1-0.8,0.2-1.2,0.3c-0.4,0.2-0.8,0.3-1.2,0.5c-0.4,0.2-0.8,0.4-1.1,0.7c-0.3,0.2-0.6,0.5-1,0.9
		c-0.2,0.2-0.3,0.4-0.5,0.6c-0.1,0.1-0.2,0.3-0.4,0.6c0,0.1-0.1,0.2-0.1,0.4c0,0.1,0,0.2-0.1,0.3c0,0.1,0,0.1,0,0.2c0,0,0,0,0,0.1
		l0,0.1l0.1,0.2l0.1,0.1l0.1,0.1c0,0,0.1,0.1,0.1,0.1c0,0,0.1,0,0.1,0.1c0.1,0,0.2,0,0.2,0c0.2,0,0.3,0,0.4,0l0.1,0
		c0.1,0,0.1,0,0.2,0l0.1,0l0,0l0,0l0,0l0,0v0l0,0l-0.1,0l0,0l-0.2,0c-0.1,0-0.1,0-0.2,0c-0.5,0-0.7-0.1-0.8-0.1
		c-0.1,0-0.3-0.1-0.5-0.1c-0.1,0-0.2-0.1-0.3-0.1c0,0-0.1-0.1-0.2-0.1c0,0-0.1,0-0.1-0.1c0,0-0.1-0.1-0.1-0.1c0,0-0.1-0.1-0.1-0.1
		c0,0,0-0.1-0.1-0.1c0-0.1,0-0.1,0-0.1c0-0.1,0-0.1,0-0.2c0,0,0-0.1,0-0.2c0-0.1,0-0.1,0-0.2c0-0.1,0.1-0.2,0.1-0.3
		c0.1-0.2,0.2-0.3,0.2-0.4c0.1-0.2,0.3-0.4,0.4-0.6c0.1-0.1,0.4-0.4,0.8-0.8c0.1-0.1,0.2-0.2,0.3-0.3c0.5-0.4,0.9-0.7,1-0.8
		c0.4-0.2,0.8-0.5,1.2-0.6c0.4-0.2,0.8-0.3,1.3-0.4c0.4-0.1,0.8-0.2,1.2-0.2c0.5,0,0.9-0.1,1.3,0c0.4,0,0.8,0.1,1.2,0.2
		c0.4,0.1,0.8,0.2,1.2,0.3c0.3,0.1,0.7,0.3,1.1,0.5c0.3,0.2,0.7,0.4,1,0.7c0.4,0.3,0.8,0.7,1.1,1c0.3,0.3,0.7,0.7,0.9,1.1
		c0.2,0.3,0.5,0.7,0.8,1.2c0.1,0.1,0.2,0.3,0.3,0.5c0,0.1,0.1,0.3,0.2,0.5c0.2-0.1,0.3-0.2,0.5-0.3c0.2-0.1,0.5-0.2,0.6-0.3
		c0.2-0.1,0.4-0.1,0.6-0.2c0.2,0,0.4-0.1,0.7-0.1c0.1,0,0.2,0,0.4,0c0.3,0,0.6,0,0.8,0.1c0.2,0,0.5,0.1,0.7,0.2
		c0.2,0,0.3,0.1,0.5,0.2c0.1,0,0.2,0.1,0.3,0.2c0,0,0.1,0.1,0.2,0.2l0.1,0.1c0.1,0.1,0.2,0.2,0.2,0.3c0.1,0.1,0.1,0.2,0.1,0.3
		c0,0.1,0.1,0.1,0.1,0.3c0,0.1,0,0.1,0,0.2c0,0.1,0,0.2,0,0.3C53.3,33,53.3,33.1,53.2,33.2z"/>
	<path class="st0" d="M62.4,63.1v1.8c0,0.1-0.1,0.1-0.1,0.1H62v-1.8c0-0.1-0.1-0.1-0.1-0.1h-1.1c-0.1,0-0.1,0.1-0.1,0.1v1.8h-0.2
		c-0.1,0-0.1-0.1-0.1-0.1v-1.8c0-0.1,0.1-0.1,0.1-0.1h1.8C62.3,62.9,62.4,63,62.4,63.1z"/>
	<path class="st0" d="M61.3,66.8L61.3,66.8c-0.3,0-0.6-0.3-0.6-0.6v-2c0-0.3,0.3-0.6,0.6-0.6h0c0.3,0,0.6,0.3,0.6,0.6v2
		C61.9,66.6,61.6,66.8,61.3,66.8z"/>
	<path class="st0" d="M25,63.1v1.8c0,0.1-0.1,0.1-0.1,0.1h-0.2v-1.8c0-0.1-0.1-0.1-0.1-0.1h-1.1c-0.1,0-0.1,0.1-0.1,0.1v1.8H23
		c-0.1,0-0.1-0.1-0.1-0.1v-1.8c0-0.1,0.1-0.1,0.1-0.1h1.8C25,62.9,25,63,25,63.1z"/>
	<path class="st0" d="M24,66.8L24,66.8c-0.3,0-0.6-0.3-0.6-0.6v-2c0-0.3,0.3-0.6,0.6-0.6h0c0.3,0,0.6,0.3,0.6,0.6v2
		C24.5,66.6,24.3,66.8,24,66.8z"/>
</g>
</svg>
