<?xml version="1.0" encoding="utf-8"?>
<!-- Generator: Adobe Illustrator 21.1.0, SVG Export Plug-In . SVG Version: 6.00 Build 0)  -->
<svg version="1.1" id="Слой_1" xmlns="http://www.w3.org/2000/svg" xmlns:xlink="http://www.w3.org/1999/xlink" x="0px" y="0px"
	 viewBox="0 0 85 70" style="enable-background:new 0 0 85 70;" xml:space="preserve">
<style type="text/css">
	.st0{fill:#686868;}
</style>
<path class="st0" d="M63.8,2.1c-4.7,1.7-13.1,5.3-19.1,11.6c-5.8,6.1-4.2,15.3-2.4,20.9C45.9,27,51.5,22,55.1,20.4
	c-5.3,3.9-8.6,9.8-10.9,15.9c-0.7,2.6-1.3,5.2-1.5,7.8c0.8,3,1.2,6.4,0.5,9.4c0.6,1.2,1.2,2.5,1.7,3.9c0.2,0.5,0.9,0.4,0.9-0.2
	c0-2.1-1.4-12.3,1.6-18.5C67.5,33,65.7,22.3,64.8,16.5C64,11.2,65,6.9,65.9,4.2C66.4,2.9,65.1,1.6,63.8,2.1z"/>
<path class="st0" d="M19.6,29.3c3-0.6,8.4-1.3,13.5,0c4.9,1.3,6.9,6.6,7.7,10.1c-4.2-2.8-8.7-3.6-11-3.4c4,0.4,7.5,2.4,10.6,4.8
	c1.2,1.1,2.3,2.3,3.2,3.6c0.5,1.8,1.4,3.7,2.7,5c0.1,0.8,0.1,1.6,0.3,2.6c0.1,0.3-0.4,0.5-0.5,0.2c-0.6-1.1-3.1-6.8-6.6-9
	c-12.2,3.3-14.6-2.8-15.9-6c-1.2-3-3.1-4.9-4.4-6C18.5,30.5,18.8,29.4,19.6,29.3z"/>
<path class="st0" d="M48.3,50.9c-1.5-2.6-3.3-4.8-4.2-5.9c-0.1-0.1-0.3-0.2-0.5-0.2c-0.2,0-0.4,0.1-0.5,0.2
	c-0.9,1.1-2.6,3.3-4.2,5.9c-2,3.3-3,6-3,8.1c0,4.2,3.4,7.6,7.6,7.6s7.6-3.4,7.6-7.6C51.3,57,50.3,54.2,48.3,50.9L48.3,50.9z
	 M44.7,63.9C44.2,64,43.8,64,43.3,64c-2.9,0-5.2-2.2-5.2-4.8c0-0.6,0.2-1.4,0.5-2.2c0.1-0.1,0.2-0.2,0.4-0.2c0.2,0,0.3,0.2,0.2,0.3
	c0,0.2,0,0.4,0,0.5c0,2.9,2.3,5.3,5.4,5.6c0.2,0,0.3,0.1,0.3,0.3C44.9,63.7,44.8,63.8,44.7,63.9L44.7,63.9z M44.7,63.9"/>
</svg>
