<?xml version="1.0" encoding="utf-8"?>
<!-- Generator: Adobe Illustrator 21.1.0, SVG Export Plug-In . SVG Version: 6.00 Build 0)  -->
<svg version="1.1" id="Слой_1" xmlns="http://www.w3.org/2000/svg" xmlns:xlink="http://www.w3.org/1999/xlink" x="0px" y="0px"
	 viewBox="0 0 85 70" style="enable-background:new 0 0 85 70;" xml:space="preserve">
<style type="text/css">
	.st0{fill:#686868;}
</style>
<g>
	<path class="st0" d="M52.5,18.6c-5.7,3.5-6.3,10.9-6.1,15.6c4.3-5.1,9.7-7.8,12.7-8.3c-4.9,1.9-8.6,5.7-11.7,10
		c-1.2,2.2-2.4,4.3-3,6.6c-0.7-2.7-1.9-5.3-3.2-7.9c-3.7-5.7-8.1-10.9-14.3-13.8c3.9,0.9,10.6,4.8,15.8,11.7
		c0.7-6.1,0.4-15.7-6.7-20.6C28.2,6.5,18.3,4.6,13.4,4c-1.1-0.1-1.9,1.1-1.3,2c1.6,2.5,3.8,6.9,4.1,12.9c0.3,6,0.7,17.1,22.2,18.8
		c3.2,5.8,4.8,8.9,5.3,14.5c0,0.4,0.6,0.5,0.7,0.1c0.4-1.6,1.4-9.7,5-13.9c16.6-0.3,17.4-8.9,17.9-13.5c0.5-4.2,2.1-7.4,3.4-9.3
		c0.6-0.9-0.1-2.1-1.2-2C65.7,14,58.5,15,52.5,18.6L52.5,18.6z M52.5,18.6"/>
	<path class="st0" d="M48.8,51.2c-1.5-2.5-3.1-4.6-4-5.6c-0.1-0.1-0.3-0.2-0.5-0.2c-0.2,0-0.4,0.1-0.5,0.2c-0.9,1-2.5,3.2-4,5.6
		C37.9,54.3,37,57,37,59c0,4.1,3.3,7.4,7.4,7.4s7.4-3.3,7.4-7.4C51.7,57,50.7,54.3,48.8,51.2L48.8,51.2z M45.3,63.6
		c-0.4,0.1-0.9,0.2-1.3,0.2c-2.7,0-5-2.1-5-4.6c0-0.6,0.2-1.3,0.5-2.1c0.1-0.1,0.2-0.2,0.4-0.2c0.2,0,0.3,0.2,0.2,0.3
		c0,0.2,0,0.3,0,0.5c0,2.8,2.2,5.1,5.2,5.4c0.1,0,0.3,0.1,0.3,0.3C45.6,63.4,45.5,63.6,45.3,63.6L45.3,63.6z M45.3,63.6"/>
</g>
</svg>
