<?xml version="1.0" encoding="utf-8"?>
<!-- Generator: Adobe Illustrator 21.1.0, SVG Export Plug-In . SVG Version: 6.00 Build 0)  -->
<svg version="1.1" id="Слой_1" xmlns="http://www.w3.org/2000/svg" xmlns:xlink="http://www.w3.org/1999/xlink" x="0px" y="0px"
	 viewBox="0 0 50 50" style="enable-background:new 0 0 50 50;" xml:space="preserve">
<style type="text/css">
	.st0{fill:#E7E7E7;}
</style>
<g>
	<path class="st0" d="M1,46.8c0-2.5,0-5.1,0-7.6c0.1-0.9,0.2-1.7,0.4-2.6c0.8-4.8,2.9-8.9,6.1-12.4c3.9-4.2,8.7-6.7,14.3-7.5
		c3.1-0.4,6.2-0.2,9.3,0.6c4.9,1.3,9,3.9,12.2,7.9c3.7,4.4,5.6,9.5,5.7,15.3c0,1.9,0,3.8,0,5.8c0,0.2,0,0.5-0.1,0.7
		c-0.3,1.4-1.4,2.1-2.8,2.1c-9.2,0-18.4,0-27.6,0c-4.9,0-9.7,0-14.6,0c-0.8,0-1.5-0.2-2-0.8C1.5,47.8,1.3,47.3,1,46.8z M27.6,38.1
		c0-3.6,0-7.2,0-10.8c-1.8,0-3.5,0-5.2,0c0,3.6,0,7.2,0,10.8C24.1,38.1,25.9,38.1,27.6,38.1z"/>
	<path class="st0" d="M35.7,11c0,1.7,0,3.3,0,5c-0.6-0.2-1.2-0.5-1.8-0.7c-1.1-0.3-2.1-0.7-3.2-0.9c-0.3-0.1-0.4-0.2-0.4-0.5
		c0-0.9,0-1.8,0-2.8c-3.6,0-7.1,0-10.7,0c0,0.9,0,1.9,0,2.8c0,0.4-0.1,0.5-0.4,0.6c-1.5,0.4-2.9,0.9-4.4,1.4
		c-0.2,0.1-0.3,0.1-0.5,0.2c0-1.7,0-3.3,0-5c-0.3,0-0.6,0-0.8,0c-1.4,0-2.8,0-4.3,0c-0.8,0-1.5-0.2-2.1-0.8C5.4,8.5,3.6,6.6,1.9,4.8
		C3.1,3.6,4.3,2.3,5.6,1c0.1,0.1,0.2,0.2,0.3,0.3c1.3,1.3,2.6,2.7,3.9,4c0.2,0.2,0.5,0.3,0.7,0.3c8.2,0,16.4,0,24.6,0
		c1.4,0,2.9,0,4.3,0c0.4,0,0.6-0.1,0.9-0.4C41.6,3.8,43,2.4,44.4,1c1.3,1.3,2.5,2.6,3.8,3.9C47.1,6,46,7.1,44.9,8.2
		c-0.6,0.6-1.2,1.3-1.9,1.9c-0.6,0.7-1.4,1-2.3,1C39.1,11,37.4,11,35.7,11z"/>
</g>
</svg>
