<?xml version="1.0" encoding="utf-8"?>
<!-- Generator: Adobe Illustrator 21.1.0, SVG Export Plug-In . SVG Version: 6.00 Build 0)  -->
<svg version="1.1" id="Слой_1" xmlns="http://www.w3.org/2000/svg" xmlns:xlink="http://www.w3.org/1999/xlink" x="0px" y="0px"
	 viewBox="0 0 50 50" style="enable-background:new 0 0 50 50;" xml:space="preserve">
<style type="text/css">
	.st0{fill:#BDBDBD;}
</style>
<g>
	<g>
		<path class="st0" d="M25,46.1c11.6,0,21.1-9.4,21.1-21.1c0-11.6-9.5-21.1-21.1-21.1C13.4,3.9,3.9,13.4,3.9,25
			C3.9,36.6,13.4,46.1,25,46.1L25,46.1z M25,6.9C35,6.9,43.1,15,43.1,25c0,10-8.1,18.1-18.1,18.1S6.9,35,6.9,25
			C6.9,15,15,6.9,25,6.9L25,6.9z M25,6.9"/>
	</g>
	<path class="st0" d="M17.1,32.7c0.3,0.3,0.7,0.4,1.1,0.4c0.4,0,0.8-0.1,1.1-0.4l5.8-5.8l5.8,5.8c0.3,0.3,0.7,0.4,1.1,0.4
		c0.4,0,0.8-0.1,1.1-0.4c0.6-0.6,0.6-1.5,0-2.1l-5.8-5.8l5.8-5.8c0.6-0.6,0.6-1.5,0-2.1c-0.6-0.6-1.5-0.6-2.1,0L25,22.7l-5.8-5.8
		c-0.6-0.6-1.5-0.6-2.1,0c-0.6,0.6-0.6,1.5,0,2.1l5.8,5.8l-5.8,5.8C16.5,31.2,16.5,32.1,17.1,32.7L17.1,32.7z M17.1,32.7"/>
</g>
</svg>
