<?xml version="1.0" encoding="utf-8"?>
<!-- Generator: Adobe Illustrator 21.1.0, SVG Export Plug-In . SVG Version: 6.00 Build 0)  -->
<svg version="1.1" id="Слой_1" xmlns="http://www.w3.org/2000/svg" xmlns:xlink="http://www.w3.org/1999/xlink" x="0px" y="0px"
	 viewBox="0 0 50 50" style="enable-background:new 0 0 50 50;" xml:space="preserve">
<style type="text/css">
	.st0{fill:#E7E7E7;}
</style>
<path class="st0" d="M32.6,12.3c1.7,1.8,3.3,3.4,5,5.2c1.9-2,3.8-3.9,5.7-5.8c0.6-0.6,0.8-0.6,1.1,0.3c1,3.7-0.1,7.6-3.3,10
	c-2.4,1.8-5.1,2.5-8.1,1.6c-0.7-0.2-1.2,0-1.8,0.5c-5.7,6.5-11.4,13-17.1,19.6c-2.2,2.5-5.6,2.4-7.9,0.1c-2.2-2.1-2.4-5.7,0.2-7.9
	c6.2-5.5,12.4-11,18.7-16.4c1.1-0.9,1.6-1.7,1.2-3.3c-1.1-4.8,2.3-9.6,7.1-10.6c1.6-0.3,3.1-0.3,4.7,0.1c0.3,0.1,0.5,0.2,1,0.4
	c-1.1,1.1-2.2,2.2-3.2,3.2C34.7,10.2,33.7,11.2,32.6,12.3z M13.3,39.8c0-1.9-1.1-3-3-3c-1.8,0-3.1,1.3-3.1,3c0,1.8,1.3,3.1,3,3.1
	C12.1,43,13.2,41.8,13.3,39.8z"/>
<path class="st0" d="M29.4,49.1c-3,0-5.9,0-9,0c0-1.4,0-2.7,0-4c0-0.6-0.2-0.9-0.7-1c-1-0.3-1.9-0.7-3.2-1.2c1.5-1.7,3-3.3,4.4-4.9
	c2.9,0.9,5.8,0.7,8.5-0.3c3.2-1.2,5.5-3.5,7.1-6.5c0.9-1.7,1.3-3.6,1.4-5.5c0-0.7,0.2-1,0.9-1.2c1.8-0.6,3.4-1.6,4.6-3
	c0.3-0.3,0.8-0.6,1.2-0.6c1.2-0.1,2.3-0.1,3.5-0.1c0.6,0,0.8,0.2,0.8,0.8c0,2.4,0,4.8,0,7.3c0,0.6-0.2,0.8-0.8,0.8
	c-1.2,0-2.4,0-3.6,0c-0.5,0-0.8,0.1-1,0.7c-0.6,1.6-1.3,3.3-1.9,4.9c-0.1,0.2,0.1,0.7,0.3,0.9c0.9,1,1.9,2,2.9,3.1
	c-0.6,0.6-1.1,1.2-1.6,1.7c-1.3,1.4-2.7,2.7-4,4.1c-0.4,0.4-0.6,0.5-1,0c-0.8-0.9-1.8-1.7-2.6-2.6c-0.3-0.3-0.6-0.5-1.2-0.2
	c-1.5,0.8-3.1,1.4-4.6,2.1c-0.2,0.1-0.4,0.6-0.4,0.9C29.3,46.3,29.4,47.7,29.4,49.1z"/>
<path class="st0" d="M7.2,33.6c-0.4-1-0.8-2-1.1-2.9c-0.2-0.7-0.6-1.1-1.4-1c-1.2,0.1-2.4,0-3.7,0c0-2.9,0-5.8,0-8.8
	c1.2,0,2.4-0.1,3.6,0c0.9,0.1,1.3-0.2,1.7-1c0.5-1.3,1.2-2.6,1.8-3.9c0.2-0.5,0.3-0.9-0.2-1.4c-1-1-2-2-2.8-3c2-2.1,4-4.2,6-6.3
	c1.1,1.1,2.2,2.1,3.3,3c0.2,0.2,0.6,0.2,0.8,0.1c1.6-0.6,3.1-1.2,4.7-1.8c0.5-0.2,0.7-0.4,0.6-0.9c0-1.3,0-2.5,0-3.8
	c0-0.5,0.2-0.7,0.7-0.7c2.5,0,5,0,7.5,0c0.5,0,0.7,0.2,0.7,0.7c-0.1,1.3-0.1,2.6-0.2,3.9c0,0.3-0.2,0.6-0.5,0.7
	c-1.5,1.3-2.6,2.9-3.2,4.9c-0.1,0.5-0.5,0.7-1,0.7c-1.7,0-3.3,0.4-4.8,1c-2.8,1.2-4.9,3.1-6.4,5.7c-1.7,2.9-2.2,6-1.5,9.3
	c0.2,1.1-0.1,1.5-0.8,2.1c-1,0.9-2,1.8-3,2.7C7.8,33.1,7.5,33.3,7.2,33.6z"/>
</svg>
