<?xml version="1.0" encoding="utf-8"?>
<!-- Generator: Adobe Illustrator 21.1.0, SVG Export Plug-In . SVG Version: 6.00 Build 0)  -->
<svg version="1.1" id="Слой_1" xmlns="http://www.w3.org/2000/svg" xmlns:xlink="http://www.w3.org/1999/xlink" x="0px" y="0px"
	 viewBox="0 0 50 50" style="enable-background:new 0 0 50 50;" xml:space="preserve">
<style type="text/css">
	.st0{fill:#275B4D;}
</style>
<path class="st0" d="M25,0C11.2,0,0,11.2,0,25s11.2,25,25,25s25-11.2,25-25S38.8,0,25,0z M41.3,15l2.5,3.4c0.3,0.5,0,1.1-0.6,1.1h-4
	c-0.5,0-0.8-0.5-0.6-1l1.6-3.4C40.3,14.7,41,14.6,41.3,15z M27.9,10h9.3c0.2,0,0.4,0.1,0.6,0.3l1.6,2.3c0.1,0.2,0.2,0.5,0.1,0.7
	l-2.3,5.1c-0.2,0.4-0.7,0.5-1.1,0.2c-2-1.7-5.8-4.9-8.6-7.3C27,10.8,27.3,10,27.9,10z M25.5,11.2c2.3,2,5.9,5,8.3,7.1
	c0.5,0.4,0.2,1.2-0.4,1.2H16.7c-0.6,0-0.9-0.8-0.4-1.2c2.5-2.1,6.1-5.2,8.3-7.1C24.8,11,25.2,11,25.5,11.2z M10.5,12.5l1.6-2.2
	c0.1-0.2,0.3-0.3,0.6-0.3h9.3c0.6,0,0.9,0.8,0.4,1.2c-2.8,2.4-6.6,5.6-8.6,7.3c-0.3,0.3-0.9,0.2-1.1-0.2l-2.3-5.1
	C10.4,13,10.4,12.7,10.5,12.5z M6.2,18.4L8.7,15c0.3-0.4,1-0.4,1.2,0.1l1.6,3.4c0.2,0.5-0.1,1-0.6,1H6.8C6.2,19.5,5.9,18.9,6.2,18.4
	z M19.4,39.1L6.3,22c-0.3-0.5,0-1.1,0.5-1.1h5.3c0.3,0,0.5,0.2,0.6,0.4l7.9,17.1C20.9,39.2,19.9,39.8,19.4,39.1z M24.4,43.5
	l-9.9-21.6c-0.2-0.5,0.1-1,0.6-1h19.8c0.5,0,0.8,0.5,0.6,1l-9.9,21.6C25.4,44,24.6,44,24.4,43.5z M43.7,22L30.6,39.1
	c-0.5,0.7-1.5,0-1.2-0.7l7.9-17.1c0.1-0.2,0.4-0.4,0.6-0.4h5.2C43.7,20.9,44,21.5,43.7,22z"/>
</svg>
