<?xml version="1.0" encoding="utf-8"?>
<!-- Generator: Adobe Illustrator 21.1.0, SVG Export Plug-In . SVG Version: 6.00 Build 0)  -->
<svg version="1.1" id="Слой_1" xmlns="http://www.w3.org/2000/svg" xmlns:xlink="http://www.w3.org/1999/xlink" x="0px" y="0px"
	 viewBox="0 0 50 50" style="enable-background:new 0 0 50 50;" xml:space="preserve">
<style type="text/css">
	.st0{fill:#E7E7E7;}
</style>
<g>
	<rect x="32.6" y="24.9" class="st0" width="2" height="3.2"/>
	<rect x="41.1" y="24.9" class="st0" width="2" height="3.2"/>
	<rect x="32.6" y="34.4" class="st0" width="2" height="3.2"/>
	<rect x="41.1" y="34.4" class="st0" width="2" height="3.2"/>
	<path class="st0" d="M32.1,37.6V23.9c0-1.5-1.2-2.7-2.7-2.7c-1.5,0-2.7,1.2-2.7,2.7v15.9h5.4V37.6z M32.1,37.6"/>
	<path class="st0" d="M40.6,37.6V23.9c0-1.5-1.2-2.7-2.7-2.7c-1.5,0-2.7,1.2-2.7,2.7v15.9h5.4V37.6z M40.6,37.6"/>
	<path class="st0" d="M49,37.6V23.9c0-1.5-1.2-2.7-2.7-2.7c-1.5,0-2.7,1.2-2.7,2.7v15.9H49V37.6z M49,37.6"/>
</g>
<g>
	<path class="st0" d="M3.6,6L1,19.1c-0.2,0.8,0.5,1.6,1.3,1.6c0.5,0,13.5,0,14,0v3.9c0,0.7,0.6,1.3,1.3,1.3s1.3-0.6,1.3-1.3v-3.9
		h3.8c0.8,0,1.4-0.8,1.3-1.6L21.4,6c-0.1-0.6-0.6-1-1.3-1H4.8C4.2,5,3.7,5.4,3.6,6z"/>
	<path class="st0" d="M11.2,23.3v14c-2.5,0.5-4.5,2.5-5,5.1H4.8c-0.7,0-1.3,0.6-1.3,1.3S4.1,45,4.8,45c5.2,0,9.5,0,15.3,0
		c0.7,0,1.3-0.6,1.3-1.3s-0.6-1.3-1.3-1.3h-1.4c-0.5-2.6-2.5-4.6-5-5.1v-14H11.2z"/>
</g>
</svg>
