<?xml version="1.0" encoding="utf-8"?>
<!-- Generator: Adobe Illustrator 21.1.0, SVG Export Plug-In . SVG Version: 6.00 Build 0)  -->
<svg version="1.1" id="Слой_1" xmlns="http://www.w3.org/2000/svg" xmlns:xlink="http://www.w3.org/1999/xlink" x="0px" y="0px"
	 viewBox="0 0 50 50" style="enable-background:new 0 0 50 50;" xml:space="preserve">
<style type="text/css">
	.st0{fill:#275B4D;}
</style>
<g>
	<circle class="st0" cx="23.5" cy="38" r="0.7"/>
	<circle class="st0" cx="22.3" cy="39.1" r="0.2"/>
	<circle class="st0" cx="20.1" cy="37.4" r="0.7"/>
	<circle class="st0" cx="19" cy="40.6" r="0.4"/>
	<circle class="st0" cx="20.3" cy="40.2" r="0.3"/>
	<path class="st0" d="M25,6.2c-0.3,0-0.5,0.2-0.5,0.4v6.6c0,0.2,0.2,0.4,0.5,0.4c0.3,0,0.5-0.2,0.5-0.4V6.6
		C25.5,6.4,25.3,6.2,25,6.2z"/>
	<path class="st0" d="M25,0C11.2,0,0,11.2,0,25s11.2,25,25,25s25-11.2,25-25S38.8,0,25,0z M35,43.4c-0.4,0.6-1.1,0.9-2,0.9H17
		c-0.8,0-1.6-0.3-2-0.9c-0.4-0.6-0.5-1.4-0.2-2.2l6.1-17.1v-6.5h-0.2c-0.3,0-0.6-0.2-0.6-0.6c0-0.3,0.2-0.5,0.6-0.5h3.7v-0.9
		c0-0.1,0-0.1,0-0.2v-0.1c-1.9-1.5-3.1-3.7-3.1-6.2c0-2.5,1.2-4.9,3.3-6.4c0.2-0.1,0.4-0.1,0.6,0c2.1,1.4,3.3,3.8,3.3,6.4
		c0,2.4-1.2,4.7-3.1,6.2v1.2h3.6c0.3,0,0.6,0.2,0.6,0.5c0,0.3-0.2,0.6-0.6,0.6h-0.2v6.5l6.1,17.1C35.4,42,35.4,42.8,35,43.4z"/>
	<path class="st0" d="M27.9,24.2v-6.6h-2.3v15.6h5.5l-3.1-8.8C27.9,24.4,27.9,24.3,27.9,24.2z"/>
	<path class="st0" d="M22,24.2c0,0.1,0,0.1,0,0.2l-3.1,8.8h5.6V17.6H22V24.2z"/>
</g>
</svg>
