<?xml version="1.0" encoding="utf-8"?>
<!-- Generator: Adobe Illustrator 21.1.0, SVG Export Plug-In . SVG Version: 6.00 Build 0)  -->
<svg version="1.1" id="Слой_1" xmlns="http://www.w3.org/2000/svg" xmlns:xlink="http://www.w3.org/1999/xlink" x="0px" y="0px"
	 viewBox="0 0 50 50" style="enable-background:new 0 0 50 50;" xml:space="preserve">
<style type="text/css">
	.st0{fill:#275B4D;}
</style>
<path class="st0" d="M25,0C11.2,0,0,11.2,0,25s11.2,25,25,25s25-11.2,25-25S38.8,0,25,0z M27.2,9.9c1,0,1.8,0.8,1.8,1.8
	c0,1-0.8,1.8-1.8,1.8c-1,0-1.8-0.8-1.8-1.8C25.4,10.7,26.2,9.9,27.2,9.9z M21.9,14.6c0.3,0,0.6,0.3,0.6,0.6c0,0.3-0.3,0.6-0.6,0.6
	c-0.3,0-0.6-0.3-0.6-0.6C21.3,14.9,21.6,14.6,21.9,14.6z M15.9,8.8c1.1,0,2,0.9,2,2s-0.9,2-2,2s-2-0.9-2-2S14.8,8.8,15.9,8.8z
	 M17.4,18.2c0,0.4-0.3,0.8-0.8,0.8c-0.4,0-0.8-0.3-0.8-0.8c0-0.4,0.3-0.8,0.8-0.8C17,17.4,17.4,17.8,17.4,18.2z M13.2,18.2
	c0.6,0,1.1,0.5,1.1,1.1c0,0.6-0.5,1.1-1.1,1.1c-0.6,0-1.1-0.5-1.1-1.1C12.1,18.7,12.6,18.2,13.2,18.2z M39.8,35.4
	C35.9,46.6,23,46.1,17.5,45.3c0.9-18.2,11.7-22.2,11.7-22.2C17.6,26,15,38.3,14.3,43.9c-7.5-12.5-1.2-20.6,7-23.7
	C36.5,14.3,33,5.7,33,5.7S44.8,20.6,39.8,35.4z"/>
</svg>
