<svg id="Слой_1" data-name="Слой 1" xmlns="http://www.w3.org/2000/svg" viewBox="0 0 50 50"><defs><style>.cls-1{fill:#275b4d;}</style></defs><title>Монтажная область 1</title><path class="cls-1" d="M42.8,13.44a5.72,5.72,0,0,0-.82,0,13.24,13.24,0,0,0-1.49.22c-.51.15-1,.29-1.4.46a14.62,14.62,0,0,0-1.42.71,10.37,10.37,0,0,0-1.13.73c-.18-.55-.33-1-.44-1.24a9.93,9.93,0,0,0-.58-1.22,28.45,28.45,0,0,0-1.77-2.68A22.78,22.78,0,0,0,31.58,8,25.76,25.76,0,0,0,29,5.74,21,21,0,0,0,26.7,4.2,19.27,19.27,0,0,0,24.11,3a18.23,18.23,0,0,0-2.7-.8,19.51,19.51,0,0,0-2.86-.36,23.61,23.61,0,0,0-3,.09,18.89,18.89,0,0,0-2.79.51,18.31,18.31,0,0,0-3,1A22.92,22.92,0,0,0,7,4.84c-.35.22-1.13.78-2.37,1.73a8,8,0,0,0-.69.6C3.08,8,2.5,8.63,2.22,8.92a13.33,13.33,0,0,0-1,1.33,5.5,5.5,0,0,0-.55,1,3.09,3.09,0,0,0-.2.58,2,2,0,0,0-.09.47,1.64,1.64,0,0,0,0,.4,1.47,1.47,0,0,0,.05.36,1.13,1.13,0,0,0,.09.33,2.74,2.74,0,0,0,.16.33c.07.11.15.22.22.31a2.27,2.27,0,0,0,.29.31,1.1,1.1,0,0,0,.26.2c.2.15.36.24.44.29l.67.27a6.66,6.66,0,0,0,1.06.26c.15,0,.75.07,1.8.15a1.76,1.76,0,0,0,.44,0l.44,0,.11,0,.13-.05,0,0,0,0V15.3l0,0,0,0-.07-.05-.11-.07L6.07,15l-.44-.09-.33,0c-.18,0-.47,0-.86-.05l-.51-.11a1.52,1.52,0,0,1-.35-.15,1,1,0,0,1-.26-.15l-.2-.15L3,14.1l-.22-.4-.05-.24c0-.18,0-.27,0-.29a3,3,0,0,1,0-.4,2.48,2.48,0,0,1,.13-.6,7.12,7.12,0,0,1,.35-.89A11.17,11.17,0,0,1,4,9.91,9.05,9.05,0,0,1,5.19,8.43a21.86,21.86,0,0,1,2.3-2.08,17,17,0,0,1,2.59-1.68,17.21,17.21,0,0,1,2.75-1.22,16.71,16.71,0,0,1,2.66-.66,13.3,13.3,0,0,1,2.35-.2,11.21,11.21,0,0,1,2.22.16,13,13,0,0,1,2.35.56,19.16,19.16,0,0,1,2.19.95A7.34,7.34,0,0,1,25.75,5C27,5.88,27.92,6.57,28.46,7a25.79,25.79,0,0,1,2.42,2.5c.31.36,1,1.29,2,2.77a7.15,7.15,0,0,1,.44.77c.29.58.47,1,.6,1.33s.36,1.09.62,2l.22.64c-1,1-1.79,1.79-2.37,2.41-1,1.09-1.69,1.91-2.19,2.44-.73.77-1.28,1.33-1.62,1.71-.16.18-.29.31-.36.38l-1.4,1.33c-.27-.66-.51-1.15-.67-1.48a7.4,7.4,0,0,0-.78-1.11,7.28,7.28,0,0,0-.87-.95,6.59,6.59,0,0,0-1.11-.84c-.16-.11-.6-.35-1.29-.69l-.42-.16c-.91-.27-1.49-.44-1.8-.51a9.61,9.61,0,0,0-1.64-.18,11.13,11.13,0,0,0-1.53.05,9.44,9.44,0,0,0-1.06.24,6.12,6.12,0,0,0-.86.31c-.24.13-.47.26-.69.4l-.58.47-.15.15c-.26.29-.44.53-.56.67s-.29.47-.42.73a4.43,4.43,0,0,0-.27.77,5.5,5.5,0,0,0-.16.77,6.32,6.32,0,0,0,0,.86,6.57,6.57,0,0,0,.11.91,8.11,8.11,0,0,0,.26,1,6.2,6.2,0,0,0,.44.95,6.63,6.63,0,0,0,.58.87,7.31,7.31,0,0,0,.75.78,4.64,4.64,0,0,0,.75.55,5.32,5.32,0,0,0,.78.42.82.82,0,0,0,.33.13c.86.26,1.4.4,1.6.44a8.39,8.39,0,0,0,1.53.15,6.72,6.72,0,0,0,1.42-.11,9.46,9.46,0,0,0,1.42-.33,8.24,8.24,0,0,0,1.48-.6c.51-.26,1.17-.64,2-1.15l0,.93a2.25,2.25,0,0,1,0,.46c-.16,1.73-.27,2.77-.35,3.12a17.21,17.21,0,0,1-.8,2.92A19.25,19.25,0,0,1,23,38.88a18.85,18.85,0,0,1-1.69,2.61,19.71,19.71,0,0,1-2.1,2.35A25.87,25.87,0,0,1,16.69,46l-2.62,1.69v0h0l.05,0,.26.11a5.52,5.52,0,0,0,.78.2,2.65,2.65,0,0,0,.46.07.6.6,0,0,0,.26,0l.15,0,.11,0,.07,0c1.93-1.26,2.92-1.89,3-1.95a22,22,0,0,0,2.59-2.28,19.34,19.34,0,0,0,2.13-2.53,17.51,17.51,0,0,0,1.64-2.73,21.24,21.24,0,0,0,1.18-2.92c.16-.56.4-1.59.67-3.08a5.9,5.9,0,0,0,.15-1.08c.05-1,.07-1.69.05-2.17s-.09-1.17-.22-2.11c1.4-1.31,2.39-2.26,3-2.86.93-.95,2.28-2.41,4.06-4.37l1.2-1.24.42.55,1.31,1.29a12.67,12.67,0,0,0,1.59,1.11,12.06,12.06,0,0,0,1.6.82,8.92,8.92,0,0,0,1.66.56,8.76,8.76,0,0,0,1.48.26,10,10,0,0,0,1.29,0,5.73,5.73,0,0,0,1.82-.36,3.4,3.4,0,0,0,.73-.36,3.46,3.46,0,0,0,.67-.47,4.76,4.76,0,0,0,.62-.58,5.69,5.69,0,0,0,.49-.69,4.88,4.88,0,0,0,.38-.73l.05-.15c.09-.38.16-.62.18-.77a3.17,3.17,0,0,0,.09-.67,5.51,5.51,0,0,0-.05-.73,2.83,2.83,0,0,0-.07-.38,3.5,3.5,0,0,0-.24-.66,4,4,0,0,0-.33-.62l-.46-.58-.13-.13c-.27-.26-.46-.4-.51-.46a9,9,0,0,0-.78-.47A8.27,8.27,0,0,0,46.25,14a10.81,10.81,0,0,0-1.71-.4A14.32,14.32,0,0,0,42.8,13.44ZM17.91,20a7.63,7.63,0,0,1,.77,0A1.57,1.57,0,0,1,19,20c.55.07.86.13.93.15a6.12,6.12,0,0,1,.87.29,5.14,5.14,0,0,1,.77.42,5.75,5.75,0,0,1,.75.56,7.1,7.1,0,0,1,.73.75,10.56,10.56,0,0,1,.75,1.08,8.76,8.76,0,0,1,.67,1.4c.18.47.4,1.17.66,2.11-.95.69-1.64,1.18-2.08,1.44s-1.18.64-2.2,1.11a2.51,2.51,0,0,1-.71.26c-.36.11-.67.18-.93.24s-.51.05-.8.05a4.21,4.21,0,0,1-.67-.05,2.36,2.36,0,0,1-.62-.15,2.63,2.63,0,0,1-.56-.24,2.44,2.44,0,0,1-.49-.31,4.22,4.22,0,0,1-.46-.4c-.16-.18-.29-.35-.4-.49s-.24-.38-.36-.62-.22-.53-.29-.78a4.58,4.58,0,0,1-.18-.8A7.55,7.55,0,0,1,14.21,25a6.82,6.82,0,0,1,.09-1,8.34,8.34,0,0,1,.26-1,3.72,3.72,0,0,1,.33-.73,4,4,0,0,1,.36-.62,4.65,4.65,0,0,1,.44-.49,5.3,5.3,0,0,1,.49-.44c.13-.09.31-.18.53-.31l.58-.24A4.67,4.67,0,0,1,17.91,20Zm23.6-5.59a2.76,2.76,0,0,1,.47-.13,4.1,4.1,0,0,1,.77-.13,7,7,0,0,1,.87,0,4,4,0,0,1,.84.15,3.86,3.86,0,0,1,.75.24,6.84,6.84,0,0,1,.64.33,2.65,2.65,0,0,1,.55.4,3.58,3.58,0,0,1,.46.44,3.41,3.41,0,0,1,.36.51,3.18,3.18,0,0,1,.27.56c.09.24.15.46.2.64a7.22,7.22,0,0,1,.09.73,3.71,3.71,0,0,1,0,.64,6.23,6.23,0,0,1-.09.71c-.05.18-.09.36-.16.56s-.13.31-.22.47A4.19,4.19,0,0,1,47,21a.89.89,0,0,1-.22.24,2.72,2.72,0,0,1-.35.27,2.56,2.56,0,0,1-.4.26,3.07,3.07,0,0,1-.49.2,3.54,3.54,0,0,1-.6.13,4.42,4.42,0,0,1-.77.07c-.4,0-.71,0-1-.07a9,9,0,0,1-1.29-.33,7.75,7.75,0,0,1-1.31-.55,11.92,11.92,0,0,1-1-.66,5.28,5.28,0,0,1-.84-.71,2.24,2.24,0,0,1-.4-.42,6.7,6.7,0,0,1-.58-.82c-.15-.26-.36-.71-.66-1.33q.68-.6,1-.87c.8-.56,1.44-1,1.93-1.29Q40.33,15,41.51,14.44Z"/></svg>