<?xml version="1.0" encoding="utf-8"?>
<!-- Generator: Adobe Illustrator 21.1.0, SVG Export Plug-In . SVG Version: 6.00 Build 0)  -->
<svg version="1.1" id="Слой_1" xmlns="http://www.w3.org/2000/svg" xmlns:xlink="http://www.w3.org/1999/xlink" x="0px" y="0px"
	 viewBox="0 0 50 50" style="enable-background:new 0 0 50 50;" xml:space="preserve">
<style type="text/css">
	.st0{fill:#686868;}
</style>
<g>
	<path class="st0" d="M33.1,6.6c-1.3-1.1-2.3-0.8-3.6,1.6c-0.9,1.6-2.3,1.8-3.2,1.7V9.6c1-0.5,1.7-1.5,1.7-2.7c0-1.7-1.4-3-3-3
		c-1.7,0-3,1.3-3,3c0,1.2,0.7,2.2,1.7,2.7v0.3c-0.9,0-2.3-0.1-3.2-1.7c-1.3-2.4-2.3-2.6-3.6-1.6c-1.4,1.1-6.6,7.4-13.1,6.8
		c0,0,1.3,2.9,4.8,2.3c0,0,1.9,1.9,4.9,0.6c0,0,1.6,1.4,4.1,0.1c0,0,1.8,1.4,3.8,0.2c0,0,1.1,0.8,2.4,0.6l0.1,7.3
		c-0.1,0-0.2-0.1-0.4-0.1c0,0-2.2-0.5-4.5-1.1c-2.2-0.6-4.6-1.5-5-2c0,0,0.1-0.1,0.1-0.1c0.2-0.1,0.5-0.2,0.9-0.3
		c0.8-0.2,1.9-0.2,3-0.3c2.2-0.1,2.6,0,2.6,0c0-0.1,1.3,0.2,1.6-1.1c0,0,0-0.1,0-0.1c-0.1-0.9-0.7-0.9-1.3-1
		c-0.9-0.1-0.4-0.1-1.6-0.1c-2,0.2-8.2-0.3-8.9,2.9c0,0.1,0,0.2,0,0.2c0.3,2.8,6.1,4,10.3,4.9c-1.4,1-2.2,2.3-2.5,3.9
		c-0.2,1.8,1.3,3.4,4.5,5.3c-2.5,1.7-4.1,3.4-4,5.4c0.2,1.6,1.7,3.8,4.5,5.2c0,0,0,0,0,0h0c0,0-2-3-2.1-4.6c-0.1-1,0.4-2.4,2.8-4.1
		l0.1,6h0c0,0.5,0.4,0.9,0.9,0.9c0.5,0,0.9-0.4,0.9-0.9l0.1-5.8c2.2,1.6,2.7,3,2.6,3.9c-0.1,1.6-2.1,4.6-2.1,4.6s0,0,0,0
		c2.8-1.4,4.2-3.5,4.5-5.2c0.1-2-1.5-3.6-4-5.4c3.3-1.9,4.7-3.6,4.5-5.3c-0.3-1.7-1.1-2.9-2.5-3.9c4.2-0.8,10.1-2.1,10.3-4.9
		c0-0.1,0-0.1,0-0.2c-0.8-3.2-6.9-2.7-8.9-2.9c-1.2,0-0.7-0.1-1.6,0.1c-0.6,0.1-1.2,0.2-1.3,1c0,0,0,0.1,0,0.1
		c0.3,1.3,1.6,1.1,1.6,1.1c0,0,0.4-0.1,2.6,0c1.1,0,2.2,0.1,3,0.3c0.4,0.1,0.7,0.2,0.9,0.3c0.1,0,0.1,0.1,0.1,0.1
		c-0.4,0.5-2.8,1.4-5,2c-2.3,0.6-4.5,1.1-4.5,1.1c-0.1,0-0.1,0-0.2,0l0.1-7.2c1.3,0.2,2.4-0.6,2.4-0.6c2,1.2,3.8-0.2,3.8-0.2
		c2.5,1.3,4.1-0.1,4.1-0.1c3,1.4,4.9-0.6,4.9-0.6c3.5,0.6,4.8-2.3,4.8-2.3C39.7,14,34.4,7.7,33.1,6.6L33.1,6.6z M21,30.9
		c0-0.6-0.2-2.2,2.8-3.3l0.1,6c-0.6-0.4-1.2-0.7-1.8-1.1C21.3,32,21,31.3,21,30.9L21,30.9z M27.6,32.5c-0.5,0.3-1,0.7-1.6,1l0.1-5.8
		c2.8,1.1,2.5,2.5,2.6,3.2C28.8,31.3,28.4,32,27.6,32.5L27.6,32.5z M27.6,32.5"/>
</g>
</svg>
