<?xml version="1.0" encoding="utf-8"?>
<!-- Generator: Adobe Illustrator 21.1.0, SVG Export Plug-In . SVG Version: 6.00 Build 0)  -->
<svg version="1.1" id="Слой_1" xmlns="http://www.w3.org/2000/svg" xmlns:xlink="http://www.w3.org/1999/xlink" x="0px" y="0px"
	 viewBox="0 0 50 50" style="enable-background:new 0 0 50 50;" xml:space="preserve">
<style type="text/css">
	.st0{fill:#275B4D;}
</style>
<path class="st0" d="M41.6,19.1c0-0.7-0.7-1.3-1.6-1.3h-31c-0.9,0-1.6,0.6-1.6,1.3L3,41.1c0,0.7,0.7,1.3,1.6,1.3h2.5
	c1.1,0.8,8.5,5.6,18,5.6c5.1,0,10.9-1.4,16.6-5.6h3.6c0.9,0,1.6-0.6,1.6-1.3L41.6,19.1z M9.2,42.4h30.5C26.7,51,13.7,45,9.2,42.4
	L9.2,42.4z M5,40.9l4.3-21.5h30.4L45,40.9H5z M5,40.9"/>
<path class="st0" d="M18.4,21h-7.7l-1.4,5h9.1V21z M18.4,21"/>
<rect x="20.5" y="21" class="st0" width="9.1" height="5"/>
<path class="st0" d="M31.6,21v5h8.5l-1.4-5H31.6z M31.6,21"/>
<path class="st0" d="M7.9,32.6h10.5v-5H9.3L7.9,32.6z M7.9,32.6"/>
<rect x="20.5" y="27.6" class="st0" width="9.1" height="5"/>
<path class="st0" d="M31.6,32.6h10l-1.4-5h-8.5V32.6z M31.6,32.6"/>
<path class="st0" d="M6.7,39.3h11.7v-5H8.2L6.7,39.3z M6.7,39.3"/>
<rect x="20.5" y="34.3" class="st0" width="9.1" height="5"/>
<path class="st0" d="M31.6,34.3v5H43l-1.4-5H31.6z M31.6,34.3"/>
<path class="st0" d="M10.8,12.5c-0.3,0.4-0.3,1,0.1,1.3C11,14,11.2,14,11.4,14c0.3,0,0.5-0.1,0.7-0.3c0.1-0.2,3.4-4,0.9-7.2
	c-1.4-1.7-0.4-2.7-0.1-2.9c0.4-0.3,0.5-0.9,0.1-1.3c-0.3-0.4-0.9-0.5-1.3-0.1c-1,0.8-2.2,2.9-0.1,5.5C13.2,9.6,10.8,12.5,10.8,12.5
	L10.8,12.5z M10.8,12.5"/>
<path class="st0" d="M18.8,12.5c-0.3,0.4-0.3,1,0.1,1.3C19,14,19.2,14,19.5,14c0.3,0,0.5-0.1,0.7-0.3c0.1-0.2,3.4-4,0.9-7.2
	c-1.4-1.7-0.4-2.7-0.1-2.9c0.4-0.3,0.5-0.9,0.1-1.3c-0.3-0.4-0.9-0.5-1.3-0.1c-1,0.8-2.2,2.9-0.1,5.5C21.2,9.6,18.8,12.5,18.8,12.5
	L18.8,12.5z M18.8,12.5"/>
<path class="st0" d="M26.8,12.5c-0.3,0.4-0.3,1,0.1,1.3C27,14,27.3,14,27.5,14c0.3,0,0.5-0.1,0.7-0.3c0.1-0.2,3.4-4,0.9-7.2
	c-1.4-1.7-0.4-2.7-0.1-2.9c0.4-0.3,0.5-0.9,0.1-1.3c-0.3-0.4-0.9-0.5-1.3-0.1c-1,0.8-2.2,2.9-0.1,5.5C29.2,9.6,26.8,12.5,26.8,12.5
	L26.8,12.5z M26.8,12.5"/>
<path class="st0" d="M34.8,12.5c-0.3,0.4-0.3,1,0.1,1.3c0.2,0.1,0.4,0.2,0.6,0.2c0.3,0,0.5-0.1,0.7-0.3c0.1-0.2,3.4-4,0.9-7.2
	c-1.4-1.7-0.4-2.7-0.1-2.9c0.4-0.3,0.5-0.9,0.1-1.3c-0.3-0.4-0.9-0.5-1.3-0.1c-1,0.8-2.2,2.9-0.1,5.5C37.2,9.6,34.8,12.5,34.8,12.5
	L34.8,12.5z M34.8,12.5"/>
</svg>
