<?xml version="1.0" encoding="utf-8"?>
<!-- Generator: Adobe Illustrator 21.1.0, SVG Export Plug-In . SVG Version: 6.00 Build 0)  -->
<svg version="1.1" id="Слой_1" xmlns="http://www.w3.org/2000/svg" xmlns:xlink="http://www.w3.org/1999/xlink" x="0px" y="0px"
	 viewBox="0 0 50 50" style="enable-background:new 0 0 50 50;" xml:space="preserve">
<style type="text/css">
	.st0{fill:#FFFFFF;}
</style>
<title>Монтажная область 1</title>
<path class="st0" d="M25,0C11.2,0,0,11.2,0,25s11.2,25,25,25s25-11.2,25-25S38.8,0,25,0z M25.2,15.1c4.9,0.7,8.8,4.4,9.6,9.3
	l-2.5,0.4c-0.7-3.7-3.7-6.6-7.4-7.2L25.2,15.1z M37.4,37.7c-0.7,0.7-1.5,1.5-2.2,2.2c-0.9,1.1-2.3,1.6-3.8,1.4
	c-2.1-0.2-4.1-0.8-5.9-1.7c-4.1-2-7.8-4.9-10.8-8.4c-2.2-2.6-4-5.5-5.2-8.7c-0.6-1.5-0.9-3.2-0.9-4.9c0.1-1,0.5-2,1.2-2.7
	c0.8-0.8,1.6-1.6,2.4-2.4c0.8-1,2.3-1.1,3.3-0.2c0.1,0.1,0.1,0.1,0.2,0.2c0.7,0.7,1.3,1.3,2,2l1.9,1.9c1,0.8,1.1,2.3,0.3,3.3
	c-0.1,0.1-0.2,0.2-0.3,0.3c-0.8,0.8-1.6,1.6-2.4,2.4c-0.2,0.2-0.2,0.4-0.1,0.6c0.6,1.3,1.3,2.5,2.2,3.5c1.7,2.2,3.8,4,6.1,5.5
	c0.5,0.3,1.1,0.5,1.6,0.8c0.2,0.2,0.5,0.1,0.7-0.1c0.8-0.8,1.6-1.6,2.4-2.4c0.8-1,2.3-1.1,3.2-0.2c0.1,0.1,0.2,0.2,0.2,0.2
	c1.3,1.3,2.6,2.6,3.9,3.9c1,0.8,1.1,2.3,0.2,3.3C37.6,37.5,37.5,37.6,37.4,37.7L37.4,37.7z M38.8,24.4c-1.2-6.9-6.7-12.3-13.7-13.3
	l0.4-2.5C33.6,9.7,40,15.9,41.4,24L38.8,24.4z"/>
</svg>
