<?xml version="1.0" encoding="utf-8"?>
<!-- Generator: Adobe Illustrator 21.1.0, SVG Export Plug-In . SVG Version: 6.00 Build 0)  -->
<svg version="1.1" id="Слой_1" xmlns="http://www.w3.org/2000/svg" xmlns:xlink="http://www.w3.org/1999/xlink" x="0px" y="0px"
	 viewBox="0 0 50 50" style="enable-background:new 0 0 50 50;" xml:space="preserve">
<style type="text/css">
	.st0{fill:#2b2b2b;}
</style>
<g>
	<g>
		<path class="st0" d="M36.9,32.4c-1.5-1.5-3.4-1.5-4.9,0c-1.1,1.1-2.3,2.3-3.4,3.4c-0.3,0.3-0.6,0.4-0.9,0.2
			c-0.7-0.4-1.5-0.7-2.2-1.2c-3.3-2.1-6.1-4.7-8.5-7.7c-1.2-1.5-2.3-3.1-3-4.9c-0.2-0.4-0.1-0.6,0.2-0.9c1.1-1.1,2.2-2.2,3.4-3.3
			c1.6-1.6,1.6-3.4,0-5c-0.9-0.9-1.8-1.8-2.7-2.7c-0.9-0.9-1.8-1.8-2.8-2.7c-1.5-1.5-3.4-1.5-4.9,0C6,8.7,4.9,9.8,3.8,10.9
			c-1.1,1-1.6,2.3-1.7,3.7c-0.2,2.4,0.4,4.6,1.2,6.8C4.9,26,7.5,30,10.6,33.7c4.2,5,9.2,8.9,15.1,11.8c2.6,1.3,5.4,2.3,8.3,2.4
			c2,0.1,3.8-0.4,5.2-2c1-1.1,2.1-2.1,3.1-3.1c1.5-1.5,1.5-3.4,0-4.9C40.6,36,38.8,34.2,36.9,32.4L36.9,32.4z M36.9,32.4"/>
	</g>
	<path class="st0" d="M35.1,24.8l3.5-0.6c-0.6-3.2-2.1-6.2-4.4-8.5c-2.5-2.5-5.6-4-9-4.5l-0.5,3.5c2.6,0.4,5.1,1.6,7,3.5
		C33.5,20,34.7,22.3,35.1,24.8L35.1,24.8z M35.1,24.8"/>
	<path class="st0" d="M40.6,9.5c-4.1-4.1-9.2-6.6-14.9-7.4l-0.5,3.5c4.9,0.7,9.4,2.9,12.9,6.4c3.3,3.3,5.5,7.5,6.3,12.2l3.5-0.6
		C47,18.2,44.5,13.3,40.6,9.5L40.6,9.5z M40.6,9.5"/>
</g>
</svg>
