<?xml version="1.0" encoding="utf-8"?>
<!-- Generator: Adobe Illustrator 21.1.0, SVG Export Plug-In . SVG Version: 6.00 Build 0)  -->
<svg version="1.1" id="Слой_1" xmlns="http://www.w3.org/2000/svg" xmlns:xlink="http://www.w3.org/1999/xlink" x="0px" y="0px"
	 viewBox="0 0 50 50" style="enable-background:new 0 0 50 50;" xml:space="preserve">
<style type="text/css">
	.st0{fill:#275B4D;}
</style>
<g>
	<path class="st0" d="M24.1,32.9c0.9,0,1.8,0,2.7,0c0.7,0,1-0.3,1-1c0-0.7,0-1.4,0-2.1c0,0,0,0,0,0c0-0.7,0-1.4,0-2.1
		c0-0.8-0.3-1.1-1-1.1c-1,0-2,0-3,0c-0.5,0-0.7,0.3-0.7,0.8c0,0.3,0,0.6,0,0.9c0,1.2,0,2.5,0,3.7C23.1,32.6,23.4,32.9,24.1,32.9z
		 M25,28.2c0.3,0,0.6,0,0.9,0c0.2,0,0.3,0.1,0.3,0.3c0,0.8,0,1.6,0,2.4c0,0.2-0.1,0.4-0.3,0.4c-0.3,0-0.6,0-0.8,0
		c-0.3,0-0.4-0.1-0.4-0.4c0-0.4,0-0.8,0-1.2c0,0,0,0,0,0c0-0.4,0-0.8,0-1.2C24.7,28.3,24.8,28.2,25,28.2z"/>
	<path class="st0" d="M33.6,32.9c0.9,0,1.8,0,2.7,0c0.7,0,1-0.3,1-1c0-0.7,0-1.4,0-2.1c0,0,0,0,0,0c0-0.7,0-1.4,0-2.1
		c0-0.7-0.3-1-1-1c-1,0-2,0-3,0c-0.4,0-0.7,0.3-0.7,0.7c0,0.2,0,0.5,0,0.7c0,1.3,0,2.6,0,4C32.6,32.7,32.9,32.9,33.6,32.9z
		 M34.2,28.5c0-0.2,0.1-0.3,0.3-0.3c0.3,0,0.6,0,0.9,0c0.3,0,0.3,0.1,0.3,0.4c0,0.8,0,1.6,0,2.4c0,0.2-0.1,0.4-0.3,0.4
		c-0.3,0-0.5,0-0.8,0c-0.3,0-0.4-0.1-0.4-0.4c0-0.4,0-0.8,0-1.2C34.2,29.3,34.2,28.9,34.2,28.5z"/>
	<path class="st0" d="M25,0C11.2,0,0,11.2,0,25s11.2,25,25,25s25-11.2,25-25S38.8,0,25,0z M31.4,25.9c2.9-2,5.7-4.1,8.6-6.1
		c0.1-0.1,0.2-0.2,0.5-0.3c0,0.2,0,0.4,0,0.5c0,5.7,0,11.4,0,17c0,0.6,0,0.6-0.6,0.6c-2.8,0-5.5,0-8.3,0c-0.5,0-0.5,0-0.5-0.5
		c0-3.5,0-7,0-10.5C31,26.3,31.1,26.1,31.4,25.9z M21.8,24.9c2.5-1.7,4.9-3.5,7.4-5.2c0.1,0,0.1-0.1,0.2-0.1c0,0.2,0,0.3,0,0.4
		c0,5.8,0,11.5,0,17.3c0,0.3-0.1,0.4-0.4,0.4c-1.8,0-3.7,0-5.5,0c-0.3,0-0.4-0.1-0.5-0.4c-0.4-3.3-0.8-6.5-1.2-9.8
		c-0.1-0.6-0.2-1.2-0.2-1.9C21.5,25.3,21.5,25.1,21.8,24.9z M20.4,4.8c0.1,0,0.1,0,0.2,0.1c0.5,3.2-1.1,7.4-3.7,7.8
		c-0.6,0.1-1.1,0-1.7-0.4c-0.1,0-0.1-0.1-0.1-0.1c0.7-2.3,2.2-3.7,4.5-5.2c0.2-0.2,0.3-0.5,0.2-0.7c-0.2-0.2-0.5-0.3-0.7-0.2
		c-2.2,1.4-3.8,2.8-4.7,5c0-0.1-0.1-0.2-0.1-0.3C13.7,8.2,17.2,5.3,20.4,4.8z M11.8,15.1c0-0.1,0-0.1,0-0.2C12,14,12,14,13,14
		c1.7,0,3.3,0,5,0c0.4,0,0.6,0.1,0.6,0.5c0,0.2,0,0.4,0.1,0.7c0,0.3-0.1,0.4-0.4,0.4c-1,0-2,0-3.1,0c0,0,0,0,0,0c-1,0-2,0-3,0
		C11.9,15.5,11.8,15.4,11.8,15.1z M11.6,17.4c0-0.1,0.3-0.2,0.4-0.2c1.7,0,3.3,0,5,0c0.5,0,1,0,1.5,0c0.2,0,0.4,0.1,0.4,0.3
		c0,0.4,0.1,0.8,0.1,1.2c-2.5,0-5.1,0-7.6,0C11.5,18.2,11.5,17.8,11.6,17.4z M9.2,35.8c0.3-2.7,0.7-5.4,1-8.1
		c0.3-2.4,0.6-4.7,0.9-7.1c0-0.2,0.1-0.3,0.3-0.3c0.8,0,1.7,0,2.5,0c0.9,0,1.7,0,2.6,0c0.8,0,1.5,0,2.3,0c0.3,0,0.4,0.1,0.4,0.4
		c0.5,3.9,1,7.7,1.5,11.6c0.2,1.6,0.4,3.2,0.6,4.8c0,0.2,0,0.3,0,0.5c-4.1,0-8.2,0-12.3,0C9.1,37,9.2,36.4,9.2,35.8z M40.9,40.8
		c-5.4,0-10.8,0-16.2,0c0,0,0,0,0,0c-5.6,0-11.2,0-16.8,0c-0.5,0-0.5,0-0.5-0.5c0-0.2,0-0.4,0-0.6c0-0.5,0-0.5,0.5-0.5
		c2.1,0,4.1,0,6.2,0c2.2,0,4.4,0,6.7,0c2.2,0,4.5,0,6.7,0c1.7,0,3.5,0,5.2,0c2.9,0,5.8,0,8.7,0c0.1,0,0.3,0,0.4,0
		c0.2,0,0.3,0.1,0.3,0.3C42,41,42.2,40.8,40.9,40.8z"/>
</g>
</svg>
