<?xml version="1.0" encoding="utf-8"?>
<!-- Generator: Adobe Illustrator 21.1.0, SVG Export Plug-In . SVG Version: 6.00 Build 0)  -->
<svg version="1.1" id="Слой_1" xmlns="http://www.w3.org/2000/svg" xmlns:xlink="http://www.w3.org/1999/xlink" x="0px" y="0px"
	 viewBox="0 0 50 50" style="enable-background:new 0 0 50 50;" xml:space="preserve">
<style type="text/css">
	.st0{fill:#275B4D;}
</style>
<path class="st0" d="M45.6,6.3h-0.7V3.4c0-0.8-0.6-1.4-1.4-1.4C42.6,2,42,2.6,42,3.4v2.9h-2.9V3.4c0-0.8-0.6-1.4-1.4-1.4
	s-1.4,0.6-1.4,1.4v2.9h-0.7c-0.8,0-1.4,0.6-1.4,1.4c0,0.7,0.5,1.3,1.1,1.4l1.8,4.9c0.2,0.6,0.7,0.9,1.3,0.9h0.7v4.3
	c0,1.2-0.8,2.3-1.8,2.7c-2.9-6.2-9.1-10.5-16.3-10.5c-9.9,0-18,8.2-18,18.2C3,39.8,11.1,48,21,48c9.9,0,18-8.2,18-18.2
	c0-1.7-0.3-3.4-0.7-5c2.1-0.8,3.7-2.9,3.7-5.4V15h0.7c0.6,0,1.1-0.4,1.3-0.9l1.8-4.9C46.5,9.1,47,8.5,47,7.8C47,7,46.4,6.3,45.6,6.3
	z M19.2,16.3c0-1,0.8-1.8,1.8-1.8c1,0,1.8,0.8,1.8,1.8V29c0,1-0.8,1.8-1.8,1.8c-1,0-1.8-0.8-1.8-1.8V16.3z M21,43.2
	c-7,0-12.7-5.8-12.7-12.9c0-4.6,2.5-8.9,6.4-11.2c0.9-0.5,2-0.2,2.5,0.7c0.5,0.9,0.2,2-0.7,2.5c-2.8,1.6-4.6,4.7-4.6,8
	c0,5.1,4.1,9.2,9.1,9.2c5,0,9.1-4.1,9.1-9.2c0-3.3-1.8-6.4-4.6-8c-0.9-0.5-1.2-1.6-0.7-2.5c0.5-0.9,1.6-1.2,2.5-0.7
	c4,2.3,6.4,6.6,6.4,11.2C33.8,37.4,28,43.2,21,43.2z"/>
</svg>
