<?xml version="1.0" encoding="utf-8"?>
<!-- Generator: Adobe Illustrator 21.1.0, SVG Export Plug-In . SVG Version: 6.00 Build 0)  -->
<svg version="1.1" id="Слой_1" xmlns="http://www.w3.org/2000/svg" xmlns:xlink="http://www.w3.org/1999/xlink" x="0px" y="0px"
	 viewBox="0 0 50 50" style="enable-background:new 0 0 50 50;" xml:space="preserve">
<style type="text/css">
	.st0{fill:#FFFFFF;}
</style>
<path class="st0" d="M48,4.6c-0.2-0.2-0.5-0.2-0.8-0.1L2.1,25.5c-0.2,0.1-0.4,0.4-0.4,0.6c0,0.3,0.1,0.5,0.4,0.6L14.9,33
	c0.2,0.1,0.5,0.1,0.7-0.1L28,23.7l-9.7,10c-0.1,0.1-0.2,0.3-0.2,0.5l1,12.6c0,0.3,0.2,0.5,0.5,0.6c0.1,0,0.1,0,0.2,0
	c0.2,0,0.4-0.1,0.5-0.2l6.8-7.8l8.4,4c0.2,0.1,0.4,0.1,0.6,0c0.2-0.1,0.3-0.2,0.4-0.4L48.2,5.4C48.3,5.1,48.2,4.8,48,4.6L48,4.6z
	 M48,4.6"/>
</svg>
