<?xml version="1.0" encoding="utf-8"?>
<!-- Generator: Adobe Illustrator 21.0.0, SVG Export Plug-In . SVG Version: 6.00 Build 0)  -->
<svg version="1.1" id="Слой_1" xmlns="http://www.w3.org/2000/svg" xmlns:xlink="http://www.w3.org/1999/xlink" x="0px" y="0px"
	 viewBox="0 0 50 50" style="enable-background:new 0 0 50 50;" xml:space="preserve">
<style type="text/css">
	.st0{fill:#686868;}
</style>
<path class="st0" d="M36.5,48H9.1c2.1-3.9,7.5-6.6,13.7-6.6S34.4,44.1,36.5,48z"/>
<path class="st0" d="M24.4,2h-2.8C13.6,2,7,8.4,7,16.2V48h1.5c1.4-4.7,7.3-8.2,14.4-8.2s12.9,3.5,14.4,8.2H39V16.2
	C39,8.4,32.4,2,24.4,2z M15.6,37.3c-1.6,0-2.9-1.3-2.9-2.8c0-1.6,1.3-2.8,2.9-2.8s2.9,1.3,2.9,2.8C18.5,36.1,17.2,37.3,15.6,37.3z
	 M15.6,29.8c-1.6,0-2.9-1.3-2.9-2.8c0-1.6,1.3-2.8,2.9-2.8s2.9,1.3,2.9,2.8S17.2,29.8,15.6,29.8z M15.6,22.3c-1.6,0-2.9-1.3-2.9-2.8
	c0-1.6,1.3-2.8,2.9-2.8s2.9,1.3,2.9,2.8S17.2,22.3,15.6,22.3z M15.6,14.7c-1.6,0-2.9-1.3-2.9-2.8c0-1.6,1.3-2.8,2.9-2.8
	s2.9,1.3,2.9,2.8C18.5,13.5,17.2,14.7,15.6,14.7z M23,37.3c-1.6,0-2.9-1.3-2.9-2.8c0-1.6,1.3-2.8,2.9-2.8s2.9,1.3,2.9,2.8
	C25.9,36.1,24.6,37.3,23,37.3z M23,29.8c-1.6,0-2.9-1.3-2.9-2.8c0-1.6,1.3-2.8,2.9-2.8s2.9,1.3,2.9,2.8S24.6,29.8,23,29.8z M23,22.3
	c-1.6,0-2.9-1.3-2.9-2.8c0-1.6,1.3-2.8,2.9-2.8s2.9,1.3,2.9,2.8S24.6,22.3,23,22.3z M23,14.7c-1.6,0-2.9-1.3-2.9-2.8
	c0-1.6,1.3-2.8,2.9-2.8s2.9,1.3,2.9,2.8C25.9,13.5,24.6,14.7,23,14.7z M30.1,37.3c-1.6,0-2.9-1.3-2.9-2.8c0-1.6,1.3-2.8,2.9-2.8
	S33,33,33,34.5C33,36.1,31.7,37.3,30.1,37.3z M30.1,29.8c-1.6,0-2.9-1.3-2.9-2.8c0-1.6,1.3-2.8,2.9-2.8S33,25.5,33,27
	S31.7,29.8,30.1,29.8z M30.1,22.3c-1.6,0-2.9-1.3-2.9-2.8c0-1.6,1.3-2.8,2.9-2.8S33,18,33,19.5S31.7,22.3,30.1,22.3z M30.1,14.7
	c-1.6,0-2.9-1.3-2.9-2.8c0-1.6,1.3-2.8,2.9-2.8s2.9,1.3,2.9,2.8C33,13.5,31.7,14.7,30.1,14.7z"/>
</svg>
