<?xml version="1.0" encoding="utf-8"?>
<!-- Generator: Adobe Illustrator 21.0.0, SVG Export Plug-In . SVG Version: 6.00 Build 0)  -->
<svg version="1.1" id="Слой_1" xmlns="http://www.w3.org/2000/svg" xmlns:xlink="http://www.w3.org/1999/xlink" x="0px" y="0px"
	 viewBox="0 0 50 50" style="enable-background:new 0 0 50 50;" xml:space="preserve">
<style type="text/css">
	.st0{fill:#686868;}
</style>
<path class="st0" d="M38.5,48H11.1c2.1-3.9,7.5-6.6,13.7-6.6S36.4,44.1,38.5,48z"/>
<path class="st0" d="M26.4,2h-2.8C15.6,2,9,8.4,9,16.2V48h1.5c1.4-4.7,7.3-8.2,14.4-8.2s12.9,3.5,14.4,8.2H41V16.2
	C41,8.4,34.4,2,26.4,2z M17.6,37.3c-1.6,0-2.9-1.3-2.9-2.8c0-1.6,1.3-2.8,2.9-2.8s2.9,1.3,2.9,2.8C20.5,36.1,19.2,37.3,17.6,37.3z
	 M17.6,29.8c-1.6,0-2.9-1.3-2.9-2.8c0-1.6,1.3-2.8,2.9-2.8s2.9,1.3,2.9,2.8S19.2,29.8,17.6,29.8z M17.6,22.3c-1.6,0-2.9-1.3-2.9-2.8
	c0-1.6,1.3-2.8,2.9-2.8s2.9,1.3,2.9,2.8S19.2,22.3,17.6,22.3z M17.6,14.7c-1.6,0-2.9-1.3-2.9-2.8c0-1.6,1.3-2.8,2.9-2.8
	s2.9,1.3,2.9,2.8C20.5,13.5,19.2,14.7,17.6,14.7z M25,37.3c-1.6,0-2.9-1.3-2.9-2.8c0-1.6,1.3-2.8,2.9-2.8s2.9,1.3,2.9,2.8
	C27.9,36.1,26.6,37.3,25,37.3z M25,29.8c-1.6,0-2.9-1.3-2.9-2.8c0-1.6,1.3-2.8,2.9-2.8s2.9,1.3,2.9,2.8S26.6,29.8,25,29.8z M25,22.3
	c-1.6,0-2.9-1.3-2.9-2.8c0-1.6,1.3-2.8,2.9-2.8s2.9,1.3,2.9,2.8S26.6,22.3,25,22.3z M25,14.7c-1.6,0-2.9-1.3-2.9-2.8
	c0-1.6,1.3-2.8,2.9-2.8s2.9,1.3,2.9,2.8C27.9,13.5,26.6,14.7,25,14.7z M32.1,37.3c-1.6,0-2.9-1.3-2.9-2.8c0-1.6,1.3-2.8,2.9-2.8
	c1.6,0,2.9,1.3,2.9,2.8C35,36.1,33.7,37.3,32.1,37.3z M32.1,29.8c-1.6,0-2.9-1.3-2.9-2.8c0-1.6,1.3-2.8,2.9-2.8
	c1.6,0,2.9,1.3,2.9,2.8S33.7,29.8,32.1,29.8z M32.1,22.3c-1.6,0-2.9-1.3-2.9-2.8c0-1.6,1.3-2.8,2.9-2.8c1.6,0,2.9,1.3,2.9,2.8
	S33.7,22.3,32.1,22.3z M32.1,14.7c-1.6,0-2.9-1.3-2.9-2.8c0-1.6,1.3-2.8,2.9-2.8c1.6,0,2.9,1.3,2.9,2.8C35,13.5,33.7,14.7,32.1,14.7
	z"/>
</svg>
