<?xml version="1.0" encoding="utf-8"?>
<!-- Generator: Adobe Illustrator 21.1.0, SVG Export Plug-In . SVG Version: 6.00 Build 0)  -->
<svg version="1.1" id="Слой_1" xmlns="http://www.w3.org/2000/svg" xmlns:xlink="http://www.w3.org/1999/xlink" x="0px" y="0px"
	 viewBox="0 0 50 50" style="enable-background:new 0 0 50 50;" xml:space="preserve">
<style type="text/css">
	.st0{fill:#686868;}
</style>
<g>
	<path class="st0" d="M22.4,7.9L22,8.6C20.7,10.4,9.8,27,9.8,33.6c0,7,5.7,12.6,12.6,12.6c7,0,12.6-5.7,12.6-12.6
		c0-6.6-11-23.1-12.2-25L22.4,7.9z"/>
	<path class="st0" d="M36.4,4.3l-0.4-0.5l-0.4,0.5c-0.6,0.9-3.8,5.7-3.8,7.8c0,2.3,1.9,4.1,4.1,4.1c2.3,0,4.1-1.9,4.1-4.1
		C40.2,10.1,37.1,5.3,36.4,4.3z"/>
</g>
</svg>
