<?xml version="1.0" encoding="utf-8"?>
<!-- Generator: Adobe Illustrator 21.1.0, SVG Export Plug-In . SVG Version: 6.00 Build 0)  -->
<svg version="1.1" id="Слой_1" xmlns="http://www.w3.org/2000/svg" xmlns:xlink="http://www.w3.org/1999/xlink" x="0px" y="0px"
	 viewBox="0 0 50 50" style="enable-background:new 0 0 50 50;" xml:space="preserve">
<style type="text/css">
	.st0{fill:#686868;}
</style>
<g>
	<path class="st0" d="M42,16.6c0-3.1-2.4-5.7-5.4-6c-0.9-2.3-3.1-4-5.7-4c-1.1,0-2.2,0.3-3.1,0.9c-1-1.9-3-3.1-5.3-3.1
		c-3,0-5.5,2.2-6,5.1c-0.2,0-0.5,0-0.8,0c-3.3,0-6.1,2.7-6.1,6.1c0,0.2,0,0.3,0,0.5c-1.7,1.1-2.8,3-2.8,5.1c0,1.9,0.9,3.6,2.3,4.7
		c0,0.1,0,0.2,0,0.3c0,3.3,2.7,6.1,6.1,6.1c1,0,1.9-0.2,2.8-0.7c1.2,0.8,2.8,1.9,3.6,1.7c0,0,0.3,4.6,0.2,5.8
		c-0.1,2.2-0.8,4.7-1.3,6.7h7.3c0,0-1.1-4.5-1.1-6c0-1.5,0.5-4.2,0.5-4.2l2.5-2.6c1,0.7,2.1,1,3.4,1c3.1,0,5.7-2.4,6-5.4
		c2.3-0.9,4-3.1,4-5.7c0-1.5-0.6-2.9-1.5-4C41.8,18.1,42,17.3,42,16.6L42,16.6z M19.4,30.5c0.5-0.5,0.9-1,1.2-1.6l1.2,2.5
		C21.8,31.4,21.1,31.6,19.4,30.5L19.4,30.5z M23.8,32c-0.6,0.1-1.7-1.8-2.4-3.3c0.8,0.4,1.8,0.7,2.7,0.7c0.3,0,0.5,0,0.8,0
		C24.7,30.5,24.4,31.9,23.8,32L23.8,32z M26.4,33.2c-1.4,0.4-0.6-2.5-0.2-4.3c0.3-0.1,0.6-0.2,0.9-0.4c0.2,1.2,0.7,2.4,1.5,3.3
		C27.9,32.4,27.1,33,26.4,33.2L26.4,33.2z M26.4,33.2"/>
</g>
</svg>
