<?xml version="1.0" encoding="utf-8"?>
<!-- Generator: Adobe Illustrator 21.1.0, SVG Export Plug-In . SVG Version: 6.00 Build 0)  -->
<svg version="1.1" id="Слой_1" xmlns="http://www.w3.org/2000/svg" xmlns:xlink="http://www.w3.org/1999/xlink" x="0px" y="0px"
	 viewBox="0 0 50 50" style="enable-background:new 0 0 50 50;" xml:space="preserve">
<style type="text/css">
	.st0{fill:#686868;}
</style>
<g>
	<g>
		<path class="st0" d="M48.8,19.9c0,0-4.5-6-4.5-6c0,0-0.1-0.2-0.4-0.3L25.2,8.3c-0.1,0-0.3,0-0.4,0L6.1,13.6c0,0-0.3,0.1-0.4,0.3
			c-0.1,0.1-4.5,6-4.5,6C1,20.1,1,20.3,1,20.6c0.1,0.2,0.3,0.4,0.5,0.5l4,1.3v10.8c0,0.3,0.2,0.6,0.5,0.7l18.7,7.7
			c0.1,0,0.1,0.1,0.3,0.1c0.2,0,0.3-0.1,0.3-0.1L44,33.9c0.3-0.1,0.5-0.4,0.5-0.7V22.4l4-1.3c0.2-0.1,0.4-0.3,0.5-0.5
			C49,20.3,49,20.1,48.8,19.9L48.8,19.9z M3,20l3.5-4.7L8,15.6l8,2.2l7.6,2.1l-4.5,5.5L3,20z M24.2,39.8L7,32.7V23l12.2,4.1
			c0.1,0,0.2,0,0.2,0c0.2,0,0.5-0.1,0.6-0.3l4.2-5.1V39.8z M25,18.7L9.1,14.3L25,9.9l15.9,4.5L25,18.7z M43,32.7l-17.2,7.1V21.7
			l4.2,5.1c0.1,0.2,0.4,0.3,0.6,0.3c0.1,0,0.2,0,0.2,0L43,23V32.7z M30.8,25.4l-4.5-5.5l17.1-4.7L47,20L30.8,25.4z M30.8,25.4"/>
	</g>
</g>
</svg>
