<?xml version="1.0" encoding="utf-8"?>
<!-- Generator: Adobe Illustrator 21.1.0, SVG Export Plug-In . SVG Version: 6.00 Build 0)  -->
<svg version="1.1" id="Слой_1" xmlns="http://www.w3.org/2000/svg" xmlns:xlink="http://www.w3.org/1999/xlink" x="0px" y="0px"
	 viewBox="0 0 50 50" style="enable-background:new 0 0 50 50;" xml:space="preserve">
<style type="text/css">
	.st0{fill:#686868;}
</style>
<g>
	<path class="st0" d="M1.5,29.9c-0.1-0.8,0.4-1.5,1.2-1.6C3.4,28.2,4.2,28.1,5,28c0.3,0,0.6-0.1,0.8-0.1c0.2-1.4,0.4-2.7,0.6-4.1
		c0-0.3-0.2-0.3-0.3-0.4c-0.7-0.3-1.8-0.7-2.6-1.1c-0.7-0.3-1-1.1-0.7-1.8C3,20,3.2,19.5,3.5,19c0.3-0.7,1.1-1,1.9-0.7
		c0.9,0.4,1.7,0.7,2.5,1.1c0.4,0.2,0.5,0.1,0.8-0.2c0.8-1,1.6-2,2.4-3c-0.6-0.8-1.2-1.7-1.8-2.6C8.9,13,9,12.1,9.7,11.7
		c0.5-0.3,0.9-0.6,1.4-0.9c0.6-0.4,1.5-0.3,2,0.4c0.6,0.9,1.2,1.7,1.8,2.6c1.1-0.4,2.2-0.7,3.3-1.1c0.3-0.1,0.7-0.2,1.1-0.2
		c0.3,0,0.4-0.2,0.4-0.4c0-0.7,0-1.9,0-2.8c0-0.8,0.6-1.4,1.4-1.4h1.7c0.8,0,1.4,0.6,1.4,1.4c0,0.1,0,0.2,0,0.3c0,0.8,0,1.7,0,2.5
		c0,0.2,0.1,0.3,0.3,0.4c1.2,0.3,2.4,0.7,3.5,1c0.3,0.1,0.4,0.1,0.5-0.2c0.4-0.6,1-1.6,1.6-2.4c0.4-0.6,1.3-0.8,2-0.4
		c0.5,0.3,0.9,0.6,1.4,0.9c0.7,0.4,0.8,1.3,0.4,1.9c-0.6,0.9-1.1,1.8-1.7,2.6c1,1.1,1.9,2.2,2.9,3.3c0.9-0.4,1.9-0.9,2.9-1.3
		c0.7-0.3,1.5,0,1.9,0.7c0.2,0.5,0.5,1,0.7,1.5c0.3,0.7,0,1.5-0.7,1.9c-1,0.4-1.9,0.9-2.8,1.3c0.2,1.4,0.4,2.9,0.7,4.3
		c1,0.1,2,0.3,3.1,0.4c0.8,0.1,1.3,0.8,1.2,1.6c-0.1,0.5-0.1,1.1-0.2,1.6c-0.1,0.8-0.8,1.3-1.6,1.2c-1.1-0.1-2.4-0.3-2.9-0.4
		c-0.3,0-0.4,0.1-0.5,0.3c-0.5,1.1-0.9,2.2-1.5,3.3C35,35.5,35,35.8,35.2,36c0.5,0.4,1.4,1.2,2.1,1.8c0.6,0.5,0.7,1.4,0.2,2
		c-0.4,0.4-0.7,0.8-1.1,1.3c-0.5,0.6-1.4,0.7-2,0.2c-0.8-0.7-1.6-1.4-2.4-2c-1.2,0.8-2.4,1.6-3.7,2.4c0.3,0.9,0.6,1.9,0.9,3
		c0.2,0.7-0.2,1.5-0.9,1.8c-0.5,0.2-1.1,0.3-1.6,0.5c-0.7,0-1.5-0.4-1.7-1.1c-0.3-1-0.6-2-0.9-3h-4.4c-0.3,1-0.6,2-0.9,3.1
		c-0.2,0.7-1,1.2-1.7,1c-0.5-0.1-1.1-0.3-1.6-0.4c-0.8-0.2-1.2-1-1-1.7c0.3-1,0.6-2,0.8-3c-1.3-0.8-2.5-1.5-3.8-2.3
		c-0.8,0.7-1.5,1.4-2.3,2.1c-0.6,0.5-1.5,0.5-2-0.1c-0.4-0.4-0.7-0.8-1.1-1.2c-0.5-0.6-0.5-1.5,0.1-2C7,37.7,7.8,37,8.5,36.3
		c-0.7-1.3-1.3-2.6-1.9-4c-1,0.2-2,0.3-3.1,0.5c-0.8,0.1-1.5-0.4-1.6-1.1C1.7,31.1,1.6,30.5,1.5,29.9z M10.4,27.5
		c0,6.1,5,11.1,11.2,11.1s11.2-5,11.2-11.1s-5-11.1-11.2-11C15.4,16.4,10.4,21.4,10.4,27.5z"/>
	<path class="st0" d="M44,7.5c0,2.4-2.1,4.5-4.5,4.5S35,9.9,35,7.5C35,5,37.1,3,39.5,3C42,3,44,5.1,44,7.5z"/>
	<path class="st0" d="M46.3,14.1c1.2,0,2.2,1,2.2,2.2s-1,2.2-2.2,2.2s-2.3-1-2.3-2.2S45,14.1,46.3,14.1z"/>
	<path class="st0" d="M22.7,18.6c1.8,0,3.4,1.5,3.4,3.3s-1.5,3.3-3.4,3.3c-1.8,0-3.4-1.5-3.4-3.3C19.3,20.1,20.8,18.6,22.7,18.6z"/>
	<path class="st0" d="M17.1,29.7c0,1.2-1,2.2-2.2,2.2s-2.3-1-2.3-2.2s1-2.2,2.2-2.2C16.1,27.4,17.1,28.4,17.1,29.7z"/>
	<path class="st0" d="M23.8,36.3c-1.3,0-2.3-1-2.3-2.2s1-2.2,2.3-2.2c1.2,0,2.2,1,2.2,2.2C26.1,35.3,25.1,36.3,23.8,36.3z"/>
</g>
</svg>
