<?xml version="1.0" encoding="utf-8"?>
<!-- Generator: Adobe Illustrator 21.1.0, SVG Export Plug-In . SVG Version: 6.00 Build 0)  -->
<svg version="1.1" id="Слой_1" xmlns="http://www.w3.org/2000/svg" xmlns:xlink="http://www.w3.org/1999/xlink" x="0px" y="0px"
	 viewBox="0 0 50 50" style="enable-background:new 0 0 50 50;" xml:space="preserve">
<style type="text/css">
	.st0{fill:#275B4D;}
</style>
<g>
	<path class="st0" d="M33.2,12.8c-4.2,2.6-4.7,8-4.5,11.5c3.2-3.8,7.2-5.7,9.5-6.1c-3.6,1.4-6.4,4.2-8.7,7.4
		c-0.9,1.6-1.8,3.2-2.3,4.9c-0.5-2-1.4-3.9-2.4-5.9c-2.7-4.2-6.1-8.1-10.7-10.2C17,15.1,22,17.9,25.9,23c0.5-4.5,0.3-11.6-5-15.2
		C15.1,3.8,7.7,2.5,4.1,2C3.3,1.9,2.7,2.8,3.2,3.5C4.3,5.3,6,8.6,6.2,13c0.2,4.4,0.5,12.6,16.5,13.9c2.4,4.3,3.5,6.6,4,10.7
		c0,0.3,0.5,0.3,0.6,0c0.3-1.2,1.1-7.2,3.7-10.2c12.4-0.2,13-6.5,13.3-9.9c0.4-3.1,1.5-5.4,2.5-6.8c0.5-0.7-0.1-1.6-0.9-1.5
		C43,9.3,37.6,10.1,33.2,12.8L33.2,12.8z M33.2,12.8"/>
	<path class="st0" d="M30.4,36.8c-1.1-1.8-2.3-3.4-3-4.2c-0.1-0.1-0.2-0.2-0.3-0.2c-0.1,0-0.3,0.1-0.3,0.2c-0.6,0.8-1.9,2.3-3,4.2
		c-1.4,2.3-2.2,4.3-2.2,5.7c0,3,2.5,5.4,5.5,5.4s5.5-2.4,5.5-5.4C32.6,41.1,31.8,39.2,30.4,36.8L30.4,36.8z M27.8,46
		c-0.3,0.1-0.7,0.1-1,0.1c-2,0-3.7-1.5-3.7-3.4c0-0.5,0.1-1,0.4-1.6c0-0.1,0.2-0.2,0.3-0.1c0.1,0,0.2,0.1,0.2,0.2c0,0.1,0,0.3,0,0.4
		c0,2,1.7,3.8,3.9,4c0.1,0,0.2,0.1,0.2,0.2C28,45.9,28,46,27.8,46L27.8,46z M27.8,46"/>
</g>
</svg>
