<?xml version="1.0" encoding="utf-8"?>
<!-- Generator: Adobe Illustrator 21.1.0, SVG Export Plug-In . SVG Version: 6.00 Build 0)  -->
<svg version="1.1" id="Слой_1" xmlns="http://www.w3.org/2000/svg" xmlns:xlink="http://www.w3.org/1999/xlink" x="0px" y="0px"
	 viewBox="0 0 50 50" style="enable-background:new 0 0 50 50;" xml:space="preserve">
<style type="text/css">
	.st0{fill:#686868;}
</style>
<g>
	<path class="st0" d="M48,25l0-3.8c0-4.1,0-8.1,0-12.2c0-0.6-0.1-1.2-0.1-1.7c-0.1-1-0.6-2-1.4-3c-1.2-1.5-2.9-2.3-5-2.3
		c-11,0-22,0-33,0C7.9,2,7.4,2.1,6.9,2.2C4,2.9,2,5.4,2,8.4c0,4.2,0,8.4,0,12.6l0,5.6c0,5,0,10,0,15C2,42.9,2.3,44,3,45
		c1.3,2,3.1,3,5.5,3c3.5,0,7,0,10.5,0l6.8,0c5.2,0,10.5,0,15.7,0c0,0,0,0,0,0c1,0,1.8-0.2,2.5-0.5c2.6-1.2,3.9-3.3,3.9-6.1
		c0-3.9,0-7.8,0-11.7L48,25z M44.2,41.5c0,1.3-0.8,2.3-2.1,2.6c-0.1,0-0.2,0-0.4,0l-0.2,0l-13.2,0l-8,0c-3.8,0-7.8,0-11.7,0
		c0,0,0,0,0,0c-1.4,0-2.4-0.8-2.7-2.2c0-0.1,0-0.2,0-0.4l0-0.2c0-5.5,0-11.1,0-16.6l0-4.6c0-3.9,0-7.8,0-11.8c0-1.4,0.9-2.4,2.2-2.7
		c0.1,0,0.1,0,0.2,0c0,0,0.1,0,0.1,0l6.5,0c3.3,0,6.6,0,9.9,0l3.1,0c4.4,0,9,0,13.5,0c1.4,0,2.4,0.8,2.7,2.1c0,0.2,0,0.4,0,0.7
		l0,0.1c0,2.2,0,4.4,0,6.6c0,2.5,0,5,0,7.4l0,2C44.2,30.3,44.2,35.9,44.2,41.5z"/>
	<path class="st0" d="M34.9,20.8c-0.1-0.7-0.7-1.2-1.4-1.2h-4.9c0.9-0.9,1.5-2.2,1.5-3.6c0-2.7-2.1-4.9-4.7-5h-0.6
		c-2.6,0.2-4.7,2.3-4.7,5c0,1.4,0.6,2.7,1.5,3.6h-4.9c-0.7,0-1.3,0.5-1.4,1.2l-3,16.6c0,0.1,0,0.2,0,0.2c0,0.3,0.1,0.6,0.3,0.9
		c0.3,0.3,0.7,0.5,1.1,0.5h22.9c0.4,0,0.8-0.2,1.1-0.5c0.3-0.3,0.4-0.7,0.3-1.1L34.9,20.8z M25,18.2c-1.2,0-2.2-1-2.2-2.2
		s1-2.2,2.2-2.2c1.2,0,2.2,1,2.2,2.2S26.2,18.2,25,18.2z"/>
</g>
</svg>
