<?xml version="1.0" encoding="utf-8"?>
<!-- Generator: Adobe Illustrator 21.1.0, SVG Export Plug-In . SVG Version: 6.00 Build 0)  -->
<svg version="1.1" id="Слой_1" xmlns="http://www.w3.org/2000/svg" xmlns:xlink="http://www.w3.org/1999/xlink" x="0px" y="0px"
	 viewBox="0 0 50 50" style="enable-background:new 0 0 50 50;" xml:space="preserve">
<style type="text/css">
	.st0{fill:#686868;}
</style>
<g>
	<path class="st0" d="M47,21.3c0-3.9,0-7.7,0-11.6c0-0.6-0.1-1.1-0.1-1.6c-0.1-1-0.6-1.9-1.3-2.9C44.4,3.7,42.7,3,40.7,3
		c-10.5,0-21,0-31.5,0c-0.5,0-1,0.1-1.5,0.2C4.9,3.9,3,6.3,3,9.1c0,4,0,8.1,0,12.1L3,27c0,4.7,0,9.3,0,14c0,1.1,0.3,2.2,1,3.2
		C5.2,46,7,47,9.3,47c3.3,0,6.7,0,10,0l6.5,0c5,0,10,0,15,0c0,0,0,0,0,0c0.9,0,1.7-0.2,2.4-0.5c2.5-1.1,3.8-3.1,3.8-5.8
		c0-3.7,0-7.5,0-11.2L47,21.3z M43.4,40.8c0,1.2-0.8,2.2-2,2.5c-0.1,0-0.2,0-0.4,0l-0.2,0l-12.6,0l-7.7,0c-3.7,0-7.5,0-11.2,0
		c0,0,0,0,0,0c-1.3,0-2.3-0.8-2.6-2.1c0-0.1,0-0.2,0-0.4l0-0.2l0-13.6l0-6.6c0-3.8,0-7.5,0-11.2c0-1.3,0.8-2.3,2.1-2.6
		c0.1,0,0.1,0,0.2,0c0,0,0.1,0,0.1,0l6.2,0c3.2,0,6.3,0,9.5,0l2.9,0c4.3,0,8.7,0,13,0c0,0,0,0,0,0c1.3,0,2.3,0.8,2.6,2
		c0,0.2,0,0.4,0,0.7l0,0.1c0,2.1,0,4.1,0,6.2c0,2.4,0,4.8,0,7.2l0,2C43.3,30.2,43.3,35.5,43.4,40.8z"/>
	<path class="st0" d="M38.1,13.8c0,0.1,0,0.2,0,0.3c0,1,0,1.9,0,2.9c-0.1,1.2,0.3,2,1.2,2.6c0.1,0.1,0.2,0.1,0.2,0.2
		c0.1,0.1,0.1,0.1,0.2,0.2l0.4,0.3l0.8-0.5l0-0.4c0-0.1,0-0.2,0-0.2l0-2.3c0-2.2,0-4.4,0-6.6c0-0.2,0-0.5-0.3-0.8
		c-0.2-0.2-0.5-0.3-0.8-0.3c-2.2,0-4.4,0-6.6,0l-2.3,0c-0.1,0-0.2,0-0.3,0l-1.3,0.1l0.8,1.1c0.1,0.1,0.1,0.2,0.2,0.2l0.2,0.2
		c0.2,0.2,0.5,0.5,0.7,0.7c0.3,0.2,0.7,0.4,1,0.4c1.3,0,2.5,0,3.8,0l0.3,0L27.1,21l1.9,1.9L38.1,13.8z"/>
	<path class="st0" d="M21,27l-9.1,9.1c0-0.1,0-0.2,0-0.2c0-1,0-2.1,0-3.1c0-0.6,0-1.6-1-2.3c-0.1-0.1-0.2-0.2-0.3-0.3
		c-0.1-0.1-0.1-0.1-0.2-0.2l-0.3-0.3l-0.8,0.5l0,0.4c0,0.1,0,0.2,0,0.2v2.3c0,2.2,0,4.4,0,6.6c0,0.2,0,0.5,0.3,0.8
		c0.2,0.2,0.5,0.3,0.8,0.3c0,0,0,0,0,0c2.2,0,4.3,0,6.5,0h2.3c0.1,0,0.2,0,0.3,0l1.3-0.1L20,39.6c-0.1-0.1-0.1-0.2-0.2-0.3
		c-0.1-0.1-0.2-0.2-0.3-0.3c-0.2-0.2-0.3-0.3-0.5-0.5c-0.3-0.3-0.7-0.5-1.2-0.5c-1.3,0-2.7,0-4,0l9.2-9.1L21,27z"/>
	<path class="st0" d="M9.3,19.4l0.1,1.4l1.1-0.9c0.1-0.1,0.2-0.1,0.2-0.2l0.2-0.2c0.2-0.2,0.5-0.4,0.7-0.7c0.2-0.3,0.4-0.7,0.4-1
		c0-1.3,0-2.5,0-3.8l0-0.3l9.2,9.2l1.9-1.9l-9.1-9.1h0.1c1.3,0,2.6,0,4,0c0.3,0,0.6-0.1,0.9-0.3c0.3-0.3,0.6-0.5,0.8-0.8l0.2-0.2
		c0.1-0.1,0.1-0.2,0.2-0.3c0,0,0-0.1,0.1-0.1l0.6-0.9l-1.2-0.1c-0.1,0-0.2,0-0.3,0l-8.8,0c-0.8,0-1.1,0.3-1.1,1.1c0,2.9,0,5.9,0,8.8
		C9.2,19.2,9.3,19.3,9.3,19.4z"/>
	<path class="st0" d="M40.8,30.7l-0.1-1.4l-1.1,0.9c-0.1,0.1-0.2,0.1-0.2,0.2l-0.2,0.2c-0.2,0.2-0.5,0.4-0.7,0.7
		c-0.2,0.3-0.4,0.7-0.4,1c0,1.3,0,2.5,0,3.8v0.3L29,27.2l-1.9,1.9l9.1,9.1h-0.1c-1.3,0-2.6,0-3.9,0c-0.3,0-0.6,0.1-0.9,0.3
		c-0.3,0.3-0.6,0.5-0.8,0.8l-0.2,0.2c-0.1,0.1-0.1,0.2-0.2,0.3l-0.6,1l1.2,0.1c0.1,0,0.2,0,0.3,0l8.8,0c0.8,0,1.1-0.3,1.1-1.1l0-8.8
		C40.9,30.9,40.8,30.8,40.8,30.7z"/>
</g>
</svg>
