<?xml version="1.0" encoding="utf-8"?>
<!-- Generator: Adobe Illustrator 21.1.0, SVG Export Plug-In . SVG Version: 6.00 Build 0)  -->
<svg version="1.1" id="Слой_1" xmlns="http://www.w3.org/2000/svg" xmlns:xlink="http://www.w3.org/1999/xlink" x="0px" y="0px"
	 viewBox="0 0 50 50" style="enable-background:new 0 0 50 50;" xml:space="preserve">
<style type="text/css">
	.st0{fill:#275B4D;}
</style>
<g>
	<polygon class="st0" points="48.4,28.9 48.4,43.5 37.8,48 37.8,33.3 	"/>
	<polygon class="st0" points="35.7,33.3 35.7,47.9 26.1,43.5 26.1,28.9 	"/>
	<polygon class="st0" points="46.7,27.2 42.2,29.1 36.8,31.4 32.4,29.5 27.6,27.3 27.8,27.2 36.8,23.1 	"/>
	<polygon class="st0" points="12.3,33.3 12.3,47.9 1.6,43.5 1.6,28.9 2,29 	"/>
	<polygon class="st0" points="23.9,28.9 23.9,43.5 14.4,47.9 14.4,33.3 	"/>
	<polygon class="st0" points="22.4,27.2 13.3,31.4 3.4,27.3 13.3,23.1 	"/>
	<polygon class="st0" points="23.9,11.8 23.9,25.6 14.4,21.3 14.4,7.6 20.8,10.4 	"/>
	<polygon class="st0" points="35.6,7.5 35.6,21.3 26,25.6 26,11.8 	"/>
	<polygon class="st0" points="34,5.9 25,9.9 16.1,5.9 25,2 	"/>
</g>
</svg>
