<?xml version="1.0" encoding="utf-8"?>
<!-- Generator: Adobe Illustrator 21.1.0, SVG Export Plug-In . SVG Version: 6.00 Build 0)  -->
<svg version="1.1" id="Слой_1" xmlns="http://www.w3.org/2000/svg" xmlns:xlink="http://www.w3.org/1999/xlink" x="0px" y="0px"
	 viewBox="0 0 50 50" style="enable-background:new 0 0 50 50;" xml:space="preserve">
<style type="text/css">
	.st0{fill:#686868;}
</style>
<g>
	<path class="st0" d="M43.7,9.4c-2.9,0-5.2-1.8-7.6-3.6C33.2,3.5,29.9,1,25,1c-4.9,0-8.2,2.5-11.1,4.7c-2.4,1.9-4.7,3.6-7.6,3.6
		c-0.8,0-1.4,0.6-1.4,1.4c0,11.6,1.4,19.3,4.7,25c3.2,5.7,8,9.2,14.7,13.1c0.2,0.1,0.5,0.2,0.7,0.2s0.5-0.1,0.7-0.2
		c6.7-3.9,11.5-7.4,14.7-13.1c3.2-5.7,4.7-13.4,4.7-25C45.1,10,44.4,9.4,43.7,9.4z M42.3,12C42.1,33.6,36.6,39.2,25,46
		C13.4,39.2,7.9,33.6,7.7,12c3.2-0.4,5.6-2.3,7.9-4.1c2.7-2,5.4-4.2,9.4-4.2c4,0,6.7,2.1,9.4,4.2C36.7,9.8,39.1,11.6,42.3,12z"/>
	<path class="st0" d="M15.3,13.2c0.3,0,0.6-0.1,0.8-0.3c0.6-0.4,1.1-0.8,1.7-1.2c2.4-1.9,4.6-3.5,7.2-3.5c0.8,0,1.4-0.6,1.4-1.4
		c0-0.8-0.6-1.4-1.4-1.4c-3.6,0-6.1,2-8.9,4c-0.5,0.4-1.1,0.8-1.6,1.2c-0.6,0.5-0.8,1.3-0.3,1.9C14.5,13,14.9,13.2,15.3,13.2z"/>
	<path class="st0" d="M25,40.6c-2.2-1.4-5.3-3.4-7.5-6.1c-0.5-0.6-1.4-0.7-2-0.2c-0.3,0.2-0.5,0.6-0.5,1c0,0.4,0.1,0.7,0.3,1
		c2.7,3.1,6.2,5.5,8.9,7.1c0,0,0.1,0,0.1,0.1l0.1,0c0,0,0.1,0,0.1,0l0.1,0c0,0,0.1,0,0.1,0c0,0,0.1,0,0.1,0c0,0,0.1,0,0.1,0l0.1,0
		c0,0,0,0,0.1,0c0,0,0.1,0,0.1,0l0.1,0c0,0,0.1,0,0.1,0c0,0,0,0,0.1,0c0,0,0.1,0,0.1,0c0,0,0,0,0.1,0c0,0,0.1,0,0.1,0l0.1,0
		c2.8-1.7,6.3-4,8.9-7.1c3-3.6,4.9-8.4,5.8-14.8c0.1-0.8-0.4-1.5-1.2-1.6c-0.8-0.1-1.5,0.4-1.6,1.2c-0.8,5.8-2.5,10.2-5.2,13.4
		C30.3,37.1,27.2,39.2,25,40.6z M24.7,43.2C24.7,43.2,24.7,43.2,24.7,43.2L24.7,43.2L24.7,43.2z M25.4,43.1L25.4,43.1L25.4,43.1
		L25.4,43.1z"/>
	<path class="st0" d="M31.1,12.8l-10,10l-2.1-2.1c-0.7-0.7-1.6-1.1-2.6-1.1s-1.9,0.4-2.6,1.1c-1.4,1.4-1.4,3.7,0,5.1l4.7,4.7
		l0.2,0.2l0.8,0.5l0.2-0.4l0,0l-0.1,0.4c0,0,0.1,0,0.1,0l0.2,0.1c0,0,0.1,0,0.1,0l0.6,0.1l0.1-0.4l0,0.4l0.4,0l0.6,0
		c0,0,0.1,0,0.1,0l0.1,0l0.9-0.4l-0.2-0.4l0.3,0.3l0.5-0.3l12.8-12.8c1.4-1.4,1.4-3.7,0-5.1c-0.7-0.7-1.6-1.1-2.6-1.1
		C32.6,11.8,31.7,12.2,31.1,12.8z M20.7,28.6l-4.8-4.8c-0.3-0.3-0.3-0.8,0-1.2c0.3-0.3,0.8-0.3,1.2,0l3.1,3.1c0.5,0.5,1.4,0.5,2,0
		L33,14.8c0.3-0.3,0.8-0.3,1.2,0c0.3,0.3,0.3,0.8,0,1.2L21.7,28.5l-0.1,0.1l-0.2,0.1l-0.2,0.1v0l-0.1,0l-0.2,0l0,0h-0.1L20.7,28.6z
		 M20.5,31L20.5,31L20.5,31L20.5,31z M20.9,31.1L20.9,31.1L20.9,31.1L20.9,31.1z M21.7,31L21.7,31L21.7,31L21.7,31z"/>
</g>
</svg>
