<?xml version="1.0" encoding="utf-8"?>
<!-- Generator: Adobe Illustrator 21.1.0, SVG Export Plug-In . SVG Version: 6.00 Build 0)  -->
<svg version="1.1" id="Слой_1" xmlns="http://www.w3.org/2000/svg" xmlns:xlink="http://www.w3.org/1999/xlink" x="0px" y="0px"
	 viewBox="0 0 50 50" style="enable-background:new 0 0 50 50;" xml:space="preserve">
<style type="text/css">
	.st0{fill:#686868;}
</style>
<g>
	<path class="st0" d="M48,36h-4.8l-3.1-5.8c-0.2-0.3-0.5-0.5-0.9-0.5h-1.9V27c0-0.5-0.4-1-1-1H13.6c-0.6,0-1,0.4-1,1v2.7h-1.9
		c-0.4,0-0.7,0.2-0.9,0.5L6.8,36H2c-0.6,0-1,0.4-1,1c0,0.5,0.4,1,1,1h46c0.6,0,1-0.4,1-1C49,36.5,48.6,36,48,36z M14.6,28h20.8v1.7
		H14.6V28z M9,36l2.3-4.3h27.4L41,36H9z"/>
	<path class="st0" d="M22.7,23.5c1.3-1.3,3.4-1.3,4.7,0c0.4,0.4,1,0.4,1.4,0c0.4-0.4,0.4-1,0-1.4c-2.1-2.1-5.4-2.1-7.5,0
		c-0.4,0.4-0.4,1,0,1.4C21.6,23.9,22.3,23.9,22.7,23.5z"/>
	<path class="st0" d="M15.1,16c-0.4,0.4-0.4,1,0,1.4c0.4,0.4,1,0.4,1.4,0c4.7-4.6,12.2-4.6,16.9,0c0.4,0.4,1,0.4,1.4,0
		c0.4-0.4,0.4-1,0-1.4C29.4,10.7,20.6,10.7,15.1,16z"/>
	<path class="st0" d="M19.6,20.5c3-2.9,7.8-2.9,10.8,0c0.4,0.4,1,0.4,1.4,0c0.4-0.4,0.4-1,0-1.4c-3.8-3.7-9.9-3.7-13.6,0
		c-0.4,0.4-0.4,1,0,1.4C18.6,20.8,19.2,20.8,19.6,20.5z"/>
</g>
</svg>
