<?xml version="1.0" encoding="utf-8"?>
<!-- Generator: Adobe Illustrator 21.0.0, SVG Export Plug-In . SVG Version: 6.00 Build 0)  -->
<svg version="1.1" id="Слой_1" xmlns="http://www.w3.org/2000/svg" xmlns:xlink="http://www.w3.org/1999/xlink" x="0px" y="0px"
	 viewBox="0 0 50 50" style="enable-background:new 0 0 50 50;" xml:space="preserve">
<style type="text/css">
	.st0{fill:#686868;}
</style>
<path class="st0" d="M32.5,48H5.1c2.1-3.9,7.5-6.6,13.7-6.6S30.4,44.1,32.5,48z"/>
<path class="st0" d="M20.4,2h-2.8C9.6,2,3,8.4,3,16.2V48h1.5c1.4-4.7,7.3-8.2,14.4-8.2s12.9,3.5,14.4,8.2H35V16.2
	C35,8.4,28.4,2,20.4,2z M11.6,37.3c-1.6,0-2.9-1.3-2.9-2.8c0-1.6,1.3-2.8,2.9-2.8s2.9,1.3,2.9,2.8C14.5,36.1,13.2,37.3,11.6,37.3z
	 M11.6,29.8c-1.6,0-2.9-1.3-2.9-2.8c0-1.6,1.3-2.8,2.9-2.8s2.9,1.3,2.9,2.8S13.2,29.8,11.6,29.8z M11.6,22.3c-1.6,0-2.9-1.3-2.9-2.8
	c0-1.6,1.3-2.8,2.9-2.8s2.9,1.3,2.9,2.8S13.2,22.3,11.6,22.3z M11.6,14.7c-1.6,0-2.9-1.3-2.9-2.8c0-1.6,1.3-2.8,2.9-2.8
	s2.9,1.3,2.9,2.8C14.5,13.5,13.2,14.7,11.6,14.7z M19,37.3c-1.6,0-2.9-1.3-2.9-2.8c0-1.6,1.3-2.8,2.9-2.8s2.9,1.3,2.9,2.8
	C21.9,36.1,20.6,37.3,19,37.3z M19,29.8c-1.6,0-2.9-1.3-2.9-2.8c0-1.6,1.3-2.8,2.9-2.8s2.9,1.3,2.9,2.8S20.6,29.8,19,29.8z M19,22.3
	c-1.6,0-2.9-1.3-2.9-2.8c0-1.6,1.3-2.8,2.9-2.8s2.9,1.3,2.9,2.8S20.6,22.3,19,22.3z M19,14.7c-1.6,0-2.9-1.3-2.9-2.8
	c0-1.6,1.3-2.8,2.9-2.8s2.9,1.3,2.9,2.8C21.9,13.5,20.6,14.7,19,14.7z M26.1,37.3c-1.6,0-2.9-1.3-2.9-2.8c0-1.6,1.3-2.8,2.9-2.8
	c1.6,0,2.9,1.3,2.9,2.8C29,36.1,27.7,37.3,26.1,37.3z M26.1,29.8c-1.6,0-2.9-1.3-2.9-2.8c0-1.6,1.3-2.8,2.9-2.8
	c1.6,0,2.9,1.3,2.9,2.8S27.7,29.8,26.1,29.8z M26.1,22.3c-1.6,0-2.9-1.3-2.9-2.8c0-1.6,1.3-2.8,2.9-2.8c1.6,0,2.9,1.3,2.9,2.8
	S27.7,22.3,26.1,22.3z M26.1,14.7c-1.6,0-2.9-1.3-2.9-2.8c0-1.6,1.3-2.8,2.9-2.8c1.6,0,2.9,1.3,2.9,2.8C29,13.5,27.7,14.7,26.1,14.7
	z"/>
</svg>
