<?xml version="1.0" encoding="utf-8"?>
<!-- Generator: Adobe Illustrator 21.1.0, SVG Export Plug-In . SVG Version: 6.00 Build 0)  -->
<svg version="1.1" id="Слой_1" xmlns="http://www.w3.org/2000/svg" xmlns:xlink="http://www.w3.org/1999/xlink" x="0px" y="0px"
	 viewBox="0 0 50 50" style="enable-background:new 0 0 50 50;" xml:space="preserve">
<style type="text/css">
	.st0{fill-rule:evenodd;clip-rule:evenodd;fill:#275B4D;}
</style>
<path class="st0" d="M2.6,19.9l20.1,9.4c1.8,0.9,2.5,0.9,4.5,0l20.1-9.4c1.5-0.7,1.5-3.8,0-4.6l-20.1-11c-1.6-1-2.7-0.9-4.5,0
	l-20.1,11C1.1,16.3,1.1,19.1,2.6,19.9L2.6,19.9z M2.6,28.2l20.1,9.4c1.8,0.9,2.5,0.9,4.5,0l20.1-9.4c1-0.5,1.4-2.7,1.4-3.9
	c-1.3,0.7-3.1,1.6-3.2,1.6L25,35.7L4.5,25.9c0.1,0-1.8-0.8-3.2-1.6C1.3,25.5,1.6,27.6,2.6,28.2L2.6,28.2z M25,43.9L4.5,34.1
	c0.1,0-1.8-0.8-3.2-1.6c0,1.2,0.3,3.4,1.4,3.9l20.1,9.4c1.8,0.9,2.5,0.9,4.5,0l20.1-9.4c1-0.5,1.4-2.7,1.4-3.9
	c-1.3,0.7-3.1,1.6-3.2,1.6L25,43.9z M25,43.9"/>
</svg>
