<?xml version="1.0" encoding="utf-8"?>
<!-- Generator: Adobe Illustrator 21.1.0, SVG Export Plug-In . SVG Version: 6.00 Build 0)  -->
<svg version="1.1" id="Слой_1" xmlns="http://www.w3.org/2000/svg" xmlns:xlink="http://www.w3.org/1999/xlink" x="0px" y="0px"
	 viewBox="0 0 50 50" style="enable-background:new 0 0 50 50;" xml:space="preserve">
<style type="text/css">
	.st0{fill:#686868;}
</style>
<path class="st0" d="M4.8,20.4l18.2,8.5c1.6,0.8,2.3,0.8,4.1,0l18.2-8.5c1.4-0.6,1.4-3.4,0-4.2L27,6.3c-1.4-0.9-2.4-0.8-4.1,0
	L4.8,16.2C3.4,17.1,3.4,19.7,4.8,20.4L4.8,20.4z M4.8,27.9l18.2,8.5c1.6,0.8,2.3,0.8,4.1,0l18.2-8.5c0.9-0.5,1.3-2.4,1.3-3.5
	c-1.2,0.6-2.8,1.4-2.9,1.4L25,34.7L6.5,25.8c0.1,0-1.6-0.7-2.9-1.4C3.6,25.5,3.9,27.4,4.8,27.9L4.8,27.9z M25,42.1L6.5,33.2
	c0.1,0-1.6-0.7-2.9-1.4c0,1.1,0.3,3.1,1.3,3.5L23,43.8c1.6,0.8,2.3,0.8,4.1,0l18.2-8.5c0.9-0.5,1.3-2.4,1.3-3.5
	c-1.2,0.6-2.8,1.4-2.9,1.4L25,42.1z"/>
</svg>
