<?xml version="1.0" encoding="utf-8"?>
<!-- Generator: Adobe Illustrator 21.1.0, SVG Export Plug-In . SVG Version: 6.00 Build 0)  -->
<svg version="1.1" id="Слой_1" xmlns="http://www.w3.org/2000/svg" xmlns:xlink="http://www.w3.org/1999/xlink" x="0px" y="0px"
	 viewBox="0 0 50 50" style="enable-background:new 0 0 50 50;" xml:space="preserve">
<style type="text/css">
	.st0{fill:#686868;}
</style>
<path class="st0" d="M38,8.7v0.2c0,0.5-0.4,0.9-0.9,0.9h-5.8c-0.5,0-0.9-0.4-0.9-0.9V8.7c0-0.5,0.4-0.9,0.9-0.9h5.8
	C37.6,7.9,38,8.2,38,8.7z M34,12.1h-2.6c-0.5,0-0.9,0.4-0.9,0.9v0.2c0,0.5,0.4,0.9,0.9,0.9H34c0.5,0,0.9-0.4,0.9-0.9V13
	C34.8,12.5,34.5,12.1,34,12.1z M31.4,18.4h5.8c0.5,0,0.9-0.4,0.9-0.9v-0.2c0-0.5-0.4-0.9-0.9-0.9h-5.8c-0.5,0-0.9,0.4-0.9,0.9v0.2
	C30.5,18,30.9,18.4,31.4,18.4z M34,20.7h-2.6c-0.5,0-0.9,0.4-0.9,0.9v0.2c0,0.5,0.4,0.9,0.9,0.9H34c0.5,0,0.9-0.4,0.9-0.9v-0.2
	C34.8,21.1,34.5,20.7,34,20.7z M31.4,26.9h5.8c0.5,0,0.9-0.4,0.9-0.9v-0.2c0-0.5-0.4-0.9-0.9-0.9h-5.8c-0.5,0-0.9,0.4-0.9,0.9V26
	C30.5,26.5,30.9,26.9,31.4,26.9z M31.7,38.1c0,5.5-4.4,9.9-9.8,9.9c-5.4,0-9.8-4.5-9.8-9.9c0-3.5,1.8-6.8,4.9-8.6V7c0-2.8,2.2-5,5-5
	c2.7,0,5,2.3,5,5v22.5C29.8,31.3,31.7,34.5,31.7,38.1L31.7,38.1z M29.7,38.1c0-3-1.7-5.7-4.3-7.1l-0.5-0.3V7c0-1.7-1.4-3.1-3-3.1
	c-1.7,0-3,1.4-3,3.1v23.7L18.3,31c-2.7,1.4-4.3,4.1-4.3,7.1c0,4.4,3.5,8,7.9,8C26.2,46,29.7,42.5,29.7,38.1L29.7,38.1z M28.1,38.1
	c0,3.5-2.9,6.4-6.4,6.3c-3.2-0.1-5.8-2.6-6.1-5.7c-0.3-3.1,1.7-5.9,4.6-6.7l0.4-0.1V21c0-0.7,0.6-1.3,1.3-1.3h0
	c0.7,0,1.3,0.6,1.3,1.3v10.8l0.4,0.1C26.2,32.7,28.1,35.2,28.1,38.1L28.1,38.1z M22.1,33.9c-0.1-0.7-0.8-1.1-1.5-1
	c-2.4,0.5-4,2.6-4,5.1c0,0.7,0.6,1.3,1.3,1.3c0.7,0,1.3-0.6,1.3-1.3c0-1.3,0.9-2.4,2.1-2.6C21.9,35.2,22.3,34.5,22.1,33.9L22.1,33.9
	z M22.1,33.9"/>
</svg>
