<?xml version="1.0" encoding="utf-8"?>
<!-- Generator: Adobe Illustrator 21.1.0, SVG Export Plug-In . SVG Version: 6.00 Build 0)  -->
<svg version="1.1" id="Слой_1" xmlns="http://www.w3.org/2000/svg" xmlns:xlink="http://www.w3.org/1999/xlink" x="0px" y="0px"
	 viewBox="0 0 50 50" style="enable-background:new 0 0 50 50;" xml:space="preserve">
<style type="text/css">
	.st0{fill:#686868;}
</style>
<path class="st0" d="M31.1,25h6c0.5,0,0.9-0.4,0.9-0.9V24c0-0.5-0.4-0.9-0.9-0.9h-6c-0.5,0-0.9,0.4-0.9,0.9v0.2
	C30.2,24.6,30.6,25,31.1,25z M32.4,38.1c0,5.5-4.6,9.9-10.2,9.9C16.6,48,12,43.5,12,38.1c0-3.5,1.9-6.8,5-8.6V7c0-2.8,2.3-5,5.2-5
	c2.8,0,5.2,2.3,5.2,5v22.5C30.5,31.3,32.4,34.5,32.4,38.1L32.4,38.1z M30.4,38.1c0-3-1.7-5.7-4.5-7.1l-0.6-0.3V7
	c0-1.7-1.4-3.1-3.1-3.1C20.5,4,19,5.3,19,7v23.7L18.5,31c-2.8,1.4-4.5,4.1-4.5,7.1c0,4.4,3.7,8,8.2,8C26.7,46,30.4,42.5,30.4,38.1
	L30.4,38.1z M28.7,38.1c0,3.5-3,6.4-6.6,6.3c-3.3-0.1-6-2.6-6.3-5.7c-0.3-3.1,1.8-5.9,4.8-6.7l0.4-0.1V21c0-0.7,0.6-1.3,1.3-1.3h0
	c0.7,0,1.3,0.6,1.3,1.3v10.8l0.4,0.1C26.7,32.7,28.7,35.2,28.7,38.1L28.7,38.1z M22.5,33.9c-0.2-0.7-0.8-1.1-1.6-1
	c-2.5,0.5-4.2,2.6-4.2,5.1c0,0.7,0.6,1.3,1.3,1.3c0.7,0,1.3-0.6,1.3-1.3c0-1.3,0.9-2.4,2.2-2.6C22.2,35.2,22.7,34.5,22.5,33.9
	L22.5,33.9z M22.5,33.9"/>
<path class="st0" d="M38,14.4v0.2c0,0.5-0.4,0.9-0.9,0.9h-2v2c0,0.5-0.4,0.9-0.9,0.9H34c-0.5,0-0.9-0.4-0.9-0.9v-2h-2
	c-0.5,0-0.9-0.4-0.9-0.9v-0.2c0-0.5,0.4-0.9,0.9-0.9h2v-1.8c0-0.5,0.4-0.9,0.9-0.9h0.2c0.5,0,0.9,0.4,0.9,0.9v1.8h2
	C37.6,13.5,38,13.9,38,14.4z"/>
</svg>
