<?xml version="1.0" encoding="utf-8"?>
<!-- Generator: Adobe Illustrator 21.1.0, SVG Export Plug-In . SVG Version: 6.00 Build 0)  -->
<svg version="1.1" id="Слой_1" xmlns="http://www.w3.org/2000/svg" xmlns:xlink="http://www.w3.org/1999/xlink" x="0px" y="0px"
	 viewBox="0 0 50 50" style="enable-background:new 0 0 50 50;" xml:space="preserve">
<style type="text/css">
	.st0{fill:#275B4D;}
</style>
<path class="st0" d="M39.2,11.3v33.3c0,2.4-2,4.4-4.4,4.4H21.1c-2.4,0-4.4-2-4.4-4.4V17.2c0-0.8,0.7-1.5,1.5-1.5
	c0.8,0,1.5,0.7,1.5,1.5v27.4c0,0.8,0.7,1.5,1.5,1.5h13.7c0.8,0,1.5-0.7,1.5-1.5V11.3c0-0.8-0.7-1.5-1.5-1.5H27
	c-0.8,0-1.5-0.7-1.5-1.5c0-0.8,0.7-1.5,1.5-1.5h7.8C37.2,6.9,39.2,8.9,39.2,11.3L39.2,11.3z M25,27h5.9c0.8,0,1.5-0.7,1.5-1.5
	s-0.7-1.5-1.5-1.5H25c-0.8,0-1.5,0.7-1.5,1.5S24.2,27,25,27L25,27z M25,21.2h5.9c0.8,0,1.5-0.7,1.5-1.5c0-0.8-0.7-1.5-1.5-1.5H25
	c-0.8,0-1.5,0.7-1.5,1.5C23.5,20.5,24.2,21.2,25,21.2L25,21.2z M16.7,11.3c0,0.8,0.7,1.5,1.5,1.5c0.8,0,1.5-0.7,1.5-1.5
	c0-0.8,0.7-1.5,1.5-1.5c0.8,0,1.5-0.7,1.5-1.5c0-0.8-0.7-1.5-1.5-1.5C18.7,6.9,16.7,8.9,16.7,11.3L16.7,11.3z M23.5,34.4
	c0-2.4,2-4.4,4.4-4.4c2.4,0,4.4,2,4.4,4.4s-2,4.4-4.4,4.4C25.5,38.8,23.5,36.8,23.5,34.4L23.5,34.4z M26.5,34.4
	c0,0.8,0.7,1.5,1.5,1.5s1.5-0.7,1.5-1.5s-0.7-1.5-1.5-1.5S26.5,33.6,26.5,34.4L26.5,34.4z M19.6,2.5C19.6,1.7,19,1,18.1,1
	c-4.1,0-7.3,3.3-7.3,7.3c0,0.8,0.7,1.5,1.5,1.5c0.8,0,1.5-0.7,1.5-1.5c0-2.4,2-4.4,4.4-4.4C19,3.9,19.6,3.3,19.6,2.5L19.6,2.5z
	 M23,39.8"/>
</svg>
