<?xml version="1.0" encoding="utf-8"?>
<!-- Generator: Adobe Illustrator 21.1.0, SVG Export Plug-In . SVG Version: 6.00 Build 0)  -->
<svg version="1.1" id="Слой_1" xmlns="http://www.w3.org/2000/svg" xmlns:xlink="http://www.w3.org/1999/xlink" x="0px" y="0px"
	 viewBox="0 0 50 50" style="enable-background:new 0 0 50 50;" xml:space="preserve">
<style type="text/css">
	.st0{fill:#275B4D;}
</style>
<path class="st0" d="M38.8,25c0-4.1,0-8.3,0-12.4c0-0.7-0.1-1.3-0.4-1.9c-0.4-1-1.1-1.8-1.9-2.4c-0.8-0.5-1.6-0.9-2.5-1
	c-0.4,0-0.7,0-1.1,0c-1,0-2,0-3,0c-0.2,0-0.2,0-0.2-0.2c0-0.4,0-0.8-0.1-1.3c-0.1-0.8-0.5-1.4-1-2c-0.8-1-1.8-1.6-3.1-1.7
	C25,2,24.3,2,23.7,2.2c-1.3,0.4-2.3,1.2-2.9,2.4c-0.4,0.8-0.5,1.6-0.5,2.4c0,0.3,0,0.3-0.3,0.3c-1.1,0-2.2,0-3.2,0
	c-0.6,0-1.2,0.1-1.8,0.3c-1,0.3-1.9,0.9-2.5,1.7c-0.8,1-1.3,2.1-1.3,3.4c0,5.6,0,11.3,0,16.9c0,2.6,0,5.2,0,7.8c0,0.2,0,0.4,0,0.6
	c0.1,0.7,0.4,1.4,0.7,2c0.4,0.7,0.9,1.3,1.6,1.7c1,0.7,2.2,1.1,3.4,1.1c1.2,0,2.4,0,3.6,0c0.3,0,0.3,0,0.3,0.3c0,0.6,0,1.3,0.1,1.9
	c0.1,0.5,0.3,0.9,0.6,1.3c0.5,0.7,1,1.1,2,1.5c1.3,0.5,2.7,0.1,2.7,0.1c0.7-0.2,1.3-0.6,1.8-1.1c0.6-0.6,1-1.4,1.1-2.2
	c0.1-0.5,0.1-1.1,0.1-1.6c0-0.1,0-0.2,0.2-0.2c1.1,0,2.1,0,3.2,0c0.6,0,1.2,0,1.7-0.1c0.9-0.1,1.7-0.5,2.4-1.1
	c1.1-0.9,1.8-2.1,2.1-3.5c0.1-0.4,0-0.9,0-1.3C38.8,32.8,38.8,28.9,38.8,25z M26.9,44.5c-0.2,0.6-0.9,1.2-1.5,1.3
	c-0.8,0.1-1.5-0.1-2-0.8c-0.2-0.3-0.3-0.7-0.4-1.1c0-0.3,0-0.7,0-1c0-0.1,0-0.2,0.2-0.2c1.2,0,2.4,0,3.6,0c0.1,0,0.2,0.1,0.2,0.2
	c0,0.2,0,0.3,0,0.5c0,0,0,0,0,0C27,43.8,27,44.1,26.9,44.5z M36.6,17.4c0,6.6,0,13.1,0,19.7c0,0.8-0.2,1.6-0.8,2.2
	c-0.3,0.4-0.7,0.7-1.1,0.9c-0.5,0.3-1,0.3-1.6,0.3c-5.5,0-10.9,0-16.4,0c-1.2,0-2.2-0.6-2.9-1.6c-0.3-0.5-0.5-1.1-0.5-1.8
	c0-3,0-5.9,0-8.9c0-1.1,0-2.2,0-3.2c0-2.3,0-4.5,0-6.8c0-1.8,0-3.7,0-5.5c0-1.2,0.6-2.1,1.6-2.7c0.6-0.4,1.2-0.5,1.9-0.5
	c1.5,0,3,0,4.5,0c0.7,0,1.2-0.5,1.2-1.2c0-0.6,0-1.2,0-1.8c0-0.7,0.4-1.2,0.9-1.7c0.6-0.5,1.3-0.7,2.1-0.5c0.8,0.2,1.3,0.6,1.7,1.4
	c0.2,0.4,0.2,0.8,0.2,1.2c0,0.5,0,1,0,1.5c0,0.6,0.5,1.1,1.1,1.1c1.6,0,3.1,0,4.7,0c1.4,0,2.7,0.9,3.2,2.3c0.1,0.4,0.2,0.8,0.2,1.1
	C36.6,14.4,36.6,15.9,36.6,17.4z"/>
<path class="st0" d="M23.9,25c0-0.3,0-0.6,0.1-0.8c0.1-0.4,0.5-0.7,0.9-0.7c0.4,0,0.8,0.1,1,0.5c0.1,0.2,0.2,0.4,0.2,0.6
	c0,0.3,0,0.6,0,0.9c0,0.7-0.7,1.2-1.4,1.1c-0.4-0.1-0.9-0.6-0.8-1.1C23.9,25.3,23.9,25.1,23.9,25C23.9,25,23.9,25,23.9,25z"/>
<path class="st0" d="M25.7,39.5c0.6-0.1,1.3,0.1,1.9,0.3c0-0.2,0.1-0.4,0.1-0.6c0.3-1.5,0.4-3.1,0.4-4.7c-0.4-4.1-1.4-8.1-3.9-11.4
	c1.9,1.6,4.4,5.5,5.3,10.6c2-3.1,4.5-8.3,2.1-12.9c-2.7-5.1-7.5-8.8-10-10.4c-0.6-0.4-1.3,0.1-1.2,0.7c0.2,1.8,0.1,4.7-1.4,8.1
	c-1.5,3.3-4.4,9.4,6.7,16.2C25.7,37,25.7,38.3,25.7,39.5z"/>
</svg>
