<?xml version="1.0" encoding="utf-8"?>
<!-- Generator: Adobe Illustrator 21.1.0, SVG Export Plug-In . SVG Version: 6.00 Build 0)  -->
<svg version="1.1" id="Слой_1" xmlns="http://www.w3.org/2000/svg" xmlns:xlink="http://www.w3.org/1999/xlink" x="0px" y="0px"
	 viewBox="0 0 50 50" style="enable-background:new 0 0 50 50;" xml:space="preserve">
<style type="text/css">
	.st0{fill:#275B4D;}
</style>
<g>
	<path class="st0" d="M28.4,30c0.5-1.4,0.2-3-0.9-4.1c-1.8-1.8-4.8-1.6-6.2,0.6c-0.9,1.3-0.9,3,0,4.3c1.1,1.6,3,2.1,4.6,1.5l5.1,4.1
		c1,0.8,2.3-0.5,1.5-1.4L28.4,30z M28.4,30"/>
	<path class="st0" d="M40.5,15.2l0.5,0.5c0.9,0.9,2.4,0.9,3.3,0c0.9-0.9,0.9-2.3,0-3.2l-3.2-3.1c-0.9-0.9-2.4-0.9-3.3,0
		c-0.9,0.9-0.9,2.3,0,3.2l0.5,0.5l-1,1c-2.9-2.4-6.4-3.9-10.3-4.4V6.5h2.4c1.3,0,2.3-1,2.3-2.3c0-1.2-1-2.3-2.3-2.3h-9.5
		c-1.3,0-2.3,1-2.3,2.3c0,1.3,1,2.3,2.3,2.3h2.4v3.1C12.6,10.8,5,18.9,5,28.7C5,39.4,13.8,48,24.7,48c10.8,0,19.7-8.6,19.7-19.3
		c0-4.8-1.8-9.2-4.8-12.6L40.5,15.2z M24.7,43.5c-8.3,0-15-6.6-15-14.7c0-8.1,6.8-14.7,15-14.7c8.3,0,15,6.6,15,14.7
		C39.7,36.9,33,43.5,24.7,43.5L24.7,43.5z M24.7,43.5"/>
</g>
</svg>
