<?xml version="1.0" encoding="utf-8"?>
<!-- Generator: Adobe Illustrator 21.1.0, SVG Export Plug-In . SVG Version: 6.00 Build 0)  -->
<svg version="1.1" id="Слой_1" xmlns="http://www.w3.org/2000/svg" xmlns:xlink="http://www.w3.org/1999/xlink" x="0px" y="0px"
	 viewBox="0 0 50 50" style="enable-background:new 0 0 50 50;" xml:space="preserve">
<style type="text/css">
	.st0{fill:#686868;}
</style>
<g>
	<path class="st0" d="M15.8,18.4c0.8-0.3,1.1-1.2,0.8-2c-0.4-1.1-0.7-2.2-0.7-3.4c0-5,4.1-9,9-9c5,0,9,4.1,9,9
		c0,1.2-0.2,2.3-0.7,3.4c-0.2,0.4-0.1,0.8,0,1.2c0.2,0.4,0.5,0.7,0.8,0.8c0.2,0.1,0.4,0.1,0.6,0.1c0.6,0,1.2-0.4,1.4-0.9
		c0.6-1.4,0.9-3,0.9-4.5C37.1,6.4,31.7,1,25,1C18.4,1,13,6.4,13,13.1c0,1.6,0.3,3.1,0.9,4.5C14.2,18.4,15.1,18.8,15.8,18.4z"/>
	<path class="st0" d="M43.4,7.3h-3.1c-0.4,0-0.8,0.2-1.1,0.4c-0.3,0.3-0.4,0.7-0.4,1.1c0,0.8,0.7,1.5,1.5,1.5l3.1,0
		c0.4,0,0.8-0.2,1.1-0.4c0.3-0.3,0.4-0.7,0.4-1.1C44.9,8,44.2,7.3,43.4,7.3z"/>
	<path class="st0" d="M39,6.4c0.3,0,0.6-0.1,0.8-0.3l2.6-1.8c0.7-0.5,0.9-1.4,0.4-2.1c-0.5-0.7-1.4-0.9-2.1-0.4l-2.6,1.8
		c-0.7,0.5-0.9,1.4-0.4,2.1C38.1,6.2,38.5,6.4,39,6.4z"/>
	<path class="st0" d="M42.5,13.3l-2.6-1.8c-0.3-0.2-0.7-0.3-1.1-0.2c-0.4,0.1-0.7,0.3-1,0.6c-0.2,0.3-0.3,0.7-0.2,1.1s0.3,0.7,0.6,1
		l2.6,1.8c0.3,0.2,0.5,0.3,0.8,0.3c0.5,0,1-0.2,1.3-0.7C43.4,14.7,43.2,13.7,42.5,13.3z"/>
	<path class="st0" d="M11.3,8.8c0-0.8-0.7-1.5-1.5-1.5l-3.1,0C5.8,7.3,5.1,8,5.1,8.8c0,0.8,0.7,1.5,1.5,1.5l3.1,0
		C10.6,10.4,11.3,9.7,11.3,8.8z"/>
	<path class="st0" d="M7.5,4.4l2.6,1.8c0.3,0.2,0.5,0.3,0.9,0.3c0.5,0,1-0.2,1.3-0.7c0.2-0.3,0.3-0.7,0.2-1.1
		c-0.1-0.4-0.3-0.7-0.6-1L9.2,1.9C8.5,1.4,7.6,1.6,7.1,2.3C6.6,3,6.8,3.9,7.5,4.4z"/>
	<path class="st0" d="M12.4,13.1c0.1-0.4,0-0.8-0.2-1.1c-0.5-0.7-1.4-0.9-2.1-0.4l-2.6,1.8c-0.3,0.2-0.6,0.6-0.6,1
		c-0.1,0.4,0,0.8,0.2,1.1C7.4,15.8,7.8,16,8.4,16c0.3,0,0.6-0.1,0.8-0.3l2.6-1.8C12.1,13.8,12.4,13.5,12.4,13.1z"/>
	<path class="st0" d="M35.8,25.4c-0.6-1-1.7-2.1-3.8-2.2V14c0-2.1-1.6-3.8-3.7-3.8c-1.9,0-3.5,1.4-3.7,3.2c-0.1-0.1-0.2-0.3-0.4-0.4
		c-0.7-0.6-1.6-0.9-2.5-0.9c-1.8,0-3.7,1.2-3.7,3.6c0,0,0,10.5,0,14.3l-1.5-2.3c-0.7-1.1-1.8-1.8-3-1.8c-1.3,0-2.6,0.7-3.3,1.9
		c-0.6,1.1-0.6,2.4,0.1,3.6l8.9,16.3c0.4,0.8,1.2,1.2,2,1.2l12.3,0c1,0,1.9-0.7,2.2-1.7l1.2-3.6l0-0.1c3.6-5.5,4.9-9.5,4.3-13.2
		C40.5,25.8,37,25.4,35.8,25.4z M34.8,42.2c-0.1,0.2-0.2,0.5-0.3,0.7l-1.2,3.5l-11.9,0l-8.8-16.1c0,0,0-0.1-0.1-0.1
		c-0.2-0.4-0.2-0.7-0.1-1c0.2-0.4,0.6-0.6,1.1-0.6c0.3,0,0.6,0.2,0.9,0.6l2.2,3.4c0.4,0.6,1.1,1,1.8,1c0.6,0,1.1-0.2,1.5-0.6
		c0.4-0.4,0.6-0.9,0.6-1.5c0-0.6,0-15.7,0-15.7c0-1,0.9-1.1,1.1-1.1c0.3,0,0.6,0.1,0.8,0.3c0.2,0.2,0.3,0.4,0.3,0.8l0,7.9
		c0,1.2,1,2.1,2.1,2.1c1.2,0,2.1-1,2.1-2.2v-9.7c0-0.6,0.5-1.1,1.2-1.1c0.8,0,1.1,0.7,1.1,1.2v9.7c0,1,0.8,1.9,1.9,2
		c0.1,0,0.2,0,0.3,0c1,0,1.6,0.3,2,1.1c0.4,0.7,1.1,1.1,1.9,1.1l0.1,0c1.7,0,2.7,1,3,2.9C39.3,33.9,38.1,37.3,34.8,42.2z"/>
</g>
</svg>
