<?xml version="1.0" encoding="utf-8"?>
<!-- Generator: Adobe Illustrator 21.1.0, SVG Export Plug-In . SVG Version: 6.00 Build 0)  -->
<svg version="1.1" id="Слой_1" xmlns="http://www.w3.org/2000/svg" xmlns:xlink="http://www.w3.org/1999/xlink" x="0px" y="0px"
	 viewBox="0 0 50 50" style="enable-background:new 0 0 50 50;" xml:space="preserve">
<style type="text/css">
	.st0{fill:#686868;}
</style>
<g>
	<path class="st0" d="M21.3,12.4h-0.6c-0.7,0-1.2,0.5-1.2,1.1v4.8h3v-4.8C22.5,12.9,22,12.4,21.3,12.4L21.3,12.4z M21.3,12.4"/>
	<path class="st0" d="M29.3,12.4h-0.6c-0.7,0-1.2,0.5-1.2,1.1v4.8h3v-4.8C30.5,12.9,29.9,12.4,29.3,12.4L29.3,12.4z M29.3,12.4"/>
	<path class="st0" d="M25,4C13.4,4,4,13.6,4,25.5c0,5.7,2.2,11.1,6.1,15.2c2.3,2.4,5.2,4.2,8.4,5.3c0.2,0.1,0.4,0.1,0.6,0.1
		c0.9,0,1.6-0.6,1.9-1.4c0.3-1.1-0.2-2.3-1.3-2.6c-2.5-0.8-4.9-2.3-6.7-4.3C9.8,34.4,8,30.1,8,25.5c0-9.6,7.6-17.3,17-17.3
		c9.4,0,17,7.8,17,17.3c0,4.6-1.8,9-5,12.3c-1.2,1.1-4.3,3.4-6.1,3.4c-0.9,0-1.6-0.3-2.2-1c-1.4-1.6-1.8-5-1.8-7.3
		c3.5-0.2,6.3-3.1,6.3-6.8v-6.4H16.8v6.4c0,3.6,2.7,6.5,6.1,6.8c0,2.8,0.4,7.3,2.8,10.1c1.3,1.5,3.1,2.3,5.2,2.3
		c3.9,0,8.4-4,8.9-4.5l0.1-0.1c4-4.1,6.2-9.5,6.2-15.2C46,13.6,36.6,4,25,4L25,4z M25,4"/>
</g>
</svg>
