<?xml version="1.0" encoding="utf-8"?>
<!-- Generator: Adobe Illustrator 21.1.0, SVG Export Plug-In . SVG Version: 6.00 Build 0)  -->
<svg version="1.1" id="Слой_1" xmlns="http://www.w3.org/2000/svg" xmlns:xlink="http://www.w3.org/1999/xlink" x="0px" y="0px"
	 viewBox="0 0 50 50" style="enable-background:new 0 0 50 50;" xml:space="preserve">
<style type="text/css">
	.st0{fill:#686868;}
</style>
<g>
	<path class="st0" d="M7.8,4H7.3C6.6,4,6.2,4.5,6.2,5v4.3h2.7V5C8.9,4.5,8.4,4,7.8,4z"/>
	<path class="st0" d="M15.2,4h-0.5c-0.6,0-1.1,0.5-1.1,1v4.3h2.7V5C16.3,4.5,15.8,4,15.2,4z"/>
	<path class="st0" d="M22,27.1c-1.2,1.1-3.8,2.8-5.4,2.8c-0.9,0-1.5-0.3-2-0.9c-1.3-1.5-1.6-4.5-1.6-6.6c3.2-0.2,5.8-2.8,5.8-6.1
		v-5.8H3.6v5.8c0,3.2,2.5,5.8,5.6,6.1c0,2.5,0.3,6.6,2.6,9.1c1.2,1.4,2.9,2.1,4.8,2.1c2.1,0,4.4-1.2,6-2.4
		C22.3,29.9,22.5,28.5,22,27.1z"/>
</g>
<g>
	<path class="st0" d="M31.5,20.5c-4.6-0.7-8.9,2.4-9.6,7c-0.7,4.6,2.4,8.9,7,9.6c4.6,0.7,8.9-2.4,9.7-7
		C39.2,25.5,36.1,21.2,31.5,20.5L31.5,20.5z M31.5,20.5"/>
	<path class="st0" d="M31.9,18c-0.9-0.1-1.5-1-1.4-1.9l0.4-2.6c0.1-0.9,1-1.5,1.9-1.4c0.9,0.1,1.5,1,1.4,1.9l-0.4,2.6
		C33.6,17.6,32.8,18.2,31.9,18L31.9,18z M31.9,18"/>
	<path class="st0" d="M28.4,39.6c-0.9-0.1-1.7,0.5-1.9,1.4l-0.4,2.6c-0.1,0.9,0.5,1.7,1.4,1.9c0.9,0.1,1.7-0.5,1.9-1.4l0.4-2.6
		C29.9,40.6,29.3,39.7,28.4,39.6L28.4,39.6z M28.4,39.6"/>
	<path class="st0" d="M39,22.4c-0.5-0.7-0.4-1.8,0.4-2.3l2.1-1.5c0.7-0.5,1.8-0.4,2.3,0.4c0.5,0.7,0.4,1.8-0.4,2.3l-2.1,1.5
		C40.5,23.3,39.5,23.1,39,22.4L39,22.4z M39,22.4"/>
	<path class="st0" d="M21.3,35.2c-0.5-0.7-1.6-0.9-2.3-0.4l-2.1,1.5c-0.7,0.5-0.9,1.6-0.4,2.3c0.5,0.7,1.6,0.9,2.3,0.4l2.1-1.5
		C21.7,37,21.9,35.9,21.3,35.2L21.3,35.2z M21.3,35.2"/>
	<path class="st0" d="M40.9,30.5c0.1-0.9,1-1.5,1.9-1.4l2.6,0.4c0.9,0.1,1.5,1,1.4,1.9c-0.1,0.9-1,1.5-1.9,1.4l-2.6-0.4
		C41.4,32.2,40.8,31.4,40.9,30.5L40.9,30.5z M40.9,30.5"/>
	<path class="st0" d="M36.6,37.6c0.7-0.5,1.8-0.4,2.3,0.4l1.5,2.1c0.5,0.7,0.4,1.8-0.4,2.3c-0.7,0.5-1.8,0.4-2.3-0.4l-1.5-2.1
		C35.7,39.2,35.8,38.2,36.6,37.6L36.6,37.6z M36.6,37.6"/>
	<path class="st0" d="M23.7,20c0.7-0.5,0.9-1.6,0.4-2.3l-1.5-2.1c-0.5-0.7-1.6-0.9-2.3-0.4c-0.7,0.5-0.9,1.6-0.4,2.3l1.5,2.1
		C22,20.3,23,20.5,23.7,20L23.7,20z M23.7,20"/>
</g>
</svg>
