<?xml version="1.0" encoding="utf-8"?>
<!-- Generator: Adobe Illustrator 21.1.0, SVG Export Plug-In . SVG Version: 6.00 Build 0)  -->
<svg version="1.1" id="Слой_1" xmlns="http://www.w3.org/2000/svg" xmlns:xlink="http://www.w3.org/1999/xlink" x="0px" y="0px"
	 viewBox="0 0 50 50" style="enable-background:new 0 0 50 50;" xml:space="preserve">
<style type="text/css">
	.st0{fill:#686868;}
</style>
<path class="st0" d="M40.5,10.2h-0.2V5.9c0-2.1-1.7-3.9-3.9-3.9c-2.1,0-3.9,1.7-3.9,3.9v4.3h-3.1V5.9c0-2.1-1.7-3.9-3.9-3.9
	c-2.1,0-3.9,1.7-3.9,3.9v4.3h-0.2c-2.1,0-3.9,1.7-3.9,3.9c0,1.6,1,3,2.5,3.6l3.2,8.7c0.6,1.5,2,2.5,3.6,2.5H27v7
	c0,2.4-1.9,4.3-4.3,4.3c-2.4,0-4.3-1.9-4.3-4.3c0-5.9-4.8-10.7-10.7-10.7c-2.1,0-3.9,1.7-3.9,3.9c0,2.1,1.7,3.9,3.9,3.9
	c1.6,0,2.9,1.3,2.9,2.9c0,6.7,5.4,12.1,12.1,12.1c6.7,0,12.1-5.4,12.1-12.1v-7H35c1.6,0,3.1-1,3.6-2.5l3.2-8.7
	c1.5-0.6,2.5-2,2.5-3.6C44.4,11.9,42.6,10.2,40.5,10.2z M40.8,15.6l-0.6,0.1l-3.7,9.8c-0.2,0.6-0.8,1-1.5,1h-2.5v9.4
	c0,5.4-4.4,9.8-9.8,9.8c-5.4,0-9.8-4.4-9.8-9.8c0-2.9-2.4-5.3-5.3-5.3c-0.9,0-1.6-0.7-1.6-1.6c0-0.9,0.7-1.6,1.6-1.6
	c4.6,0,8.4,3.8,8.4,8.4c0,3.7,3,6.6,6.6,6.6c3.7,0,6.6-3,6.6-6.6v-9.4h-2.5c-0.6,0-1.2-0.4-1.5-1l-3.7-9.8l-0.6-0.1
	c-0.7-0.1-1.3-0.8-1.3-1.5c0-0.9,0.7-1.6,1.6-1.6h2.5V5.9c0-0.9,0.7-1.6,1.6-1.6C26.3,4.3,27,5,27,5.9v6.6h7.8V5.9
	c0-0.9,0.7-1.6,1.6-1.6C37.3,4.3,38,5,38,5.9v6.6h2.5c0.9,0,1.6,0.7,1.6,1.6C42.1,14.8,41.5,15.5,40.8,15.6z"/>
</svg>
