<?xml version="1.0" encoding="utf-8"?>
<!-- Generator: Adobe Illustrator 21.1.0, SVG Export Plug-In . SVG Version: 6.00 Build 0)  -->
<svg version="1.1" id="Слой_1" xmlns="http://www.w3.org/2000/svg" xmlns:xlink="http://www.w3.org/1999/xlink" x="0px" y="0px"
	 viewBox="0 0 50 50" style="enable-background:new 0 0 50 50;" xml:space="preserve">
<style type="text/css">
	.st0{fill:#686868;}
</style>
<g>
	<path class="st0" d="M19.5,49c-0.2-0.3-0.5-0.5-0.7-0.8c-0.8-1.3-1.7-2.6-2.5-4c-0.1-0.1-0.2-0.3-0.3-0.4c-0.4,0.2-0.9,0.4-1.3,0.6
		c-1.2,0.5-2.4,1.1-3.6,1.6c-0.4,0.2-0.8,0.3-1.2-0.1c-0.4-0.3-0.4-0.8-0.2-1.2c1.6-5.1,3.2-10.2,4.8-15.3c0-0.1,0.1-0.3,0.1-0.5
		c-0.5-0.1-1-0.2-1.4-0.3c-1.8-0.4-2.6-1.6-2.3-3.4c0.1-0.7,0.2-1.4,0.4-2.1c0.2-0.8,0-1.5-0.7-2.1c-0.6-0.5-1.2-1.1-1.8-1.8
		c-1-1.2-1-2.6,0-3.8c0.6-0.6,1.2-1.2,1.8-1.8c0.6-0.6,0.8-1.2,0.6-2c-0.2-0.8-0.4-1.7-0.4-2.5c-0.1-1.6,0.7-2.6,2.3-2.9
		c0.8-0.2,1.7-0.3,2.5-0.4c0.7-0.1,1.1-0.4,1.4-1c0.3-0.7,0.7-1.5,1.1-2.2C19,1,20.3,0.6,22,1.4c0.7,0.3,1.3,0.7,2,1.1
		c0.7,0.4,1.4,0.4,2.1,0c0.8-0.4,1.5-0.9,2.4-1.2c1.5-0.6,2.7-0.2,3.5,1.3c0.3,0.6,0.7,1.2,0.9,1.9C33.2,5.5,34,5.9,35.1,6
		c0.7,0,1.5,0.2,2.2,0.4c1.4,0.3,2.1,1.3,2,2.7c0,0.9-0.2,1.8-0.4,2.7c-0.2,0.8,0,1.5,0.7,2.1c0.6,0.5,1.2,1.1,1.8,1.7
		c1.1,1.2,1.1,2.6,0,3.8c-0.6,0.6-1.2,1.3-1.9,1.8c-0.6,0.5-0.7,1.2-0.6,1.9c0.2,0.9,0.4,1.8,0.4,2.7c0.1,1.5-0.8,2.5-2.2,2.8
		c-0.5,0.1-1,0.2-1.6,0.3c0.5,1.5,0.9,2.9,1.3,4.3c1.2,3.8,2.4,7.6,3.5,11.4c0.1,0.5,0.2,0.9-0.2,1.3c-0.4,0.4-0.8,0.3-1.3,0.1
		c-1.6-0.7-3.2-1.4-4.9-2.1c-0.1,0.1-0.2,0.3-0.3,0.4c-0.8,1.3-1.6,2.7-2.5,4c-0.2,0.3-0.5,0.5-0.7,0.8c-0.2,0-0.4,0-0.7,0
		c-0.4-0.3-0.6-0.6-0.7-1.1c-1.3-4.3-2.6-8.5-4-12.8c0-0.2-0.1-0.3-0.2-0.6c-0.1,0.3-0.1,0.4-0.2,0.5c-1.3,4.3-2.6,8.5-4,12.8
		c-0.1,0.5-0.3,0.9-0.7,1.1C19.9,49,19.7,49,19.5,49z M37.4,9.3c0-0.9-0.1-1.1-0.9-1.2C35.7,8,35,7.9,34.3,7.8
		c-1.3-0.2-2.3-0.8-2.9-2c-0.3-0.6-0.6-1.3-0.9-1.9c-0.5-1.1-0.8-1.2-1.9-0.6c-0.6,0.3-1.3,0.7-1.9,1c-1.1,0.6-2.2,0.6-3.4,0
		c-0.7-0.4-1.3-0.7-2-1.1c-0.9-0.5-1.2-0.4-1.7,0.5C19.3,4.4,19,5,18.7,5.7c-0.6,1.3-1.7,2-3.1,2.2c-0.8,0.1-1.6,0.2-2.4,0.4
		c-0.4,0.1-0.6,0.3-0.5,0.7c0.1,0.7,0.2,1.4,0.3,2.1c0.4,1.7,0,3.1-1.4,4.3c-0.4,0.4-0.9,0.8-1.3,1.2c-0.7,0.7-0.7,1.1,0,1.8
		c0.5,0.5,1.1,1.1,1.7,1.6c1,0.9,1.3,2,1,3.3c-0.1,0.8-0.3,1.6-0.4,2.4c-0.1,0.8,0.1,1,0.9,1.1c0.7,0.1,1.4,0.2,2.1,0.3
		c1.5,0.2,2.5,0.8,3.2,2.2c0.3,0.6,0.6,1.3,0.9,1.9c0.4,0.9,0.7,1,1.6,0.5c0.7-0.4,1.4-0.8,2.1-1.1c0.9-0.5,1.9-0.6,2.9-0.1
		c0.8,0.4,1.6,0.8,2.4,1.3c0.9,0.5,1.2,0.4,1.7-0.5c0.3-0.6,0.6-1.3,0.9-1.9c0.6-1.4,1.7-2.1,3.2-2.2c0.8-0.1,1.6-0.2,2.4-0.4
		c0.4-0.1,0.6-0.3,0.5-0.7c-0.1-0.7-0.2-1.5-0.3-2.2c-0.4-1.7,0-3.1,1.4-4.2c0.4-0.3,0.8-0.7,1.1-1.1c0.9-0.8,0.9-1.2,0-2
		c-0.5-0.5-1-1-1.5-1.4c-1-0.9-1.3-2-1-3.3C37.1,10.8,37.3,10,37.4,9.3z M30.5,45.7c0.7-1.2,1.4-2.2,2.1-3.3c0.6-0.9,0.9-1,1.9-0.6
		c1.1,0.5,2.3,1,3.5,1.6c-1.5-4.8-2.9-9.5-4.4-14.3c-0.2,0.4-0.4,0.7-0.6,1c-0.4,0.8-0.7,1.6-1.2,2.3c-0.7,1.2-1.9,1.7-3.2,1.2
		c-0.6-0.2-1.1-0.5-1.6-0.8c-0.1-0.1-0.3-0.1-0.5-0.3C27.8,37,29.1,41.3,30.5,45.7z M16.4,29.1c-1.5,4.8-2.9,9.5-4.4,14.3
		c1.3-0.6,2.6-1.1,3.8-1.7c0.7-0.3,1.1-0.2,1.5,0.5c0.6,1,1.3,2,1.9,3.1c0.1,0.1,0.2,0.2,0.3,0.4c1.4-4.4,2.7-8.7,4.1-13.1
		c-0.6,0.3-1.1,0.6-1.6,0.8c-1.7,0.8-3,0.4-3.9-1.2c-0.4-0.7-0.7-1.4-1-2.1C16.9,29.8,16.7,29.5,16.4,29.1z"/>
	<path class="st0" d="M25,28.3c-6,0-10.9-4.8-10.9-10.8c0-6,4.8-10.9,10.9-10.9c6,0,10.9,4.9,10.9,10.8C35.9,23.4,31,28.3,25,28.3z
		 M25,26.4c4.9,0,8.9-4,8.9-8.9c0-5-4-9-9-8.9c-5,0-8.9,4-8.9,9C16.1,22.2,19.9,26.4,25,26.4z"/>
	<path class="st0" d="M24.5,9.9c0.2,0,0.5,0,0.7,0c0.5,0.1,0.8,0.5,0.8,1c0,0.5-0.4,0.8-0.9,0.9c-0.4,0.1-0.9,0.1-1.3,0.2
		c-2.5,0.6-4.2,2.7-4.3,5.3c0,0.7-0.4,1.1-1,1.1c-0.6,0-1-0.5-0.9-1.2c0.2-3.7,2.8-6.6,6.4-7.2C24,9.9,24.3,9.9,24.5,9.9
		C24.5,9.9,24.5,9.9,24.5,9.9z"/>
</g>
</svg>
