<?xml version="1.0" encoding="utf-8"?>
<!-- Generator: Adobe Illustrator 21.1.0, SVG Export Plug-In . SVG Version: 6.00 Build 0)  -->
<svg version="1.1" id="Слой_1" xmlns="http://www.w3.org/2000/svg" xmlns:xlink="http://www.w3.org/1999/xlink" x="0px" y="0px"
	 viewBox="0 0 50 50" style="enable-background:new 0 0 50 50;" xml:space="preserve">
<style type="text/css">
	.st0{fill:#686868;}
</style>
<g>
	<g>
		<path class="st0" d="M48.9,40.2l-1.8-4.3c-0.2-0.6-0.9-0.9-1.5-0.6c-0.6,0.2-0.9,0.9-0.6,1.5l0.7,1.8l-3.9-1.6V19.7
			c0-0.5-0.3-0.9-0.8-1.1l-14.9-5.4V9.4l1.4,1.4c0.2,0.2,0.5,0.3,0.8,0.3c0.3,0,0.6-0.1,0.8-0.3c0.5-0.5,0.5-1.2,0-1.6l-3.3-3.3
			c-0.5-0.5-1.2-0.5-1.6,0l-3.3,3.3c-0.5,0.5-0.5,1.2,0,1.6c0.5,0.5,1.2,0.5,1.6,0l1.4-1.4v3.8L9,18.6c-0.5,0.2-0.8,0.6-0.8,1.1
			v17.2l-3.9,1.6L5,36.8c0.2-0.6,0-1.3-0.6-1.5c-0.6-0.2-1.3,0-1.5,0.6l-1.8,4.3c-0.1,0.3-0.1,0.6,0,0.9c0.1,0.3,0.3,0.5,0.6,0.6
			l4.3,1.8c0.1,0.1,0.3,0.1,0.4,0.1c0.5,0,0.9-0.3,1.1-0.7c0.2-0.6,0-1.3-0.6-1.5l-1.8-0.7l4.2-1.7l15.3,5.6c0,0,0.2,0.1,0.4,0.1
			c0.2,0,0.4-0.1,0.4-0.1l15.3-5.6l4.2,1.7l-1.8,0.7c-0.6,0.2-0.9,0.9-0.6,1.5c0.2,0.4,0.6,0.7,1.1,0.7c0.1,0,0.3,0,0.4-0.1l4.3-1.8
			c0.3-0.1,0.5-0.3,0.6-0.6C49,40.8,49,40.5,48.9,40.2L48.9,40.2z M23.8,41.8l-11.3-4.1L23.8,33V41.8z M23.8,30.5l-13.3,5.4V21.5
			l13.3,5.4V30.5z M23.8,24.3l-11.3-4.6l11.3-4.1V24.3z M26.2,15.6l11.3,4.1l-11.3,4.6V15.6z M26.2,41.8V33l11.3,4.6L26.2,41.8z
			 M39.5,35.9l-13.3-5.4v-3.7l13.3-5.4V35.9z M39.5,35.9"/>
	</g>
</g>
</svg>
