<?xml version="1.0" encoding="utf-8"?>
<!-- Generator: Adobe Illustrator 21.1.0, SVG Export Plug-In . SVG Version: 6.00 Build 0)  -->
<svg version="1.1" id="Слой_1" xmlns="http://www.w3.org/2000/svg" xmlns:xlink="http://www.w3.org/1999/xlink" x="0px" y="0px"
	 viewBox="0 0 50 50" style="enable-background:new 0 0 50 50;" xml:space="preserve">
<style type="text/css">
	.st0{fill:#686868;}
</style>
<g>
	<path class="st0" d="M22.1,29.4c3.8,0,7.7,0,11.5,0c1.6,0,2.9-1.3,2.9-2.9c0-4.2,0-8.4,0-12.5c0-1.6-1.2-2.8-2.8-2.9
		c-0.5,0-1.1-0.1-1.6-0.3c-1.2-0.4-2-1.4-2-2.6c0-1.2,0.7-2.3,1.9-2.7c0.5-0.2,1.1-0.1,1.6-0.3C34,5,34.5,4.8,34.7,4.5
		C35.3,3.6,34.9,2,33.3,2c-3.7,0.1-7.4,0-11,0c-1,0-1.5,0.5-1.6,1.5c-0.1,1,0.4,1.6,1.4,1.7c0.3,0,0.6,0,0.9,0.1
		c1.5,0.2,2.5,1.3,2.6,2.7c0.1,1.4-0.9,2.6-2.4,2.9c-0.4,0.1-0.7,0.1-1.1,0.1c-1.8,0.1-2.9,1.2-2.9,3c0,2,0,4.1,0,6.1
		c0,2.1,0,4.1,0,6.2C19.2,28.1,20.3,29.4,22.1,29.4z"/>
	<path class="st0" d="M46.3,38.2c-1.5-2.5-4.4-3.6-7.1-2.7l-5.1,1.6c-0.5-2-2-3.2-4.6-3.6l-14.9-2.2c0-0.2,0-0.4,0-0.6
		c0-0.4-0.2-0.7-0.4-1c-1.6-1.3-7.2-1.4-9.6-1.4c-0.4,0-0.7,0.2-0.9,0.4c-0.2,0.2-0.4,0.6-0.3,0.9L4.6,45c0,0.3,0.2,0.6,0.4,0.8
		c0.2,0.2,0.5,0.3,0.8,0.3c0,0,0.1,0,0.1,0l5.2-0.3c0.5,0,1-0.4,1.1-0.9c0-0.1,0.1-0.3,0.2-0.6l12.3,3.2C26,47.8,27,48,27.9,48
		c0.1,0,0.3,0,0.4,0c1.8-0.1,3.8-1,8.3-3.2l9.2-4.9c0.3-0.2,0.5-0.4,0.6-0.8C46.5,38.8,46.5,38.4,46.3,38.2z M10,43.4l-3,0.2
		L6.1,30.7c2.6,0.1,5.1,0.3,6.1,0.6C12,35,10.5,41.1,10,43.4z M14.5,33.7l14.7,2.2c1.7,0.3,2.4,0.8,2.6,2l-1.3,0.4
		c-0.6,0.2-1.2,0.2-1.7,0.2l-7.6-1c-0.3,0-0.7,0-0.9,0.2c-0.3,0.2-0.4,0.5-0.5,0.8c0,0.3,0,0.6,0.2,0.9c0.2,0.3,0.5,0.4,0.8,0.5
		l7.6,1c0.3,0,0.5,0.1,0.8,0.1c0.1,0,0.3,0,0.4,0c0.5,0,1-0.1,1.5-0.3l2.3-0.7c0,0,0,0,0,0l6.5-2.1c1.2-0.4,2.4-0.1,3.3,0.6
		l-7.8,4.2c-6.9,3.4-7.1,3.3-10.2,2.4l-12.4-3.2C13.4,39.5,14.1,36.4,14.5,33.7z"/>
</g>
</svg>
