<?xml version="1.0" encoding="utf-8"?>
<!-- Generator: Adobe Illustrator 21.1.0, SVG Export Plug-In . SVG Version: 6.00 Build 0)  -->
<svg version="1.1" id="Слой_1" xmlns="http://www.w3.org/2000/svg" xmlns:xlink="http://www.w3.org/1999/xlink" x="0px" y="0px"
	 viewBox="0 0 50 50" style="enable-background:new 0 0 50 50;" xml:space="preserve">
<style type="text/css">
	.st0{fill:#686868;}
</style>
<g>
	<path class="st0" d="M24.2,31.4L16.2,25l7.9-6.4c0.4-0.3,0.6-0.8,0.6-1.3c0-0.5-0.2-1-0.6-1.3L13.8,7.8c-0.5-0.4-1.2-0.5-1.7-0.2
		c-0.6,0.3-0.9,0.9-0.9,1.5v11.8l-4.9-4c-0.7-0.6-1.7-0.5-2.3,0.2c-0.6,0.7-0.5,1.7,0.2,2.3L11,25l-6.8,5.5
		c-0.7,0.6-0.8,1.6-0.2,2.3c0.3,0.4,0.8,0.6,1.3,0.6c0.4,0,0.7-0.1,1-0.4l4.9-4V41c0,0.6,0.4,1.2,0.9,1.5c0.2,0.1,0.5,0.2,0.7,0.2
		c0.4,0,0.7-0.1,1-0.4l10.3-8.3c0.4-0.3,0.6-0.8,0.6-1.3C24.8,32.2,24.6,31.7,24.2,31.4z M14.5,12.5l6.1,4.9l-6.1,4.9V12.5z
		 M14.5,37.5v-9.7l6.1,4.9L14.5,37.5z"/>
</g>
<g>
	<path class="st0" d="M34.5,14.3c-0.7-0.7-1.7-0.7-2.4,0c-0.7,0.7-0.7,1.7,0,2.4c4.6,4.6,4.6,12,0,16.5c-0.3,0.3-0.5,0.8-0.5,1.2
		c0,0.4,0.2,0.9,0.5,1.2c0.7,0.7,1.7,0.7,2.4,0C40.4,29.8,40.4,20.2,34.5,14.3L34.5,14.3z M34.5,14.3"/>
	<path class="st0" d="M30,18.9c-0.7-0.7-1.7-0.7-2.4,0c-0.7,0.7-0.7,1.7,0,2.4c2,2,2,5.4,0,7.4c-0.3,0.3-0.5,0.8-0.5,1.2
		c0,0.4,0.2,0.9,0.5,1.2c0.7,0.7,1.7,0.7,2.4,0C33.3,27.7,33.3,22.3,30,18.9L30,18.9z M30,18.9"/>
	<path class="st0" d="M23.9,27.3c-1.2,0-2.3-1-2.3-2.3c0-1.2,1-2.3,2.3-2.3c1.2,0,2.3,1,2.3,2.3C26.1,26.2,25.1,27.3,23.9,27.3
		L23.9,27.3z M23.9,27.3"/>
	<path class="st0" d="M39.2,40.3c8.4-8.4,8.4-22.2,0-30.6c-0.7-0.7-1.7-0.7-2.4,0c-0.7,0.7-0.7,1.7,0,2.4c7.1,7.1,7.1,18.7,0,25.8
		c-0.3,0.3-0.5,0.8-0.5,1.2c0,0.4,0.2,0.9,0.5,1.2C37.4,41,38.5,41,39.2,40.3L39.2,40.3z M39.2,40.3"/>
</g>
</svg>
