<?xml version="1.0" encoding="utf-8"?>
<!-- Generator: Adobe Illustrator 21.1.0, SVG Export Plug-In . SVG Version: 6.00 Build 0)  -->
<svg version="1.1" id="Слой_1" xmlns="http://www.w3.org/2000/svg" xmlns:xlink="http://www.w3.org/1999/xlink" x="0px" y="0px"
	 viewBox="0 0 50 50" style="enable-background:new 0 0 50 50;" xml:space="preserve">
<style type="text/css">
	.st0{fill:#BCBEC0;}
</style>
<path class="st0" d="M1,39.2L1,17.1c0-1.1,1.1-1.8,2.1-1.4l20,8.6c0.6,0.2,0.9,0.8,0.9,1.4l0.1,22c0,1.1-1.1,1.8-2.1,1.4L2,40.5
	C1.4,40.3,1,39.8,1,39.2 M47,18.2l-18.5,8l0,20.4l18.5-8L47,18.2 M47.7,15.5c0.8,0,1.5,0.6,1.5,1.5l0.1,22c0,0.6-0.4,1.1-0.9,1.4
	l-20,8.7c-0.2,0.1-0.4,0.1-0.6,0.1c-0.8,0-1.5-0.6-1.5-1.5l-0.1-22c0-0.6,0.4-1.1,0.9-1.4l20-8.7C47.3,15.6,47.5,15.5,47.7,15.5
	 M25,3.1L5.8,11.7L25,20.2l19.2-8.6L25,3.1 M25,0.8c0.2,0,0.4,0,0.6,0.1l21.1,9.3c1.2,0.5,1.2,2.2,0,2.8l-21,9.4
	c-0.2,0.1-0.4,0.1-0.6,0.1c-0.2,0-0.4,0-0.6-0.1L3.3,13.1c-1.2-0.5-1.2-2.2,0-2.8l21-9.4C24.6,0.8,24.8,0.8,25,0.8"/>
</svg>
