<?xml version="1.0" encoding="utf-8"?>
<!-- Generator: Adobe Illustrator 21.1.0, SVG Export Plug-In . SVG Version: 6.00 Build 0)  -->
<svg version="1.1" id="Слой_1" xmlns="http://www.w3.org/2000/svg" xmlns:xlink="http://www.w3.org/1999/xlink" x="0px" y="0px"
	 viewBox="0 0 50 50" style="enable-background:new 0 0 50 50;" xml:space="preserve">
<style type="text/css">
	.st0{fill:#275B4D;}
	.st1{fill:#FFFFFF;}
</style>
<circle class="st0" cx="25" cy="25" r="25"/>
<path class="st1" d="M31.6,17.6c-2.3-3.7-4.7-6.9-6-8.5c-0.2-0.3-0.4-0.3-0.7-0.3s-0.5,0.1-0.7,0.3c-1.3,1.6-3.8,4.8-6,8.5
	c-2.9,4.7-4.4,8.7-4.4,11.8c0,6.1,5,11.1,11.1,11.1S36,35.4,36,29.3C36,26.3,34.6,22.3,31.6,17.6L31.6,17.6z M26.4,36.3
	c-0.7,0.2-1.4,0.3-2,0.3c-4.2,0-7.5-3.1-7.5-6.9c0-0.9,0.3-2,0.8-3.2c0.1-0.2,0.3-0.3,0.5-0.3c0.3,0.1,0.4,0.3,0.3,0.5
	c0,0.3-0.1,0.5-0.1,0.8c0,4.2,3.4,7.7,7.9,8.1c0.3,0,0.4,0.2,0.4,0.4C26.8,36,26.6,36.2,26.4,36.3L26.4,36.3z"/>
</svg>
