<?xml version="1.0" encoding="utf-8"?>
<!-- Generator: Adobe Illustrator 21.1.0, SVG Export Plug-In . SVG Version: 6.00 Build 0)  -->
<svg version="1.1" id="Слой_1" xmlns="http://www.w3.org/2000/svg" xmlns:xlink="http://www.w3.org/1999/xlink" x="0px" y="0px"
	 viewBox="0 0 50 50" style="enable-background:new 0 0 50 50;" xml:space="preserve">
<style type="text/css">
	.st0{fill:#FFFFFF;}
</style>
<path class="st0" d="M32.8,16.3c-2.7-4.4-5.6-8.2-7.1-10c-0.2-0.3-0.5-0.4-0.8-0.4c-0.3,0-0.6,0.1-0.8,0.4c-1.5,1.9-4.5,5.7-7.1,10
	c-3.4,5.6-5.2,10.3-5.2,13.9c0,7.2,5.9,13.1,13.1,13.1S38,37.4,38,30.1C38,26.6,36.3,21.9,32.8,16.3L32.8,16.3z M26.7,38.4
	c-0.8,0.2-1.6,0.3-2.4,0.3c-4.9,0-8.9-3.7-8.9-8.2c0-1.1,0.3-2.4,0.9-3.8c0.1-0.2,0.4-0.4,0.6-0.3c0.3,0.1,0.5,0.3,0.4,0.6
	c0,0.3-0.1,0.6-0.1,0.9c0,4.9,4,9.1,9.3,9.6c0.3,0,0.5,0.2,0.5,0.5C27.1,38.1,26.9,38.3,26.7,38.4L26.7,38.4z M26.7,38.4"/>
</svg>
