<?xml version="1.0" encoding="utf-8"?>
<!-- Generator: Adobe Illustrator 21.1.0, SVG Export Plug-In . SVG Version: 6.00 Build 0)  -->
<svg version="1.1" id="Слой_1" xmlns="http://www.w3.org/2000/svg" xmlns:xlink="http://www.w3.org/1999/xlink" x="0px" y="0px"
	 viewBox="0 0 50 50" style="enable-background:new 0 0 50 50;" xml:space="preserve">
<style type="text/css">
	.st0{fill:#275B4D;}
	.st1{fill:#E9E9E9;}
</style>
<path class="st0" d="M25,0.3C11.4,0.3,0.3,11.4,0.3,25s11,24.7,24.7,24.7s24.7-11,24.7-24.7C49.7,11.4,38.6,0.3,25,0.3z"/>
<path class="st1" d="M38,30.1c0,0-3.2-1.9-7.2-1.9c-0.2,0-0.4,0-0.6,0c0.3-0.3,0.7-0.6,1-0.9c2.8-2.8,3.7-6.5,3.7-6.5
	s-3.7,0.9-6.5,3.7c-0.5,0.5-0.9,1-1.3,1.6c0.2-1.2,0.3-2.5,0.3-3.8C27.4,16.6,25,12,25,12s-2.4,4.6-2.4,10.3c0,1.4,0.1,2.7,0.3,3.8
	c-0.4-0.5-0.8-1.1-1.3-1.6c-2.8-2.8-6.5-3.7-6.5-3.7s0.9,3.7,3.7,6.5c0.3,0.3,0.6,0.6,1,0.9c-0.2,0-0.4,0-0.6,0
	c-4,0-7.2,1.9-7.2,1.9s3.2,1.9,7.2,1.9c0.9,0,1.7-0.1,2.5-0.2c0,0-0.1,0.1-0.1,0.1c-1.9,1.9-2.2,4.5-2.2,4.5s2.6-0.4,4.5-2.2
	c0.1-0.1,0.2-0.2,0.3-0.3V38h1.7v-4.2c0.1,0.1,0.2,0.2,0.3,0.3c1.9,1.9,4.5,2.2,4.5,2.2s-0.4-2.6-2.2-4.5c0,0-0.1-0.1-0.1-0.1
	c0.8,0.1,1.6,0.2,2.5,0.2C34.8,31.9,38,30.1,38,30.1"/>
</svg>
