<?xml version="1.0" encoding="utf-8"?>
<!-- Generator: Adobe Illustrator 21.1.0, SVG Export Plug-In . SVG Version: 6.00 Build 0)  -->
<svg version="1.1" id="Слой_1" xmlns="http://www.w3.org/2000/svg" xmlns:xlink="http://www.w3.org/1999/xlink" x="0px" y="0px"
	 viewBox="0 0 50 50" style="enable-background:new 0 0 50 50;" xml:space="preserve">
<style type="text/css">
	.st0{fill:#275B4D;}
	.st1{fill:#E9E9E9;}
</style>
<path class="st0" d="M25,0.3C11.4,0.3,0.3,11.4,0.3,25s11,24.7,24.7,24.7s24.7-11,24.7-24.7C49.7,11.4,38.6,0.3,25,0.3z"/>
<g>
	<path class="st1" d="M29.5,31.3c0,0,0-0.1,0-0.1c0-1-0.2-1.9-0.6-2.9c0-0.1-0.1-0.2-0.1-0.3c0-0.1-0.1-0.2-0.1-0.3
		c0-0.1-0.1-0.2-0.1-0.3c0,0,0-0.1-0.1-0.1c0-0.1-0.1-0.2-0.1-0.2c-0.1-0.1-0.1-0.2-0.2-0.2l-4.3-6.4l-0.5-0.8l-0.5-0.8v0l-1.5-2.2
		L14.6,27c-0.9,1.3-1.3,2.7-1.4,4.2c0,1.4,0.3,2.8,0.9,4.1c0.7,1.3,1.6,2.3,2.8,3.1c1.3,0.8,2.7,1.2,4.3,1.2c0,0,0.1,0,0.1,0
		s0.1,0,0.1,0c1.5,0,3-0.4,4.3-1.2c1.2-0.8,2.2-1.8,2.8-3.1c0.4-0.7,0.6-1.5,0.8-2.2c0.1-0.3,0.1-0.6,0.1-0.9
		C29.5,31.9,29.5,31.6,29.5,31.3"/>
	<path class="st1" d="M36.8,24.7c-0.1-1.5-0.5-3-1.4-4.2l-6.8-10.1l-4.8,7.2l0.5,0.8l0.5,0.8l4.7,7c0.3,0.5,0.6,0.9,0.8,1.4
		c0,0,0.4,0.7,0.6,1.7c0.1,0.6,0.2,1.1,0.3,1.7c0,0.1,0,0.2,0,0.3c0,0.2,0,0.4,0,0.6c0,0.3,0,0.6-0.1,0.9c0.7-0.2,1.3-0.5,1.9-0.9
		c1.2-0.8,2.2-1.8,2.8-3.1C36.5,27.5,36.9,26.1,36.8,24.7"/>
</g>
</svg>
