<?xml version="1.0" encoding="utf-8"?>
<!-- Generator: Adobe Illustrator 21.1.0, SVG Export Plug-In . SVG Version: 6.00 Build 0)  -->
<svg version="1.1" id="Слой_1" xmlns="http://www.w3.org/2000/svg" xmlns:xlink="http://www.w3.org/1999/xlink" x="0px" y="0px"
	 viewBox="0 0 50 50" style="enable-background:new 0 0 50 50;" xml:space="preserve">
<style type="text/css">
	.st0{fill:#275B4D;}
	.st1{fill:#E9E9E9;}
</style>
<path class="st0" d="M25,0.3C11.4,0.3,0.3,11.4,0.3,25s11,24.7,24.7,24.7s24.7-11,24.7-24.7C49.7,11.4,38.6,0.3,25,0.3z"/>
<path class="st1" d="M28.1,12.1c-4.3,0-8,2.8-9.3,6.7c-3.9,1.3-6.7,5-6.7,9.3c0,5.4,4.4,9.8,9.8,9.8c4.3,0,8-2.8,9.3-6.7
	c3.9-1.3,6.7-5,6.7-9.3C37.9,16.5,33.5,12.1,28.1,12.1 M21.9,35.5c-4.1,0-7.4-3.3-7.4-7.4c0-2.8,1.6-5.3,3.9-6.5c0,0.1,0,0.2,0,0.3
	c0,5.4,4.4,9.8,9.8,9.8c0.1,0,0.2,0,0.3,0C27.2,34,24.7,35.5,21.9,35.5 M31.6,28.4c0-0.1,0-0.2,0-0.3c0-5.4-4.4-9.8-9.8-9.8
	c-0.1,0-0.2,0-0.3,0c1.3-2.3,3.7-3.9,6.5-3.9c4.1,0,7.4,3.3,7.4,7.4C35.5,24.7,34,27.2,31.6,28.4"/>
</svg>
