<?xml version="1.0" encoding="utf-8"?>
<!-- Generator: Adobe Illustrator 21.1.0, SVG Export Plug-In . SVG Version: 6.00 Build 0)  -->
<svg version="1.1" id="Слой_1" xmlns="http://www.w3.org/2000/svg" xmlns:xlink="http://www.w3.org/1999/xlink" x="0px" y="0px"
	 viewBox="0 0 50 50" style="enable-background:new 0 0 50 50;" xml:space="preserve">
<style type="text/css">
	.st0{fill:#275B4D;}
	.st1{fill:#E9E9E9;}
</style>
<path class="st0" d="M25,0.3C11.4,0.3,0.3,11.4,0.3,25s11,24.7,24.7,24.7s24.7-11,24.7-24.7C49.7,11.4,38.6,0.3,25,0.3z"/>
<path class="st1" d="M30.1,13.4c-0.8-0.7-1.4-0.5-2.3,1c-0.6,1-1.4,1.1-2,1.1l0-0.2c0.6-0.3,1.1-1,1.1-1.7c0-1.1-0.9-1.9-1.9-1.9
	c-1.1,0-1.9,0.9-1.9,1.9c0,0.7,0.4,1.4,1.1,1.7l0,0.2c-0.5,0-1.4-0.1-2-1.1c-0.8-1.5-1.4-1.7-2.3-1c-0.8,0.7-4.2,4.7-8.3,4.3
	c0,0,0.8,1.8,3,1.4c0,0,1.2,1.2,3.1,0.4c0,0,1,0.9,2.6,0.1c0,0,1.2,0.9,2.4,0.1c0,0,0.7,0.5,1.5,0.4l0,4.6c-0.1,0-0.2,0-0.3-0.1
	c0,0-1.4-0.3-2.8-0.7c-1.4-0.4-2.9-1-3.1-1.3c0,0,0,0,0.1-0.1c0.1-0.1,0.3-0.1,0.6-0.2c0.5-0.1,1.2-0.2,1.9-0.2c1.4-0.1,1.6,0,1.7,0
	c0,0,0.8,0.1,1-0.7c0,0,0,0,0-0.1c0-0.6-0.5-0.6-0.8-0.7c-0.6-0.1-0.3,0-1,0c-1.3,0.1-5.2-0.2-5.7,1.8c0,0.1,0,0.1,0,0.1
	c0.2,1.8,3.9,2.6,6.5,3.1c-0.9,0.6-1.4,1.4-1.6,2.5c-0.1,1.1,0.8,2.2,2.9,3.4c-1.6,1.1-2.6,2.1-2.5,3.4c0.1,1,1,2.4,2.8,3.3
	c0,0,0,0,0,0h0c0,0-1.2-1.9-1.3-2.9c-0.1-0.6,0.3-1.5,1.8-2.6l0,3.8h0c0,0.3,0.3,0.6,0.6,0.6c0.3,0,0.6-0.3,0.6-0.6h0l0-3.7
	c1.4,1,1.7,1.9,1.6,2.5c-0.1,1-1.3,2.9-1.3,2.9h0c0,0,0,0,0,0c1.8-0.9,2.7-2.2,2.8-3.3c0.1-1.3-0.9-2.3-2.5-3.4
	c2.1-1.2,2.9-2.3,2.9-3.4c-0.2-1-0.7-1.9-1.6-2.5c2.7-0.5,6.4-1.3,6.5-3.1c0-0.1,0-0.1,0-0.1c-0.5-2.1-4.4-1.7-5.7-1.8
	c-0.8,0-0.5,0-1,0c-0.4,0.1-0.8,0.1-0.8,0.7c0,0,0,0.1,0,0.1c0.2,0.8,1,0.7,1,0.7c0,0,0.3-0.1,1.7,0c0.7,0,1.4,0.1,1.9,0.2
	c0.3,0.1,0.5,0.1,0.6,0.2c0,0,0.1,0,0.1,0.1c-0.2,0.3-1.7,0.9-3.1,1.3c-1.4,0.4-2.8,0.7-2.8,0.7c0,0-0.1,0-0.1,0l0.1-4.6
	c0.8,0.1,1.5-0.4,1.5-0.4c1.2,0.8,2.4-0.1,2.4-0.1c1.6,0.8,2.6-0.1,2.6-0.1c1.9,0.9,3.1-0.4,3.1-0.4c2.2,0.4,3-1.4,3-1.4
	C34.3,18.1,31,14.1,30.1,13.4 M22.5,28.7c0-0.4-0.1-1.4,1.8-2.1l0,3.8c-0.4-0.2-0.7-0.5-1.1-0.7C22.7,29.4,22.5,29,22.5,28.7
	 M26.6,29.7c-0.3,0.2-0.7,0.4-1,0.6l0-3.7c1.7,0.7,1.6,1.6,1.6,2C27.4,29,27.1,29.4,26.6,29.7"/>
</svg>
