<?xml version="1.0" encoding="utf-8"?>
<!-- Generator: Adobe Illustrator 21.1.0, SVG Export Plug-In . SVG Version: 6.00 Build 0)  -->
<svg version="1.1" id="Слой_1" xmlns="http://www.w3.org/2000/svg" xmlns:xlink="http://www.w3.org/1999/xlink" x="0px" y="0px"
	 viewBox="0 0 50 50" style="enable-background:new 0 0 50 50;" xml:space="preserve">
<style type="text/css">
	.st0{fill:#58595B;}
	.st1{fill:#FFFFFF;}
</style>
<g>
	<path class="st0" d="M25,0C11.2,0,0,11.2,0,25s11.2,25,25,25s25-11.2,25-25S38.8,0,25,0z"/>
</g>
<g>
	<path class="st1" d="M42,26.5l-0.2,0.1c-0.5,0.3-0.9,0.5-1.4,0.8c-1.3,0.7-2.5,1.4-3.7,2.2c-0.3,0.2-0.4,0.2-0.7,0
		c-2.1-1.2-4.2-2.4-6.2-3.6c-0.2-0.1-0.3-0.3-0.3-0.5c0-1.3,0-2.7,0-4c0-1.2,0-2.4,0-3.6c0-0.5-0.2-0.8-0.6-1
		c-2.1-1.2-4.4-2.5-7.1-4.1c-0.4-0.2-0.7-0.2-1.1,0c-0.9,0.5-1.9,1.1-2.8,1.6c-1.2,0.7-2.5,1.5-3.8,2.2c-0.3,0.2-0.5,0.2-0.8,0
		c-1.1-0.7-2.3-1.4-3.5-2l-1.1-0.6c-0.1-0.1-0.2-0.1-0.3-0.2L8,13.5l-0.7,1.1L7.9,15c0.2,0.1,0.4,0.3,0.6,0.4L9.7,16
		c1,0.6,2,1.2,3.1,1.8c0.1,0.1,0.3,0.3,0.3,0.3c0,2.9,0,5.5,0,7.8c0,0.5,0.2,0.8,0.6,1c1,0.6,2,1.1,3,1.7l0.3,0.2
		c0.4,0.2,0.8,0.5,1.2,0.7c0.9,0.5,1.8,1,2.7,1.5c0.2,0.1,0.6,0.2,0.9,0.1c2-1.1,4.2-2.4,6.8-3.9c0.3-0.1,0.4-0.2,0.6,0
		c1.7,1,3.4,2,5.2,3c0.2,0.1,0.3,0.2,0.3,0.5c0,1.4,0,2.9,0,4.3l0,2.4l0.2,0c0.2,0,0.4,0,0.5,0c0.2,0,0.3,0,0.4-0.1
		c0.2-0.2,0.2-0.4,0.2-0.8c0-0.6,0-1.3,0-1.9l0-1.4c0-0.6,0-1.1,0-1.7l0-0.4h0.7v6.3H38l0-2.4c0-1.4,0-2.9,0-4.3
		c0-0.3,0.1-0.4,0.3-0.6c0.9-0.5,1.9-1.1,2.8-1.6l0.8-0.5c0.1-0.1,0.2-0.1,0.4-0.2l0.4-0.3L42,26.5z M14.4,18.1
		c0-0.1,0.1-0.2,0.2-0.2c2.2-1.3,4.4-2.5,6.5-3.8c0,0,0.1,0,0.1,0c0.1,0,0.1,0,0.1,0c2.4,1.4,4.5,2.6,6.5,3.8c0.1,0,0.2,0.2,0.2,0.4
		c0,0.9,0,1.9,0,2.8l0,0.9c0,0.3,0,0.7,0,1c0,0.8,0,1.7,0,2.6c0,0.3-0.1,0.4-0.3,0.5c-2.1,1.2-4.2,2.4-6.3,3.7
		c-0.2,0.1-0.4,0.1-0.6,0c-1.3-0.8-2.6-1.5-3.9-2.3l-1-0.6c-0.2-0.1-0.3-0.2-0.5-0.3c-0.3-0.2-0.7-0.4-1-0.6
		c-0.1-0.1-0.2-0.2-0.2-0.3C14.4,23.2,14.4,20.6,14.4,18.1z"/>
	<polygon class="st1" points="22.2,16.6 21.5,15.4 15.6,18.9 16.3,20 	"/>
</g>
</svg>
