<?xml version="1.0" encoding="utf-8"?>
<!-- Generator: Adobe Illustrator 21.1.0, SVG Export Plug-In . SVG Version: 6.00 Build 0)  -->
<svg version="1.1" id="Слой_1" xmlns="http://www.w3.org/2000/svg" xmlns:xlink="http://www.w3.org/1999/xlink" x="0px" y="0px"
	 viewBox="0 0 50 50" style="enable-background:new 0 0 50 50;" xml:space="preserve">
<style type="text/css">
	.st0{fill:#275B4D;}
	.st1{fill:#FFFFFF;}
</style>
<circle class="st0" cx="25" cy="25" r="25"/>
<g>
	<path class="st1" d="M46.5,27.9l-0.3,0.2c-0.6,0.3-1.2,0.7-1.7,1c-1.6,0.9-3.2,1.8-4.7,2.7c-0.4,0.2-0.5,0.2-0.9,0
		c-2.7-1.6-5.4-3.1-7.9-4.5c-0.3-0.2-0.4-0.3-0.4-0.7c0-1.7,0-3.4,0-5.1c0-1.5,0-3.1,0-4.6c0-0.6-0.2-1-0.7-1.3
		c-2.7-1.5-5.6-3.2-9-5.2c-0.5-0.3-0.9-0.3-1.4,0c-1.2,0.7-2.4,1.4-3.6,2.1c-1.6,0.9-3.2,1.9-4.8,2.8c-0.4,0.2-0.6,0.2-1,0
		c-1.5-0.9-2.9-1.7-4.4-2.5L4.3,12c-0.1-0.1-0.3-0.1-0.4-0.2l-0.5-0.3l-0.9,1.4l0.7,0.4c0.3,0.2,0.5,0.3,0.8,0.5l1.4,0.8
		c1.3,0.7,2.6,1.5,3.9,2.3c0.2,0.1,0.3,0.3,0.3,0.4c0,3.7,0,7,0,9.9c0,0.6,0.2,1,0.7,1.3c1.3,0.7,2.5,1.4,3.7,2.1l0.5,0.3
		c0.5,0.3,1,0.6,1.5,0.9c1.1,0.6,2.2,1.3,3.4,1.9c0.3,0.1,0.8,0.3,1.2,0.1c2.5-1.4,5.3-3,8.6-5c0.3-0.2,0.5-0.2,0.8,0
		c2.1,1.2,4.3,2.5,6.7,3.8c0.3,0.2,0.4,0.3,0.4,0.7c0,1.8,0,3.7,0,5.5v3.1h0.3c0.3,0,0.5,0.1,0.7,0.1s0.4,0,0.5-0.2
		c0.2-0.2,0.2-0.5,0.2-1c0-0.8,0-1.6,0-2.5v-1.8c0-0.7,0-1.4,0-2.1v-0.5h0.9v8h1.7v-3.1c0-1.8,0-3.6,0-5.4c0-0.4,0.1-0.5,0.4-0.7
		c1.2-0.7,2.4-1.3,3.5-2l1-0.6c0.2-0.1,0.3-0.2,0.5-0.3l0.5-0.3L46.5,27.9z M11.6,17.2c0-0.1,0.1-0.3,0.2-0.3
		c2.8-1.6,5.5-3.2,8.3-4.8c0,0,0.1,0,0.2,0s0.1,0,0.2,0c3.1,1.7,5.8,3.3,8.3,4.8c0.1,0,0.2,0.3,0.2,0.5c0,1.2,0,2.3,0,3.5v1.2
		c0,0.4,0,0.8,0,1.3c0,1.1,0,2.2,0,3.3c0,0.3-0.1,0.5-0.3,0.6c-2.6,1.5-5.3,3.1-8,4.7c-0.3,0.2-0.4,0.2-0.7,0
		c-1.6-1-3.3-1.9-4.9-2.9l-1.2-0.7c-0.2-0.1-0.4-0.2-0.6-0.4c-0.4-0.2-0.9-0.5-1.3-0.8c-0.1-0.1-0.2-0.3-0.2-0.4
		C11.6,23.7,11.6,20.5,11.6,17.2z"/>
	<polygon class="st1" points="21.5,15.4 20.5,13.9 13,18.2 13.9,19.7 	"/>
</g>
</svg>
