<?xml version="1.0" encoding="utf-8"?>
<!-- Generator: Adobe Illustrator 21.1.0, SVG Export Plug-In . SVG Version: 6.00 Build 0)  -->
<svg version="1.1" id="Слой_1" xmlns="http://www.w3.org/2000/svg" xmlns:xlink="http://www.w3.org/1999/xlink" x="0px" y="0px"
	 viewBox="0 0 50 50" style="enable-background:new 0 0 50 50;" xml:space="preserve">
<style type="text/css">
	.st0{fill:#BCBEC0;}
</style>
<g>
	<path class="st0" d="M4.5,8.1H3v38.1C3,46.7,3.3,47,3.7,47h24.9v-1.5H4.5V8.1z"/>
	<path class="st0" d="M7.4,4.5h22.7v5.9c0,0.4,0.3,0.7,0.7,0.7h5.9v2.2h1.5v-2.9c0-0.1,0-0.1-0.1-0.2V10C38.1,10,38.1,9.9,38,9.8
		l-6.6-6.6c-0.1-0.1-0.1-0.1-0.2-0.1h-0.1C31,3.1,30.9,3,30.9,3H6.7C6.2,3,5.9,3.3,5.9,3.7v39.6c0,0.4,0.3,0.7,0.7,0.7h24.9v-1.5
		H7.4V4.5z M35.7,9.6h-4.1V5.5L35.7,9.6z"/>
	<rect x="19.9" y="22.8" class="st0" width="1.5" height="1.5"/>
	<rect x="16.9" y="22.8" class="st0" width="1.5" height="1.5"/>
	<rect x="14" y="22.8" class="st0" width="1.5" height="1.5"/>
	<rect x="11.1" y="22.8" class="st0" width="1.5" height="1.5"/>
	<rect x="22.8" y="22.8" class="st0" width="1.5" height="1.5"/>
	<rect x="9.6" y="6.7" class="st0" width="1.5" height="1.5"/>
	<rect x="12.5" y="6.7" class="st0" width="1.5" height="1.5"/>
	<rect x="12.5" y="9.6" class="st0" width="1.5" height="1.5"/>
	<rect x="9.6" y="9.6" class="st0" width="1.5" height="1.5"/>
	<rect x="15.5" y="6.7" class="st0" width="5.9" height="1.5"/>
	<rect x="15.5" y="9.6" class="st0" width="5.9" height="1.5"/>
	<rect x="9.6" y="14.7" class="st0" width="19.1" height="1.5"/>
	<rect x="9.6" y="18.4" class="st0" width="24.9" height="1.5"/>
	<rect x="9.6" y="27.2" class="st0" width="24.9" height="1.5"/>
	<rect x="9.6" y="30.9" class="st0" width="24.9" height="1.5"/>
	<rect x="9.6" y="34.5" class="st0" width="16.1" height="1.5"/>
	<rect x="27.2" y="34.5" class="st0" width="1.5" height="1.5"/>
	<rect x="30.1" y="34.5" class="st0" width="1.5" height="1.5"/>
	<rect x="33.1" y="34.5" class="st0" width="1.5" height="1.5"/>
	<path class="st0" d="M44.1,27.2c-1.4,0-2.5,1-2.9,2.2h-3v-5.1h4.4c0.4,0,0.7-0.3,0.7-0.7V11.7c1.2-0.3,2.2-1.5,2.2-2.9
		c0-1.6-1.3-2.9-2.9-2.9c-1.6,0-2.9,1.3-2.9,2.9c0,1.4,1,2.5,2.2,2.9v11.1H25.7v1.5h11v14c-1.2,0.3-2.2,1.5-2.2,2.9
		c0,1.6,1.3,2.9,2.9,2.9c1.6,0,2.9-1.3,2.9-2.9c0-1.4-1-2.5-2.2-2.9v-7.4h3c0.3,1.2,1.5,2.2,2.9,2.2c1.6,0,2.9-1.3,2.9-2.9
		C47,28.5,45.7,27.2,44.1,27.2 M41.1,8.9c0-0.8,0.7-1.5,1.5-1.5c0.8,0,1.5,0.7,1.5,1.5c0,0.8-0.7,1.5-1.5,1.5
		C41.8,10.3,41.1,9.7,41.1,8.9 M38.9,41.1c0,0.8-0.7,1.5-1.5,1.5c-0.8,0-1.5-0.7-1.5-1.5c0-0.8,0.7-1.5,1.5-1.5
		C38.3,39.7,38.9,40.3,38.9,41.1 M44.1,31.6c-0.8,0-1.5-0.7-1.5-1.5c0-0.8,0.7-1.5,1.5-1.5c0.8,0,1.5,0.7,1.5,1.5
		C45.5,30.9,44.9,31.6,44.1,31.6"/>
	<rect x="9.6" y="38.2" class="st0" width="8.8" height="1.5"/>
</g>
</svg>
