<?xml version="1.0" encoding="utf-8"?>
<!-- Generator: Adobe Illustrator 21.1.0, SVG Export Plug-In . SVG Version: 6.00 Build 0)  -->
<svg version="1.1" id="Слой_1" xmlns="http://www.w3.org/2000/svg" xmlns:xlink="http://www.w3.org/1999/xlink" x="0px" y="0px"
	 viewBox="0 0 50 50" style="enable-background:new 0 0 50 50;" xml:space="preserve">
<style type="text/css">
	.st0{fill:#BCBEC0;}
</style>
<path class="st0" d="M47.7,15.8V3H33.5v6L29.9,11c-2.5-4-6.9-6.6-12-6.6C10,4.4,3.7,10.8,3.7,18.6c0,5.4,3.1,10.2,7.6,12.6l-1,3.1
	H3.7V47h14.2V34.2h-6.1l0.8-2.5c1.6,0.7,3.4,1,5.3,1c2.5,0,4.9-0.7,6.9-1.8L31,41.3h2.5V47h14.2V34.2H33.5v5.7h-1.7L26,30.3
	c3.7-2.6,6.1-6.8,6.1-11.6c0-2.3-0.6-4.4-1.5-6.3l2.9-1.7v5.2H47.7z M34.9,4.4h11.4v9.9H34.9V4.4z M34.9,35.6h11.4v9.9H34.9V35.6z
	 M16.5,45.6H5.1v-9.9h11.4V45.6z M11.7,29.8c-4-2.2-6.6-6.4-6.6-11.2c0-7,5.7-12.8,12.8-12.8c4.5,0,8.5,2.4,10.8,5.9l-4.2,2.4
	l-4.8-4.8c-0.4-0.5-1.1-0.7-1.7-0.7h0c-0.6,0-1.3,0.3-1.7,0.7l-8.3,8.3c-0.4,0.4-0.6,1-0.6,1.6c0,1.2,0.9,2.2,2.1,2.2v5.7h3.3
	L11.7,29.8z M15,21.5v4.3h-4.3V21c0.1-0.1,0.2-0.1,0.2-0.2l6.2-6.2c0.4-0.4,1-0.4,1.4,0l6.2,6.2c0.1,0.1,0.2,0.1,0.2,0.2v4.7h-4.3
	v-4.3H15z M19.3,25.7h-2.8v-2.8h2.8V25.7z M19.6,13.6c-0.9-0.9-2.5-0.9-3.4,0L10,19.8C9.9,19.9,9.6,20,9.4,20
	c-0.4,0-0.8-0.4-0.8-0.8c0-0.2,0.1-0.4,0.2-0.6l8.3-8.3c0.2-0.2,0.4-0.3,0.7-0.3h0c0.3,0,0.5,0.1,0.7,0.3l8.3,8.3
	c0.1,0.1,0.2,0.4,0.2,0.6c0,0.4-0.4,0.8-0.8,0.8c-0.2,0-0.4-0.1-0.6-0.2L19.6,13.6z M17.9,31.4c-1.7,0-3.4-0.3-4.8-1l1.1-3.3H15h5.7
	h1.7l1.6,2.7C22.2,30.8,20.1,31.4,17.9,31.4 M30.6,18.6c0,4.3-2.1,8.1-5.4,10.4l-1.1-1.9h2.3v-5.7c1.2,0,2.1-1,2.1-2.2
	c0-0.6-0.2-1.1-0.6-1.6l-2.5-2.5l3.9-2.2C30.2,14.7,30.6,16.6,30.6,18.6"/>
</svg>
