<?xml version="1.0" encoding="utf-8"?>
<!-- Generator: Adobe Illustrator 21.1.0, SVG Export Plug-In . SVG Version: 6.00 Build 0)  -->
<svg version="1.1" id="Слой_1" xmlns="http://www.w3.org/2000/svg" xmlns:xlink="http://www.w3.org/1999/xlink" x="0px" y="0px"
	 viewBox="0 0 50 50" style="enable-background:new 0 0 50 50;" xml:space="preserve">
<style type="text/css">
	.st0{fill:#BCBEC0;}
</style>
<path class="st0" d="M46.3,3H3.7C3.3,3,3,3.3,3,3.7v42.6C3,46.7,3.3,47,3.7,47h42.6c0.4,0,0.7-0.3,0.7-0.7V3.7C47,3.3,46.7,3,46.3,3
	 M45.6,45.6H4.4V4.4h41.2V45.6z"/>
<path class="st0" d="M43.3,13.3V7.4c0-0.4-0.3-0.7-0.7-0.7h-8.5H25h-9.2H7.4C7,6.7,6.7,7.1,6.7,7.4v8.2v9v6.5
	c-1.1,0.3-1.8,1.3-1.8,2.5c0,1.2,0.8,2.2,1.8,2.5v6.5c0,0.4,0.3,0.7,0.7,0.7h8.4H25h9.2h8.5c0.4,0,0.7-0.3,0.7-0.7v-9v-9V18
	c0.9-0.4,1.5-1.3,1.5-2.3C44.8,14.6,44.2,13.7,43.3,13.3 M34.9,8.1h7.1v5c-1,0.1-1.8,0.9-2.1,1.8h-5V8.1z M34.9,16.4h5
	c0.1,0.2,0.2,0.4,0.3,0.6l-4.8,5.3c-0.1-0.1-0.3-0.1-0.4-0.2V16.4z M25.7,8.1h7.8V15h-7.8V8.1z M25.7,16.4h7.8v5.8
	c-0.8,0.2-1.5,0.9-1.7,1.8h-6.1V16.4z M25.7,25.3h6.1c0,0.2,0.1,0.3,0.2,0.5l-5.7,5.5c-0.2-0.1-0.4-0.2-0.6-0.3V25.3z M16.5,8.1h7.8
	V15h-7.8V8.1z M16.5,16.4h7.8v7.6h-6.1c-0.2-0.9-0.9-1.5-1.7-1.8V16.4z M18,25.8c0.1-0.2,0.2-0.3,0.2-0.5h6.1v5.8
	c-0.2,0.1-0.4,0.1-0.6,0.3L18,25.8z M22.8,32.4c-0.1,0.2-0.2,0.3-0.2,0.5h-6.1v-5.8c0.2-0.1,0.4-0.1,0.6-0.3L22.8,32.4z M8.1,8.1
	h7.1V15H8.1V8.1z M8.1,16.4h7.1v5.8c-0.8,0.2-1.5,0.9-1.7,1.8H8.1V16.4z M8.1,25.3h5.3c0.1,0.2,0.2,0.4,0.3,0.6l-4.9,5.5
	c-0.2-0.1-0.4-0.2-0.7-0.3V25.3z M6.2,33.6c0-0.6,0.5-1.2,1.1-1.2c0.3,0,0.7,0.2,0.9,0.4c0.2,0.2,0.3,0.5,0.3,0.7
	c0,0.6-0.5,1.2-1.1,1.2S6.2,34.2,6.2,33.6 M15.1,41.9H8.1v-5.8c0.8-0.2,1.5-0.9,1.7-1.8h5.3V41.9z M15.1,32.9H9.8
	c0-0.1-0.1-0.3-0.2-0.4l5-5.6c0.1,0.1,0.3,0.1,0.4,0.2V32.9z M15,25.5L15,25.5c-0.2-0.2-0.4-0.5-0.4-0.9c0-0.6,0.5-1.2,1.1-1.2
	c0.6,0,1.2,0.5,1.2,1.2c0,0.3-0.1,0.6-0.3,0.8c-0.2,0.2-0.5,0.4-0.8,0.4C15.5,25.8,15.3,25.7,15,25.5 M24.3,41.9h-7.8v-7.6h6.1
	c0.2,0.9,0.9,1.5,1.7,1.8V41.9z M23.8,33.6c0-0.3,0.1-0.6,0.3-0.8c0.2-0.2,0.5-0.4,0.8-0.4c0.3,0,0.6,0.1,0.8,0.4
	c0.2,0.2,0.3,0.5,0.3,0.8c0,0.6-0.5,1.2-1.1,1.2C24.4,34.8,23.8,34.2,23.8,33.6 M33.5,41.9h-7.8v-5.8c0.8-0.2,1.5-0.9,1.7-1.8h6.1
	V41.9z M33.5,32.9h-6.1c0-0.2-0.1-0.3-0.2-0.5l5.7-5.5c0.2,0.1,0.4,0.2,0.6,0.3V32.9z M33.4,25.4L33.4,25.4
	c-0.2-0.2-0.3-0.5-0.3-0.8c0-0.6,0.5-1.2,1.1-1.2c0.3,0,0.6,0.1,0.8,0.3l0,0c0.2,0.2,0.4,0.5,0.4,0.9c0,0.6-0.5,1.2-1.1,1.2
	C33.9,25.8,33.6,25.7,33.4,25.4 M41.9,41.9h-7.1v-7.6h7.1V41.9z M41.9,32.9h-7.1v-5.8c0.8-0.2,1.5-0.9,1.7-1.8h5.3V32.9z M41.9,23.9
	h-5.3c-0.1-0.2-0.2-0.4-0.3-0.6l4.8-5.3c0.3,0.1,0.5,0.2,0.8,0.3V23.9z M42.5,16.8L42.5,16.8c-0.1,0-0.2,0-0.2,0
	c-0.3,0-0.6-0.1-0.8-0.3h0c-0.2-0.2-0.4-0.5-0.4-0.9c0-0.6,0.5-1.2,1.1-1.2c0.1,0,0.2,0,0.2,0c0,0,0,0,0,0c0.5,0.1,0.9,0.6,0.9,1.1
	C43.4,16.2,43,16.7,42.5,16.8"/>
</svg>
