<?xml version="1.0" encoding="utf-8"?>
<!-- Generator: Adobe Illustrator 21.1.0, SVG Export Plug-In . SVG Version: 6.00 Build 0)  -->
<svg version="1.1" id="Слой_1" xmlns="http://www.w3.org/2000/svg" xmlns:xlink="http://www.w3.org/1999/xlink" x="0px" y="0px"
	 viewBox="0 0 50 50" style="enable-background:new 0 0 50 50;" xml:space="preserve">
<style type="text/css">
	.st0{fill:#BCBEC0;}
</style>
<g>
	<path class="st0" d="M44.7,5.4H5.3C4,5.4,3,6.4,3,7.7V36c0,1.3,1,2.3,2.3,2.3h14.9l-0.6,4.8h-2.5c-0.4,0-0.7,0.3-0.7,0.7
		c0,0.4,0.3,0.7,0.7,0.7h15.7c0.4,0,0.7-0.3,0.7-0.7c0-0.4-0.3-0.7-0.7-0.7h-2.5l-0.6-4.8h14.9c1.3,0,2.3-1,2.3-2.3V7.7
		C47,6.4,46,5.4,44.7,5.4 M21.1,43.2l0.6-4.8h6.6l0.6,4.8H21.1z M45.5,36c0,0.5-0.4,0.8-0.8,0.8H5.3c-0.5,0-0.8-0.4-0.8-0.8V7.7
		c0-0.5,0.4-0.8,0.8-0.8h39.4c0.5,0,0.8,0.4,0.8,0.8V36z"/>
	<path class="st0" d="M37.6,8.5H6.9c-0.4,0-0.7,0.3-0.7,0.7v24.4c0,0.4,0.3,0.7,0.7,0.7h2.4c0.4,0,0.7-0.3,0.7-0.7
		c0-0.4-0.3-0.7-0.7-0.7H7.6V10h30c0.4,0,0.7-0.3,0.7-0.7C38.3,8.8,38,8.5,37.6,8.5"/>
	<path class="st0" d="M43.1,8.5h-2.4c-0.4,0-0.7,0.3-0.7,0.7c0,0.4,0.3,0.7,0.7,0.7h1.6v22.9h-30c-0.4,0-0.7,0.3-0.7,0.7
		c0,0.4,0.3,0.7,0.7,0.7h30.7c0.4,0,0.7-0.3,0.7-0.7V9.3C43.8,8.8,43.5,8.5,43.1,8.5"/>
	<path class="st0" d="M38.4,12.5c-1.3,0-2.3,1-2.3,2.3c0,0.4,0.1,0.8,0.3,1.1l-5.9,6.3c-0.3-0.1-0.6-0.2-1-0.2
		c-0.6,0-1.2,0.2-1.6,0.6l-5.1-2.7c0-0.1,0-0.2,0-0.4c0-1.3-1-2.3-2.3-2.3c-1.3,0-2.3,1-2.3,2.3c0,0.4,0.1,0.7,0.2,1l-5.8,5.6
		c-0.3-0.2-0.7-0.3-1.1-0.3c-1.3,0-2.3,1-2.3,2.3c0,1.3,1,2.3,2.3,2.3c1.3,0,2.3-1,2.3-2.3c0-0.4-0.1-0.7-0.2-1l5.8-5.6
		c0.3,0.2,0.7,0.3,1.1,0.3c0.6,0,1.2-0.2,1.6-0.6l5.1,2.7c0,0.1,0,0.2,0,0.4c0,1.3,1,2.3,2.3,2.3c1.3,0,2.3-1,2.3-2.3
		c0-0.4-0.1-0.8-0.3-1.1l5.9-6.3c0.3,0.1,0.6,0.2,1,0.2c1.3,0,2.3-1,2.3-2.3C40.7,13.5,39.7,12.5,38.4,12.5 M11.6,29
		c-0.5,0-0.8-0.4-0.8-0.8c0-0.5,0.4-0.8,0.8-0.8c0.5,0,0.8,0.4,0.8,0.8C12.4,28.6,12.1,29,11.6,29 M20.5,20.3
		c-0.5,0-0.8-0.4-0.8-0.8c0-0.5,0.4-0.8,0.8-0.8c0.5,0,0.8,0.4,0.8,0.8C21.4,20,21,20.3,20.5,20.3 M29.5,25c-0.5,0-0.8-0.4-0.8-0.8
		c0-0.5,0.4-0.8,0.8-0.8c0.5,0,0.8,0.4,0.8,0.8C30.3,24.7,29.9,25,29.5,25 M38.4,15.6c-0.5,0-0.8-0.4-0.8-0.8c0-0.5,0.4-0.8,0.8-0.8
		c0.5,0,0.8,0.4,0.8,0.8C39.2,15.2,38.8,15.6,38.4,15.6"/>
	<path class="st0" d="M38.4,18.7c-0.4,0-0.7,0.3-0.7,0.7v11c0,0.4,0.3,0.7,0.7,0.7c0.4,0,0.7-0.3,0.7-0.7v-11
		C39.1,19.1,38.8,18.7,38.4,18.7"/>
	<path class="st0" d="M20.5,23.5c-0.4,0-0.7,0.3-0.7,0.7v6.3c0,0.4,0.3,0.7,0.7,0.7c0.4,0,0.7-0.3,0.7-0.7v-6.3
		C21.3,23.8,20.9,23.5,20.5,23.5"/>
	<path class="st0" d="M29.5,28.2c-0.4,0-0.7,0.3-0.7,0.7v1.6c0,0.4,0.3,0.7,0.7,0.7c0.4,0,0.7-0.3,0.7-0.7v-1.6
		C30.2,28.5,29.9,28.2,29.5,28.2"/>
</g>
</svg>
