<?xml version="1.0" encoding="utf-8"?>
<!-- Generator: Adobe Illustrator 21.1.0, SVG Export Plug-In . SVG Version: 6.00 Build 0)  -->
<svg version="1.1" id="Слой_1" xmlns="http://www.w3.org/2000/svg" xmlns:xlink="http://www.w3.org/1999/xlink" x="0px" y="0px"
	 viewBox="0 0 50 50" style="enable-background:new 0 0 50 50;" xml:space="preserve">
<style type="text/css">
	.st0{fill:#A4CF27;}
	.st1{fill:#FFFFFF;}
</style>
<circle class="st0" cx="25" cy="25" r="25"/>
<path class="st1" d="M17.7,22.6c-0.5,2.4-0.6,4.7-0.2,7c0.3,2.2,0.8,4.5,1.2,6.8c-1.1-0.6-2.2-1.2-3.3-1.8c-2.8-1.8-4.9-4.2-5.8-7.5
	c-0.8-2.9-0.5-5.8,0.6-8.6c0.8-2.2,2-4,4-5.4c0.6-0.4,1.2-0.9,1.7-1.5c1-1.2,2.1-2.4,3.1-3.6c0.1-0.1,0.1-0.1,0.2-0.2
	c3.2,2.2,5.9,4.9,7.4,8.6s1.3,7.5,0.2,11.3c0.1-0.1,0.2-0.1,0.2-0.1c1.6-1.1,3.3-1.7,5.2-2c2-0.3,4.1-0.7,6-1.6
	c0.7-0.3,1.3-0.7,2.1-1.1c-0.1,0.6-0.1,1.2-0.2,1.8c-0.4,3.2-1.3,6.3-3.1,9c-2.6,4.1-6.4,5.9-11.2,5.6c-0.3,0-0.7-0.1-1-0.1
	s-0.7-0.1-1.1-0.1c0.6,0.7,1.2,1.4,1.9,2.2c-0.4,0.4-0.8,0.9-1.2,1.4c-0.1-0.1-0.2-0.2-0.3-0.2c-1.6-1.7-2.8-3.7-3.7-5.8
	c-1.9-4.3-2.6-8.8-2.7-13.5c0-0.1,0-0.2,0-0.3C17.8,22.8,17.8,22.8,17.7,22.6z M34.3,29.3c-2.1,3.6-5.4,5.8-8.9,8
	c0.1,0,0.2,0.1,0.2,0.1c3.3,0.3,6.2-0.5,8.5-3c1.6-1.7,2.6-3.8,3.3-6.1c0.2-0.7,0.4-1.4,0.5-2.1c-0.2,0-0.2,0-0.3,0
	c-1.8,0.6-3.6,0.9-5.5,1.2c-3,0.5-5.4,2-6.9,4.7c-0.8,1.3-1.3,2.6-1.6,4.2C27.7,34.5,31.5,32.7,34.3,29.3z"/>
</svg>
