<?xml version="1.0" encoding="utf-8"?>
<!-- Generator: Adobe Illustrator 21.1.0, SVG Export Plug-In . SVG Version: 6.00 Build 0)  -->
<svg version="1.1" id="Слой_1" xmlns="http://www.w3.org/2000/svg" xmlns:xlink="http://www.w3.org/1999/xlink" x="0px" y="0px"
	 viewBox="0 0 50 50" style="enable-background:new 0 0 50 50;" xml:space="preserve">
<style type="text/css">
	.st0{fill:#275B4D;}
	.st1{fill:#FFFFFF;}
</style>
<circle class="st0" cx="25" cy="25" r="25"/>
<path class="st1" d="M45.2,19.2c0-0.1,0-0.3-0.1-0.4c-0.1-0.3-0.2-0.4-0.2-0.5c-0.1-0.2-0.2-0.4-0.4-0.6l-0.4-0.5L44.1,17
	c-0.2-0.1-0.3-0.3-0.4-0.3l-0.2-0.1c-0.3-0.2-0.4-0.3-0.6-0.4c-0.4-0.2-0.7-0.4-1-0.4c-0.5-0.2-1-0.3-1.4-0.4
	c-0.4-0.1-0.8-0.1-1.4-0.1c-0.3,0-0.5,0-0.7,0c-0.4,0.1-0.9,0.1-1.3,0.2c-0.4,0.1-0.8,0.3-1.2,0.4c-0.3,0.1-0.7,0.3-1.2,0.6
	c-0.2,0.1-0.3,0.2-0.4,0.3c-0.1-0.2-0.1-0.4-0.2-0.4c-0.2-0.4-0.4-0.8-0.4-1c-0.5-0.9-1-1.6-1.4-2.1c-0.5-0.7-1.2-1.4-1.8-2
	c-0.6-0.6-1.3-1.3-2.1-1.8c-0.5-0.4-1.2-0.9-1.9-1.3c-0.7-0.4-1.4-0.7-2.1-1c-0.7-0.3-1.4-0.4-2.2-0.6c-0.7-0.2-1.5-0.3-2.3-0.3
	c-0.7,0-1.5,0-2.4,0.1c-0.8,0.1-1.6,0.3-2.2,0.4c-0.9,0.2-1.7,0.4-2.4,0.8c-0.8,0.4-1.5,0.7-2.3,1.2C10,8.8,9.2,9.3,8.3,10
	c-0.2,0.1-0.4,0.3-0.6,0.5c-0.7,0.7-1.2,1.2-1.4,1.4C6,12.3,5.8,12.7,5.5,13c-0.2,0.3-0.4,0.5-0.4,0.9c-0.1,0.2-0.2,0.4-0.2,0.4
	c-0.1,0.2-0.1,0.4-0.1,0.5c0,0.2,0,0.3,0,0.4s0,0.3,0.1,0.4c0,0.1,0.1,0.3,0.1,0.4C5,16.1,5,16.2,5.1,16.3c0.1,0.1,0.1,0.2,0.2,0.3
	c0.1,0.1,0.2,0.2,0.3,0.4c0.1,0.1,0.2,0.2,0.3,0.2c0.1,0.1,0.2,0.2,0.4,0.3l0-0.1c0.2,0.1,0.4,0.2,0.6,0.3c0.4,0.1,0.7,0.2,0.9,0.2
	c0.1,0,0.6,0.1,1.4,0.1c0.2,0,0.3,0,0.4,0h0.4l0.4-0.2l0.2-0.3V17L10.5,17l-0.7-0.4c-0.1,0-0.2-0.1-0.3-0.1H9.2c-0.2,0-0.4,0-0.6,0
	c-0.1,0-0.2,0-0.4-0.1c-0.1,0-0.2-0.1-0.3-0.1l-0.2-0.2l-0.2-0.3v-0.1c0-0.1,0-0.2,0-0.2c0-0.1,0-0.2,0-0.3c0-0.2,0.1-0.3,0.1-0.4
	c0.1-0.3,0.2-0.5,0.3-0.7c0.2-0.4,0.4-0.7,0.6-1c0.4-0.5,0.6-0.9,0.9-1.1c0.6-0.6,1.3-1.3,1.8-1.6c0.6-0.5,1.3-1,2-1.3
	c0.6-0.4,1.3-0.6,2.1-1c0.6-0.2,1.3-0.4,2.1-0.5c0.5-0.1,1.2-0.2,1.8-0.2c0.5,0,1.2,0,1.7,0.1c0.7,0.1,1.3,0.3,1.8,0.4
	c0.3,0.1,0.8,0.3,1.7,0.7c0.4,0.2,0.6,0.4,0.9,0.5c0.9,0.6,1.7,1.3,2.1,1.6c0.7,0.6,1.3,1.3,1.9,2c0.3,0.3,0.7,1,1.6,2.1
	c0.1,0.2,0.2,0.4,0.4,0.5c0.3,0.4,0.4,0.8,0.4,1c0.1,0.4,0.3,0.9,0.5,1.6l0.1,0.3c-0.7,0.7-1.3,1.3-1.7,1.8c-0.8,0.9-1.3,1.5-1.7,2
	l-0.4,0.4c-0.4,0.4-0.6,0.7-0.9,0.9c-0.1,0.2-0.2,0.3-0.3,0.3l-0.6,0.6c-0.1-0.3-0.2-0.4-0.3-0.6c-0.2-0.4-0.4-0.6-0.6-1
	c-0.3-0.4-0.5-0.6-0.7-0.8c-0.4-0.4-0.6-0.5-0.9-0.7c-0.2-0.1-0.7-0.4-1.1-0.6c-0.2-0.1-0.3-0.1-0.4-0.2c-0.7-0.2-1.3-0.4-1.5-0.4
	c-0.4-0.1-0.9-0.2-1.3-0.2c-0.4,0-0.8,0-1.3,0.1c-0.3,0.1-0.5,0.1-0.9,0.2c-0.3,0.1-0.5,0.2-0.8,0.3c-0.2,0.1-0.4,0.2-0.6,0.4
	c0,0-0.2,0.2-0.4,0.4l-0.2,0.2c-0.1,0.2-0.3,0.3-0.3,0.4L15.2,22c-0.1,0.2-0.3,0.4-0.4,0.6c-0.1,0.2-0.2,0.4-0.3,0.6
	c-0.1,0.2-0.1,0.4-0.1,0.5v0.2c0,0.2,0,0.4,0,0.8c0,0.3,0.1,0.5,0.1,0.8c0.1,0.3,0.2,0.6,0.2,0.8c0.1,0.3,0.2,0.5,0.4,0.8
	c0.2,0.3,0.4,0.5,0.5,0.7c0.2,0.3,0.4,0.4,0.6,0.7c0.2,0.2,0.4,0.4,0.6,0.4c0.2,0.1,0.4,0.2,0.6,0.4c0.1,0.1,0.3,0.2,0.4,0.2
	c0.6,0.2,1.2,0.4,1.3,0.4c0.4,0.1,0.9,0.1,1.3,0.1s0.8,0,1.3-0.1c0.4-0.1,0.8-0.2,1.2-0.3c0.4-0.2,0.9-0.4,1.3-0.5
	c0.3-0.1,0.5-0.3,1-0.5c0,0.1,0,0.2,0,0.2v0.1c-0.1,1.1-0.2,2.1-0.3,2.4c-0.2,0.8-0.4,1.5-0.6,2.2c-0.3,0.8-0.6,1.5-1,2.1
	c-0.4,0.7-0.8,1.3-1.3,2.1c-0.5,0.7-1.1,1.3-1.6,1.8c-0.5,0.5-1.2,1.1-2,1.6l-2.1,1.3l-0.6,0.4v0.4l0.2,0.1l0.4,0.2
	c0.3,0.1,0.4,0.2,0.6,0.2c0.1,0,0.3,0.1,0.4,0.1c0.1,0,0.2,0,0.2,0c0.1,0,0.1,0,0.2,0h0.1l1-0.5c1.7-1.1,1.7-1.2,1.7-1.2
	c0.7-0.5,1.4-1.2,2.1-1.9c0.6-0.6,1.3-1.3,1.8-2.1c0.5-0.7,1-1.4,1.3-2.2c0.4-0.7,0.7-1.5,1-2.4c0.2-0.5,0.4-1.4,0.5-2.5
	c0.1-0.3,0.1-0.6,0.1-0.9c0-0.8,0.1-1.3,0-1.8c0-0.4-0.1-0.8-0.2-1.5c1.1-1,1.8-1.7,2.2-2.1C30,24,31,23,32.5,21.3l0.6-0.6l0.1,0.1
	c0.6,0.6,1,1,1.1,1.1c0.4,0.3,0.8,0.6,1.3,0.9c0.4,0.3,0.9,0.5,1.3,0.7c0.4,0.2,0.9,0.4,1.4,0.4c0.4,0.1,0.8,0.2,1.3,0.2
	c0.3,0,0.6,0,1.1,0c0.3,0,0.5,0,0.9-0.1c0.3-0.1,0.5-0.1,0.7-0.2c0.3-0.1,0.4-0.2,0.6-0.3c0.3-0.1,0.4-0.3,0.6-0.4
	c0.2-0.2,0.4-0.3,0.5-0.5c0.2-0.2,0.3-0.4,0.4-0.5c0.1-0.2,0.2-0.4,0.4-0.6l0.2-0.5c0-0.2,0.1-0.3,0.1-0.3c0.1-0.2,0.1-0.4,0.1-0.6
	C45.2,19.6,45.2,19.5,45.2,19.2z M42.3,18.4c0.1,0.1,0.1,0.2,0.2,0.4c0.1,0.1,0.1,0.3,0.1,0.4v0.1c0,0.2,0.1,0.4,0.1,0.5
	c0,0.2,0,0.3,0,0.4c0,0.2,0,0.4-0.1,0.4l-0.1,0.2c0,0.1,0,0.2-0.1,0.2l-0.1,0.1c0,0.1-0.1,0.2-0.1,0.3c-0.1,0.1-0.1,0.2-0.2,0.4
	c0,0,0,0-0.1,0.1S41.8,22,41.7,22c-0.1,0.1-0.2,0.1-0.3,0.2s-0.2,0.1-0.3,0.1s-0.3,0.1-0.4,0.1c-0.2,0-0.4,0-0.4,0
	c-0.3,0-0.5,0-0.7-0.1c-0.4-0.1-0.7-0.2-1-0.3c-0.3-0.1-0.6-0.3-1-0.4c-0.3-0.2-0.5-0.3-0.8-0.5c-0.2-0.1-0.4-0.3-0.6-0.5
	c-0.1-0.1-0.2-0.2-0.3-0.3c-0.2-0.2-0.4-0.4-0.4-0.6s-0.2-0.4-0.4-0.7c0.3-0.2,0.4-0.4,0.5-0.4c0.6-0.4,1.2-0.8,1.5-1
	c0.1-0.1,0.4-0.3,1.1-0.5l0,0c0.1,0,0.2-0.1,0.3-0.1c0.2,0,0.4-0.1,0.5-0.1c0.2,0,0.4,0,0.6,0s0.4,0.1,0.6,0.1
	c0.2,0,0.4,0.1,0.4,0.2c0.2,0.1,0.4,0.2,0.4,0.3c0.2,0.1,0.3,0.2,0.4,0.3c0.2,0.1,0.3,0.2,0.3,0.3C42,18,42.1,18.1,42.3,18.4z
	 M17.9,28c-0.1-0.1-0.2-0.2-0.3-0.3c-0.1-0.1-0.2-0.3-0.3-0.4l-0.1-0.1c-0.1-0.1-0.2-0.3-0.2-0.4L17,26.8c-0.1-0.2-0.1-0.4-0.2-0.4
	c-0.1-0.2-0.1-0.4-0.1-0.5c-0.1-0.4-0.1-0.5-0.1-0.8c0-0.3,0-0.4,0.1-0.7c0.1-0.3,0.1-0.4,0.2-0.7c0.1-0.2,0.1-0.4,0.3-0.5
	c0.1-0.2,0.2-0.3,0.3-0.4c0.1-0.2,0.3-0.3,0.3-0.4c0.1-0.1,0.3-0.2,0.4-0.3c0.1,0,0.1-0.1,0.2-0.1l0.2-0.1c0.1-0.1,0.2-0.1,0.4-0.1
	h0.1c0.2-0.1,0.4-0.1,0.4-0.1c0.2,0,0.4,0,0.5,0c0,0,0.1,0,0.2,0c0.4,0.1,0.6,0.1,0.7,0.1c0.2,0,0.4,0.1,0.6,0.2
	c0.2,0.1,0.4,0.2,0.5,0.3c0.2,0.1,0.4,0.2,0.5,0.4c0.2,0.2,0.4,0.4,0.5,0.5c0.3,0.4,0.4,0.5,0.5,0.8c0.3,0.4,0.4,0.8,0.5,1.1
	c0.1,0.4,0.3,0.8,0.4,1.3c-0.5,0.4-1.1,0.7-1.3,1c-0.4,0.2-0.9,0.4-1.7,0.9c-0.1,0.1-0.3,0.1-0.4,0.2c-0.3,0.1-0.5,0.2-0.6,0.2h-0.2
	c-0.3,0-0.5,0.1-1,0c-0.1,0-0.3,0-0.4-0.1c-0.1,0-0.3-0.1-0.4-0.2C18.2,28.1,18,28.1,17.9,28z"/>
</svg>
