<?xml version="1.0" encoding="utf-8"?>
<!-- Generator: Adobe Illustrator 21.1.0, SVG Export Plug-In . SVG Version: 6.00 Build 0)  -->
<svg version="1.1" id="Слой_1" xmlns="http://www.w3.org/2000/svg" xmlns:xlink="http://www.w3.org/1999/xlink" x="0px" y="0px"
	 viewBox="0 0 50 50" style="enable-background:new 0 0 50 50;" xml:space="preserve">
<style type="text/css">
	.st0{fill:#58595B;}
</style>
<g>
	<path class="st0" d="M38.9,19.9c0-0.1-0.1-0.2-0.2-0.4c-0.1-0.1-0.2-0.2-0.2-0.3c-0.1-0.1-0.2-0.2-0.3-0.3
		c-0.1-0.1-0.2-0.2-0.3-0.3c-0.1-0.1-0.3-0.1-0.4-0.2c-0.2-0.1-0.3-0.1-0.5-0.1s-0.3-0.1-0.5-0.1s-0.4,0-0.5,0s-0.3,0-0.5,0.1
		c-0.1,0-0.2,0.1-0.3,0.1c-0.5,0.2-0.8,0.4-0.9,0.4c-0.3,0.2-0.7,0.5-1.2,0.8c-0.1,0.1-0.4,0.3-0.6,0.5c0.2,0.4,0.3,0.7,0.4,0.8
		c0.1,0.1,0.2,0.3,0.4,0.5c0.1,0.1,0.2,0.2,0.3,0.3c0.2,0.2,0.4,0.3,0.5,0.4c0.2,0.2,0.4,0.3,0.6,0.4c0.3,0.1,0.6,0.3,0.8,0.3
		c0.3,0.1,0.5,0.1,0.8,0.2c0.2,0,0.4,0,0.6,0c0.1,0,0.3,0,0.5,0c0.1,0,0.3,0,0.4-0.1c0.1,0,0.2-0.1,0.3-0.1c0.1-0.1,0.2-0.1,0.3-0.2
		c0.1,0,0.1-0.1,0.2-0.2c0.1,0,0.1-0.1,0.1-0.1c0.1-0.1,0.1-0.2,0.2-0.3s0.1-0.2,0.1-0.3c0-0.1,0.1-0.2,0.1-0.4c0-0.1,0-0.3,0.1-0.4
		c0-0.1,0-0.3,0-0.4c0-0.2,0-0.3-0.1-0.5C39,20.2,39,20.1,38.9,19.9z"/>
	<path class="st0" d="M24.1,23.9c-0.1-0.2-0.3-0.4-0.5-0.7c-0.1-0.2-0.3-0.3-0.5-0.5c-0.2-0.1-0.3-0.3-0.5-0.4
		c-0.1-0.1-0.3-0.2-0.5-0.3c-0.2-0.1-0.4-0.1-0.5-0.2c0,0-0.2,0-0.6-0.1c-0.1,0-0.1,0-0.2,0c-0.2,0-0.4,0-0.5,0s-0.2,0-0.4,0.1
		c-0.1,0-0.2,0.1-0.4,0.1c-0.1,0.1-0.3,0.1-0.3,0.2c-0.1,0.1-0.2,0.2-0.3,0.3c-0.1,0.1-0.2,0.2-0.3,0.3c-0.1,0.1-0.2,0.2-0.2,0.4
		c-0.1,0.1-0.1,0.3-0.2,0.5S18.1,24,18,24.2c0,0.2-0.1,0.4-0.1,0.6s0,0.4,0.1,0.7c0,0.2,0.1,0.3,0.1,0.5s0.1,0.3,0.2,0.5
		c0.1,0.1,0.2,0.3,0.2,0.4c0.1,0.1,0.1,0.2,0.3,0.3c0.1,0.1,0.2,0.2,0.3,0.3c0.1,0.1,0.2,0.1,0.3,0.2c0.1,0.1,0.2,0.1,0.4,0.1
		c0.1,0,0.3,0.1,0.4,0.1s0.3,0,0.4,0c0.2,0,0.4,0,0.5,0c0.2,0,0.4-0.1,0.6-0.1s0.3-0.1,0.4-0.2c0.6-0.3,1.1-0.5,1.4-0.7
		s0.7-0.5,1.3-0.9c-0.2-0.6-0.3-1-0.4-1.3C24.4,24.6,24.3,24.3,24.1,23.9z"/>
	<path class="st0" d="M25,0C11.2,0,0,11.2,0,25s11.2,25,25,25s25-11.2,25-25S38.8,0,25,0z M40.4,21.4c0,0.1-0.1,0.2-0.1,0.5V22
		c-0.1,0.2-0.2,0.4-0.2,0.5c-0.1,0.2-0.2,0.3-0.3,0.4s-0.2,0.3-0.4,0.4c-0.1,0.1-0.3,0.2-0.4,0.3c-0.1,0.1-0.3,0.2-0.5,0.2
		c-0.2,0.1-0.3,0.1-0.5,0.1C37.7,24,37.5,24,37.4,24c-0.3,0-0.6,0-0.8,0c-0.4,0-0.7-0.1-0.9-0.2c-0.3-0.1-0.7-0.2-1-0.4
		c-0.4-0.1-0.7-0.3-1-0.5c-0.4-0.2-0.7-0.5-1-0.7c0,0-0.3-0.3-0.8-0.8l-0.3-0.3l-0.8,0.8c-1.1,1.2-2,2.1-2.5,2.7
		c-0.4,0.4-1,1-1.9,1.8c0.1,0.6,0.1,1,0.1,1.3s0,0.8,0,1.4c0,0.3,0,0.5-0.1,0.7c-0.2,0.9-0.3,1.6-0.4,1.9c-0.2,0.6-0.4,1.2-0.7,1.8
		c-0.3,0.6-0.6,1.2-1,1.7c-0.4,0.6-0.9,1.1-1.3,1.6c-0.5,0.5-1,1-1.6,1.4c0,0-0.6,0.4-1.9,1.2l0,0h-0.1h-0.1c0,0-0.1,0-0.2,0
		s-0.2,0-0.3,0c-0.1,0-0.3-0.1-0.5-0.1c0,0-0.1,0-0.2-0.1l0,0l0,0l1.6-1.1c0.6-0.4,1.1-0.9,1.6-1.3c0.5-0.5,0.9-0.9,1.3-1.5
		c0.4-0.5,0.7-1,1.1-1.6c0.3-0.5,0.5-1.1,0.8-1.7c0.2-0.6,0.4-1.2,0.5-1.8c0-0.2,0.1-0.9,0.2-1.9c0,0,0-0.1,0-0.3v-0.6
		c-0.5,0.3-0.9,0.6-1.2,0.7c-0.3,0.1-0.6,0.3-0.9,0.4s-0.6,0.2-0.9,0.2c-0.3,0.1-0.6,0.1-0.9,0.1s-0.6,0-1-0.1c-0.1,0-0.5-0.1-1-0.3
		c-0.1,0-0.1,0-0.2-0.1c-0.2-0.1-0.4-0.2-0.5-0.3c-0.2-0.1-0.3-0.2-0.5-0.3c-0.2-0.2-0.3-0.3-0.5-0.5c-0.1-0.2-0.3-0.3-0.4-0.5
		S17,26.3,17,26.1c-0.1-0.2-0.1-0.4-0.2-0.6c0-0.2-0.1-0.4-0.1-0.6s0-0.4,0-0.5c0-0.2,0.1-0.4,0.1-0.5c0.1-0.2,0.1-0.4,0.2-0.5
		c0.1-0.2,0.2-0.3,0.3-0.5c0.1-0.1,0.2-0.2,0.4-0.4l0.1-0.1c0.2-0.2,0.4-0.3,0.4-0.3c0.1-0.1,0.3-0.2,0.4-0.3
		c0.2-0.1,0.4-0.1,0.5-0.2c0.2-0.1,0.5-0.1,0.7-0.1c0.3,0,0.7,0,1,0c0.4,0,0.7,0,1,0.1c0.2,0,0.6,0.1,1.1,0.3c0.1,0,0.2,0.1,0.3,0.1
		c0.4,0.2,0.7,0.4,0.8,0.4c0.2,0.1,0.5,0.3,0.7,0.5s0.4,0.4,0.5,0.6c0.2,0.2,0.4,0.5,0.5,0.7s0.3,0.5,0.4,0.9l0.9-0.8
		c0,0,0.1-0.1,0.2-0.2c0.2-0.2,0.6-0.6,1-1.1c0.3-0.3,0.8-0.8,1.4-1.5c0.4-0.4,0.9-0.9,1.5-1.5L31,19.6c-0.2-0.5-0.3-1-0.4-1.2
		s-0.2-0.5-0.4-0.8c-0.1-0.2-0.2-0.3-0.3-0.5c-0.6-0.9-1.1-1.5-1.3-1.7c-0.4-0.5-0.9-1-1.5-1.6c-0.3-0.3-0.9-0.7-1.7-1.3
		c-0.2-0.1-0.4-0.3-0.7-0.4c-0.6-0.3-1.1-0.5-1.4-0.6c-0.5-0.2-0.9-0.3-1.5-0.4C21.3,11,20.9,11,20.4,11s-1,0-1.5,0.1
		c-0.6,0.1-1.2,0.2-1.7,0.4c-0.6,0.2-1.2,0.5-1.7,0.8c-0.6,0.3-1.1,0.6-1.6,1c-0.4,0.3-0.9,0.8-1.4,1.3c-0.2,0.2-0.5,0.5-0.7,0.9
		c-0.2,0.2-0.3,0.5-0.5,0.9c-0.1,0.1-0.1,0.3-0.2,0.6c0,0.1-0.1,0.2-0.1,0.4c0,0.1,0,0.2,0,0.3c0,0,0,0.1,0,0.2V18l0.1,0.3l0.1,0.1
		l0.1,0.1c0.1,0,0.1,0.1,0.2,0.1c0.1,0,0.1,0.1,0.2,0.1c0.1,0,0.3,0.1,0.3,0.1c0.2,0,0.4,0,0.5,0h0.2c0.1,0,0.2,0,0.3,0.1l0.2,0.1
		h0.1l0,0l0,0l0,0l0,0l0,0l0,0l0,0h-0.1h-0.1h-0.3c-0.1,0-0.2,0-0.3,0c-0.7,0-1-0.1-1.1-0.1c-0.2,0-0.4-0.1-0.7-0.2
		c-0.1,0-0.3-0.1-0.4-0.2c0,0-0.1-0.1-0.3-0.2c0,0-0.1-0.1-0.2-0.1c-0.1-0.1-0.1-0.1-0.2-0.2c0-0.1-0.1-0.1-0.1-0.2
		s-0.1-0.1-0.1-0.2s-0.1-0.2-0.1-0.2c0-0.1,0-0.2,0-0.2s0-0.1,0-0.3c0-0.1,0-0.2,0.1-0.3c0-0.1,0.1-0.3,0.1-0.4
		c0.1-0.3,0.2-0.5,0.3-0.6c0.2-0.3,0.4-0.6,0.6-0.8c0.2-0.2,0.5-0.6,1.1-1.1c0.2-0.2,0.3-0.3,0.4-0.4c0.8-0.6,1.3-0.9,1.5-1.1
		c0.6-0.4,1.2-0.7,1.8-0.9s1.2-0.5,1.9-0.6c0.5-0.1,1.1-0.3,1.7-0.3c0.6-0.1,1.3-0.1,1.9-0.1s1.2,0.1,1.8,0.2
		c0.6,0.1,1.1,0.3,1.7,0.5c0.5,0.2,1,0.4,1.6,0.8c0.5,0.3,1,0.6,1.4,1c0.6,0.5,1.2,0.9,1.6,1.4c0.5,0.5,0.9,1,1.4,1.5
		c0.3,0.4,0.7,0.9,1.1,1.7c0.1,0.2,0.2,0.4,0.4,0.8c0.1,0.2,0.2,0.4,0.3,0.8c0.3-0.2,0.5-0.3,0.7-0.5c0.3-0.2,0.6-0.3,0.9-0.4
		c0.3-0.1,0.6-0.2,0.9-0.3c0.3-0.1,0.6-0.1,0.9-0.1c0.1,0,0.3,0,0.5,0c0.5,0,0.8,0,1.1,0.1c0.3,0,0.7,0.1,1.1,0.3
		c0.2,0.1,0.5,0.2,0.7,0.3c0.1,0.1,0.3,0.2,0.5,0.3c0,0,0.1,0.1,0.3,0.3l0.1,0.1c0.1,0.2,0.3,0.3,0.3,0.4c0.1,0.1,0.1,0.3,0.2,0.4
		c0,0.1,0.1,0.2,0.1,0.4c0,0.1,0,0.2,0,0.2c0,0.2,0,0.3,0,0.5C40.5,21.2,40.5,21.3,40.4,21.4z"/>
</g>
</svg>
