<?xml version="1.0" encoding="utf-8"?>
<!-- Generator: Adobe Illustrator 21.1.0, SVG Export Plug-In . SVG Version: 6.00 Build 0)  -->
<svg version="1.1" id="Слой_1" xmlns="http://www.w3.org/2000/svg" xmlns:xlink="http://www.w3.org/1999/xlink" x="0px" y="0px"
	 viewBox="0 0 50 50" style="enable-background:new 0 0 50 50;" xml:space="preserve">
<style type="text/css">
	.st0{fill:#FFFFFF;}
</style>
<path class="st0" d="M47.6,18.5c0-0.1,0-0.3-0.1-0.4c-0.1-0.3-0.2-0.5-0.2-0.6c-0.1-0.2-0.2-0.4-0.4-0.7l-0.5-0.6l-0.1-0.1
	c-0.2-0.1-0.3-0.3-0.4-0.3l-0.2-0.1c-0.3-0.2-0.5-0.3-0.7-0.4c-0.4-0.2-0.8-0.4-1.1-0.5c-0.6-0.2-1.1-0.3-1.6-0.4
	c-0.4-0.1-0.9-0.1-1.6-0.1c-0.3,0-0.6,0-0.8,0c-0.5,0.1-1,0.1-1.4,0.2c-0.5,0.1-0.9,0.3-1.3,0.4c-0.3,0.1-0.8,0.3-1.3,0.7
	c-0.2,0.1-0.3,0.2-0.5,0.3c-0.1-0.2-0.1-0.4-0.2-0.5c-0.2-0.5-0.4-0.9-0.5-1.1c-0.6-1-1.1-1.8-1.6-2.4c-0.6-0.8-1.3-1.6-2-2.2
	c-0.7-0.7-1.5-1.4-2.4-2c-0.6-0.5-1.3-1-2.1-1.4c-0.8-0.5-1.6-0.8-2.4-1.1c-0.8-0.3-1.6-0.5-2.5-0.7c-0.8-0.2-1.7-0.3-2.6-0.3
	c-0.8,0-1.7,0-2.7,0.1c-0.9,0.1-1.8,0.3-2.5,0.5c-1,0.2-1.9,0.5-2.7,0.9c-0.9,0.4-1.7,0.8-2.6,1.3C8.2,6.9,7.4,7.4,6.4,8.2
	C6.2,8.3,6,8.5,5.7,8.8c-0.8,0.8-1.3,1.3-1.6,1.6c-0.3,0.4-0.6,0.8-0.9,1.2c-0.2,0.3-0.4,0.6-0.5,1c-0.1,0.2-0.2,0.4-0.2,0.5
	c-0.1,0.2-0.1,0.4-0.1,0.6c0,0.2,0,0.3,0,0.4c0,0.1,0,0.3,0.1,0.4c0,0.1,0.1,0.3,0.1,0.4c0.1,0.1,0.1,0.3,0.2,0.4
	c0.1,0.1,0.1,0.2,0.2,0.3c0.1,0.1,0.2,0.2,0.3,0.4c0.1,0.1,0.2,0.2,0.3,0.2c0.1,0.1,0.2,0.2,0.4,0.3L4,16.4c0.2,0.1,0.4,0.2,0.7,0.3
	c0.5,0.1,0.8,0.2,1,0.2c0.1,0,0.7,0.1,1.6,0.1c0.2,0,0.3,0,0.5,0l0.5,0l0.4-0.2l0.2-0.3l0-0.4L8.8,16L8,15.6c-0.1,0-0.2-0.1-0.3-0.1
	l-0.3,0c-0.2,0-0.4,0-0.7,0c-0.1,0-0.2,0-0.4-0.1c-0.1,0-0.2-0.1-0.3-0.1l-0.2-0.2l-0.2-0.3l0-0.1c0-0.1,0-0.2,0-0.2
	c0-0.1,0-0.2,0-0.3c0-0.2,0.1-0.3,0.1-0.4c0.1-0.3,0.2-0.6,0.3-0.8c0.2-0.4,0.5-0.8,0.7-1.1c0.4-0.6,0.7-1,1-1.2
	c0.7-0.7,1.4-1.4,2-1.8c0.7-0.6,1.5-1.1,2.2-1.5c0.7-0.4,1.5-0.7,2.4-1.1c0.7-0.2,1.5-0.4,2.3-0.6c0.6-0.1,1.3-0.2,2-0.2
	c0.6,0,1.3,0,1.9,0.1c0.8,0.1,1.4,0.3,2,0.5c0.3,0.1,0.9,0.3,1.9,0.8c0.4,0.2,0.7,0.4,1,0.6c1,0.7,1.9,1.4,2.4,1.8
	c0.8,0.7,1.5,1.4,2.1,2.2c0.3,0.3,0.8,1.1,1.8,2.4c0.1,0.2,0.2,0.4,0.4,0.6c0.3,0.5,0.4,0.9,0.5,1.1c0.1,0.4,0.3,1,0.6,1.8l0.1,0.3
	c-0.8,0.8-1.4,1.4-1.9,2c-0.9,1-1.5,1.7-1.9,2.2l-0.5,0.5c-0.4,0.4-0.7,0.8-1,1c-0.1,0.2-0.2,0.3-0.3,0.3l-0.7,0.7
	c-0.1-0.3-0.2-0.5-0.3-0.7c-0.2-0.4-0.5-0.7-0.7-1.1c-0.3-0.4-0.6-0.7-0.8-0.9c-0.4-0.4-0.7-0.6-1-0.8c-0.2-0.1-0.8-0.4-1.2-0.7
	c-0.2-0.1-0.3-0.1-0.4-0.2c-0.8-0.2-1.4-0.4-1.7-0.5c-0.5-0.1-1-0.2-1.5-0.2c-0.4,0-0.9,0-1.5,0.1c-0.3,0.1-0.6,0.1-1,0.2
	c-0.3,0.1-0.6,0.2-0.9,0.3c-0.2,0.1-0.5,0.2-0.7,0.4c0,0-0.2,0.2-0.5,0.4l-0.2,0.2c-0.1,0.2-0.3,0.3-0.3,0.4l-0.2,0.3
	c-0.1,0.2-0.3,0.4-0.4,0.7c-0.1,0.2-0.2,0.4-0.3,0.7c-0.1,0.2-0.1,0.4-0.1,0.6l0,0.2c0,0.2,0,0.5,0,0.9c0,0.3,0.1,0.6,0.1,0.9
	c0.1,0.3,0.2,0.7,0.2,0.9c0.1,0.3,0.2,0.6,0.4,0.9c0.2,0.3,0.4,0.6,0.6,0.8c0.2,0.3,0.5,0.5,0.7,0.8c0.2,0.2,0.5,0.4,0.7,0.5
	c0.2,0.1,0.4,0.2,0.7,0.4c0.1,0.1,0.3,0.2,0.4,0.2c0.7,0.2,1.3,0.4,1.5,0.4c0.5,0.1,1,0.1,1.4,0.1c0.4,0,0.9,0,1.4-0.1
	c0.4-0.1,0.9-0.2,1.3-0.3c0.5-0.2,1-0.4,1.4-0.6c0.3-0.1,0.6-0.3,1.1-0.6c0,0.1,0,0.2,0,0.2l0,0.1c-0.1,1.2-0.2,2.4-0.3,2.7
	c-0.2,0.9-0.4,1.7-0.7,2.5c-0.3,0.9-0.7,1.7-1.1,2.4c-0.4,0.8-0.9,1.5-1.5,2.3c-0.6,0.8-1.2,1.4-1.8,2c-0.6,0.6-1.3,1.2-2.2,1.8
	l-2.3,1.5L14.6,45v0.5l0.2,0.1l0.4,0.2c0.3,0.1,0.5,0.2,0.7,0.2c0.1,0,0.3,0.1,0.4,0.1c0.1,0,0.2,0,0.2,0c0.1,0,0.1,0,0.2,0l0.1,0
	l1.1-0.6c1.9-1.2,1.9-1.3,1.9-1.3c0.8-0.6,1.6-1.3,2.4-2.1c0.7-0.7,1.4-1.5,2-2.3c0.6-0.8,1.1-1.6,1.5-2.5c0.4-0.8,0.8-1.7,1.1-2.7
	c0.2-0.6,0.4-1.6,0.6-2.8c0.1-0.3,0.1-0.7,0.1-1c0-0.9,0.1-1.5,0-2c0-0.4-0.1-0.9-0.2-1.7c1.2-1.1,2-1.9,2.5-2.4
	c0.8-0.8,1.9-2,3.6-3.9l0.7-0.7l0.1,0.1c0.7,0.7,1.1,1.1,1.2,1.2c0.4,0.3,0.9,0.7,1.5,1c0.5,0.3,1,0.6,1.5,0.8
	c0.5,0.2,1,0.4,1.6,0.5c0.4,0.1,0.9,0.2,1.4,0.2c0.3,0,0.7,0,1.2,0c0.3,0,0.6,0,1-0.1c0.3-0.1,0.6-0.1,0.8-0.2
	c0.3-0.1,0.5-0.2,0.7-0.3c0.3-0.1,0.5-0.3,0.7-0.5c0.2-0.2,0.4-0.3,0.6-0.6c0.2-0.2,0.3-0.4,0.5-0.6c0.1-0.2,0.2-0.4,0.4-0.7
	l0.2-0.6c0-0.2,0.1-0.3,0.1-0.3c0.1-0.2,0.1-0.4,0.1-0.7C47.6,19,47.6,18.8,47.6,18.5z M44.3,17.6c0.1,0.1,0.1,0.2,0.2,0.4
	c0.1,0.1,0.1,0.3,0.1,0.4l0,0.1c0,0.2,0.1,0.4,0.1,0.6c0,0.2,0,0.3,0,0.5c0,0.2,0,0.4-0.1,0.5l-0.1,0.2c0,0.1,0,0.2-0.1,0.2
	l-0.1,0.1c0,0.1-0.1,0.2-0.1,0.3c-0.1,0.1-0.1,0.2-0.2,0.4c0,0,0,0-0.1,0.1c-0.1,0.1-0.2,0.2-0.3,0.2c-0.1,0.1-0.2,0.1-0.3,0.2
	c-0.1,0.1-0.2,0.1-0.3,0.1c-0.1,0-0.3,0.1-0.5,0.1C42.3,22,42.1,22,42,22c-0.3,0-0.6,0-0.8-0.1c-0.4-0.1-0.8-0.2-1.1-0.3
	c-0.3-0.1-0.7-0.3-1.1-0.4c-0.3-0.2-0.6-0.3-0.9-0.6c-0.2-0.1-0.4-0.3-0.7-0.6c-0.1-0.1-0.2-0.2-0.3-0.3c-0.2-0.2-0.4-0.5-0.5-0.7
	c-0.1-0.2-0.2-0.4-0.4-0.8c0.3-0.2,0.5-0.4,0.6-0.5c0.7-0.5,1.3-0.9,1.7-1.1c0.1-0.1,0.5-0.3,1.2-0.6l0,0c0.1,0,0.2-0.1,0.3-0.1
	c0.2,0,0.5-0.1,0.6-0.1c0.2,0,0.5,0,0.7,0c0.2,0,0.4,0.1,0.7,0.1c0.2,0,0.4,0.1,0.5,0.2c0.2,0.1,0.4,0.2,0.5,0.3
	c0.2,0.1,0.3,0.2,0.4,0.3c0.2,0.1,0.3,0.2,0.3,0.3C44,17.2,44.1,17.3,44.3,17.6z M17.1,28.3c-0.1-0.1-0.2-0.2-0.3-0.3
	c-0.1-0.1-0.2-0.3-0.3-0.4l-0.1-0.1c-0.1-0.1-0.2-0.3-0.2-0.4l-0.1-0.1c-0.1-0.2-0.1-0.4-0.2-0.5c-0.1-0.2-0.1-0.4-0.1-0.6
	c-0.1-0.4-0.1-0.6-0.1-0.9c0-0.3,0-0.5,0.1-0.8c0.1-0.3,0.1-0.5,0.2-0.8c0.1-0.2,0.1-0.4,0.3-0.6c0.1-0.2,0.2-0.3,0.3-0.5
	c0.1-0.2,0.3-0.3,0.3-0.4c0.1-0.1,0.3-0.2,0.4-0.3c0.1,0,0.1-0.1,0.2-0.1l0.2-0.1c0.1-0.1,0.2-0.1,0.4-0.1l0.1,0
	c0.2-0.1,0.4-0.1,0.5-0.1c0.2,0,0.4,0,0.6,0c0,0,0.1,0,0.2,0c0.4,0.1,0.7,0.1,0.8,0.1c0.2,0,0.4,0.1,0.7,0.2
	c0.2,0.1,0.4,0.2,0.6,0.3c0.2,0.1,0.4,0.2,0.6,0.5c0.2,0.2,0.4,0.4,0.6,0.6c0.3,0.4,0.5,0.6,0.6,0.9c0.3,0.5,0.5,0.9,0.6,1.2
	c0.1,0.4,0.3,0.9,0.5,1.5c-0.6,0.4-1.2,0.8-1.5,1.1c-0.4,0.2-1,0.5-1.9,1c-0.1,0.1-0.3,0.1-0.5,0.2c-0.3,0.1-0.6,0.2-0.7,0.2l-0.2,0
	c-0.3,0-0.6,0.1-1.1,0c-0.1,0-0.3,0-0.5-0.1c-0.1,0-0.3-0.1-0.4-0.2C17.4,28.5,17.2,28.4,17.1,28.3z"/>
</svg>
