<?xml version="1.0" encoding="utf-8"?>
<!-- Generator: Adobe Illustrator 21.1.0, SVG Export Plug-In . SVG Version: 6.00 Build 0)  -->
<svg version="1.1" id="Слой_1" xmlns="http://www.w3.org/2000/svg" xmlns:xlink="http://www.w3.org/1999/xlink" x="0px" y="0px"
	 viewBox="0 0 50 50" style="enable-background:new 0 0 50 50;" xml:space="preserve">
<style type="text/css">
	.st0{fill:#275B4D;}
</style>
<g>
	<path class="st0" d="M30.7,26.5c-1.1-0.6-2.2-0.5-2.9-0.3l2.3,1.3c0.3,0.2,0.4,0.6,0.2,0.9c-0.1,0.2-0.3,0.3-0.6,0.3
		c-0.1,0-0.2,0-0.3-0.1l-2.3-1.3c0.2,0.7,0.6,1.7,1.7,2.4c1.6,0.9,3,0.3,3.6,0C32.4,29,32.2,27.4,30.7,26.5z"/>
	<path class="st0" d="M20.8,27.6l2.3-1.3c-0.7-0.2-1.8-0.3-2.9,0.3c-1.6,0.9-1.8,2.5-1.8,3.2c0.6,0.3,2,0.9,3.6,0
		c1.1-0.6,1.5-1.6,1.7-2.3l-2.3,1.3c-0.1,0.1-0.2,0.1-0.3,0.1c-0.2,0-0.4-0.1-0.6-0.3C20.4,28.1,20.5,27.7,20.8,27.6z"/>
	<path class="st0" d="M25,0.3C11.4,0.3,0.3,11.4,0.3,25c0,13.6,11,24.7,24.7,24.7s24.7-11,24.7-24.7C49.7,11.4,38.6,0.3,25,0.3z
		 M39,28c0,2.4-0.7,4.4-2.1,6.1c-1.3,1.6-3.1,2.8-4.7,3.7c-3.2,1.9-6.5,3.7-6.5,3.8c-0.1,0.1-0.2,0.1-0.3,0.1h0
		c-0.1,0-0.2,0-0.3-0.1c0,0-3.3-1.8-6.5-3.8c-1.6-0.9-3.4-2.1-4.7-3.7c-1.4-1.7-2.1-3.7-2.1-6.1V15.6c0-0.2,0.1-0.5,0.4-0.6l13-6.5
		c0.1,0,0.2-0.1,0.3-0.1h0h0h0h0h0c0.1,0,0.2,0,0.3,0.1l13,6.5c0.2,0.1,0.4,0.3,0.4,0.6V28z"/>
	<path class="st0" d="M26.1,20.7v2.7c0.6-0.5,1.2-1.4,1.2-2.7c0-1.8-1.2-2.8-1.8-3.1c-0.6,0.3-1.8,1.3-1.8,3.1
		c0,1.3,0.6,2.1,1.2,2.6v-2.6c0-0.4,0.3-0.6,0.6-0.6C25.8,20,26.1,20.3,26.1,20.7z"/>
	<path class="st0" d="M13.1,16v12c0,4.7,3.2,7,6.2,8.8c2.6,1.6,5.3,3.1,6.2,3.6c0.9-0.5,3.5-2,6.2-3.6c3-1.8,6.2-4.1,6.2-8.8V16
		L25.4,9.9L13.1,16z M14.4,23.2c0-0.4,0.3-0.6,0.6-0.6s0.6,0.3,0.6,0.6v0c0,0.4-0.3,0.6-0.6,0.6S14.4,23.5,14.4,23.2L14.4,23.2z
		 M30.9,35.6c-1.9,1.1-3.7,2.2-5,2.9c-0.1,0.1-0.3,0.2-0.5,0.2c-0.1,0-0.2,0-0.3-0.1c-1.3-0.7-3.2-1.8-5.2-3c-3.4-2.1-5.5-4-5.5-7.6
		v-2.4c0-0.4,0.3-0.6,0.6-0.6c0.4,0,0.6,0.3,0.6,0.6V28c0,3,1.7,4.6,4.9,6.5c1.8,1.1,3.5,2.1,4.8,2.8c1.3-0.7,3.1-1.7,4.8-2.8
		c0.3-0.2,0.7-0.1,0.9,0.2C31.3,35,31.2,35.4,30.9,35.6z M24.8,25.7c0.1,0.1,0.2,0.3,0.3,0.4c0,0.1,0.3,3.1-2.4,4.7
		c-0.8,0.5-1.7,0.7-2.4,0.7c-1.6,0-2.8-0.9-2.9-0.9c-0.2-0.1-0.3-0.3-0.3-0.5c0-0.5-0.1-3.2,2.4-4.7C22.3,23.8,24.7,25.6,24.8,25.7z
		 M22.3,20.7c0-3.2,2.8-4.4,2.9-4.5c0.2-0.1,0.4-0.1,0.6,0c0.5,0.2,2.8,1.5,2.8,4.4c0,3.2-2.8,4.4-2.9,4.5c-0.1,0-0.2,0.1-0.3,0.1
		c-0.1,0-0.2,0-0.3-0.1C25,25.1,22.3,23.9,22.3,20.7z M33.7,30.1c0,0.2-0.1,0.4-0.3,0.5c-0.3,0.2-1.4,0.9-2.9,0.9
		c-0.7,0-1.5-0.2-2.4-0.7c-2.8-1.6-2.4-4.6-2.4-4.7c0-0.2,0.1-0.3,0.3-0.4c0.1-0.1,2.5-1.8,5.3-0.3C34.1,27,33.7,30,33.7,30.1z
		 M36.4,28c0,0.4-0.3,0.6-0.6,0.6s-0.6-0.3-0.6-0.6v0c0-0.4,0.3-0.6,0.6-0.6S36.4,27.6,36.4,28L36.4,28z M36.1,16.6
		c0.2,0.1,0.4,0.3,0.4,0.6v8.2c0,0.4-0.3,0.6-0.6,0.6c-0.4,0-0.6-0.3-0.6-0.6v-7.8l-9.7-4.9l-10.1,5.1c-0.3,0.2-0.7,0-0.9-0.3
		c-0.2-0.3,0-0.7,0.3-0.9l10.3-5.2c0.2-0.1,0.4-0.1,0.6,0L36.1,16.6z"/>
</g>
</svg>
