<?xml version="1.0" encoding="utf-8"?>
<!-- Generator: Adobe Illustrator 21.1.0, SVG Export Plug-In . SVG Version: 6.00 Build 0)  -->
<svg version="1.1" id="Слой_1" xmlns="http://www.w3.org/2000/svg" xmlns:xlink="http://www.w3.org/1999/xlink" x="0px" y="0px"
	 viewBox="0 0 50 50" style="enable-background:new 0 0 50 50;" xml:space="preserve">
<style type="text/css">
	.st0{fill:#275B4D;}
</style>
<path class="st0" d="M25,0.3C11.4,0.3,0.3,11.4,0.3,25c0,13.6,11,24.7,24.7,24.7s24.7-11,24.7-24.7C49.7,11.4,38.6,0.3,25,0.3z
	 M18,11c0.1-0.2,0.3-0.3,0.5-0.3c2.2,0,4.1,0.7,5.3,1.9c1,1,1.1,2.5,0.3,3.6c1.2,1.7,2.6,5.6,3.3,7.8c0.6-1.5,1.8-3.7,3.9-6.1
	c0,0,0.1-0.1,0.1-0.1c0.4-0.4,0.8-0.8,1.2-1.3c0.2-0.2,0.2-0.6,0-0.8s-0.6-0.2-0.8,0c-1.5,1.5-2.7,3.1-3.8,4.8
	c-0.1,0.2-0.3,0.3-0.6,0.3c-0.2,0-0.4-0.2-0.5-0.4c-0.5-1.8,0-3.7,1.3-4.9c2.2-2.2,6-3.5,10.2-3.5c0.2,0,0.4,0.1,0.5,0.3
	c0.1,0.2,0,0.5-0.1,0.6C38,13.9,37.6,16,37.3,18c-0.3,1.9-0.6,3.6-1.6,4.6c-1,1-2.3,1.5-3.6,1.5c-1,0-2.1-0.3-2.9-0.9
	c-0.8,1.6-1.1,2.7-1.1,2.8c-0.1,0.2-0.3,0.4-0.5,0.4h0c-0.2,0-0.5-0.2-0.5-0.4c-0.6-2-2.3-7.2-3.6-9c-0.5,0.3-1,0.4-1.5,0.4
	c-0.7,0-1.5-0.3-2-0.8c-0.5-0.5-0.7-1.5-0.9-2.5c-0.2-1-0.3-2-0.8-2.5C18,11.5,18,11.2,18,11z M16.3,35.3H13c-0.3,0-0.6-0.3-0.6-0.6
	V23.6c0-0.2,0.1-0.3,0.2-0.4c0.1-0.1,0.3-0.2,0.4-0.2c1.2,0.1,5,0.4,5.9,1.3c0.1,0.1,0.2,0.3,0.2,0.5c-0.3,2.9-2.2,9.9-2.3,10.2
	C16.8,35.2,16.6,35.3,16.3,35.3z M32.5,36.4c-4.7,1.9-6.2,0.8-8.4,0l-5.9-2.7c0.5-1.7,1.6-5.2,1.9-7.6c0.9,0.1,1.7,0.1,2.3,0.2
	c1.6,0.1,3.4,1.1,4.5,1.1c1.1,0,5.6,0.4,5.6,2.2c0,1.8-4.2,1.3-6.7,1.1c-0.4,0-0.7,0-0.8,0c-0.5,0.2,2.5,1.1,3,1.1
	c0.6,0,2.8,0.1,3.9,0l3.9-1.7c1.8-0.6,3.4,0.3,3.4,1.7C39.3,33.6,32.5,36.4,32.5,36.4z"/>
</svg>
