<?xml version="1.0" encoding="utf-8"?>
<!-- Generator: Adobe Illustrator 21.1.0, SVG Export Plug-In . SVG Version: 6.00 Build 0)  -->
<svg version="1.1" id="Слой_1" xmlns="http://www.w3.org/2000/svg" xmlns:xlink="http://www.w3.org/1999/xlink" x="0px" y="0px"
	 viewBox="0 0 50 50" style="enable-background:new 0 0 50 50;" xml:space="preserve">
<style type="text/css">
	.st0{fill:#275B4D;}
</style>
<g>
	<circle class="st0" cx="17.2" cy="21.4" r="0.6"/>
	<path class="st0" d="M33.9,32.9H33v-1.3h-6.2v1.3H26v-1.3h-2.2v1.3h-0.9v-1.3h-5.3v1.3h-0.9v-1.3h-2.6c-0.5,0-0.9,0.4-0.9,0.9
		c0,0.5,0.4,0.9,0.9,0.9h20.3c0.5,0,0.9-0.4,0.9-0.9c0-0.5-0.4-0.9-0.9-0.9h-0.4V32.9z"/>
	<circle class="st0" cx="26.4" cy="24.9" r="0.4"/>
	<path class="st0" d="M26,28c-0.3-0.3-0.4-1,0-2v0c-1.4,3-3.5,0.8-0.4-0.6c-0.8,0.4-1.4,0.4-1.8,0.3v5.1H26V28z"/>
	<path class="st0" d="M25,0.3C11.4,0.3,0.3,11.4,0.3,25c0,13.6,11,24.7,24.7,24.7s24.7-11,24.7-24.7C49.7,11.4,38.6,0.3,25,0.3z
		 M24.1,16c0-0.2-0.1-0.3-0.2-0.4C27.6,13,28.7,15.5,24.1,16z M24,16.7c0.1-0.1,0.2-0.3,0.2-0.4C28.6,16.9,27.4,19.6,24,16.7z
		 M23.9,15.5c-0.1-0.1-0.3-0.2-0.4-0.2C24,10.8,26.7,12,23.9,15.5z M23.2,15.3c-0.1,0-0.3,0.1-0.4,0.2
		C20.2,11.8,22.7,10.8,23.2,15.3z M22.7,15.6c-0.1,0.1-0.2,0.3-0.2,0.4C18,15.5,19.2,12.8,22.7,15.6z M22.5,16.2
		c0,0.1,0.1,0.3,0.2,0.4C18.9,19.3,18,16.8,22.5,16.2z M34.7,22c4.6,2,1.2,5.3-0.7,0.7c0.8,1.8,0.5,2.9-0.1,3.3v4.8h1.8
		c0.5,0,0.9,0.4,0.9,0.9v5.3c0,0.5-0.4,0.9-0.9,0.9H12.8c-0.5,0-0.9-0.4-0.9-0.9v-5.3c0-0.5,0.4-0.9,0.9-0.9h4v-1.5
		c-0.7,0.3-2.4-0.4-2.5-2.5c0.9,0.6,1.6,0.2,2.1,0.3c0.1,0,0.3,0.1,0.4,0.1v-1c-0.6-0.3-1-1.4-0.1-3.3c-2.1,4.6-5.3,1.3-0.7-0.7
		c-4.6,2-4.6-3.1,0-1.1c-4.6-2-1.4-5.3,0.7-0.7c-2.1-4.6,3-4.6,1.1,0c1.9-4.6,5.3-1.3,0.7,0.7c4.6-2,4.6,3.1,0,1.1
		c4.6,2,1.2,5.3-0.7,0.7c0.8,1.8,0.5,2.9-0.1,3.3v1.6c0.3-0.4,0.6-0.6,0.9-0.6c0.5-0.1,1.3,0.3,2.1-0.3c-0.1,2.2-2,2.8-2.6,2.5
		c-0.2-0.1-0.3-0.2-0.4-0.3v1.9h5.3V18.4c-0.9,2.7-2.7,1.4-0.1-1.6c0,0,0.1,0.1,0.1,0.1c0.1,0.1,0.2,0.1,0.3,0.1c0,0,0.1,0,0.1,0
		c0,0,0,0,0,0h0c0,0,0.1,0,0.1,0c0.1,0,0.3-0.1,0.4-0.2c0,0,0,0,0,0c2.3,3.1,0.8,4.3,0,1.9v5.6c0.4-0.1,1-0.1,1.8,0.3
		c-3.1-1.4-0.9-3.6,0.5-0.5c-1.4-3.1,2.1-3.1,0.7,0c1.3-3.1,3.6-0.9,0.5,0.5c3.1-1.4,3.1,2.1,0,0.7c3.1,1.4,0.9,3.5-0.4,0.6v0
		c0.4,0.9,0.3,1.6,0,1.9v0.7c0.4-0.2,1-0.1,1.4-0.8c0.6,1.6-0.6,2.7-1.2,2.6c-0.1,0-0.2,0-0.3-0.1v0.4H33v-1.4
		c-0.1,0.1-0.2,0.2-0.3,0.2c-0.6,0.4-2.5-0.3-2.6-2.5c0.9,0.6,1.6,0.2,2.1,0.3c0.3,0,0.6,0.2,0.8,0.5V26c-0.6-0.3-1-1.4-0.1-3.3
		c-2.1,4.6-5.3,1.3-0.7-0.7c-4.6,2-4.6-3.1,0-1.1c-4.6-2-1.4-5.3,0.7-0.7c-2.1-4.6,3-4.6,1.1,0c1.9-4.6,5.3-1.3,0.7,0.7
		C39.3,18.9,39.3,24,34.7,22z"/>
	<circle class="st0" cx="33.4" cy="21.4" r="0.6"/>
</g>
</svg>
