<?xml version="1.0" encoding="utf-8"?>
<!-- Generator: Adobe Illustrator 21.1.0, SVG Export Plug-In . SVG Version: 6.00 Build 0)  -->
<svg version="1.1" id="Слой_1" xmlns="http://www.w3.org/2000/svg" xmlns:xlink="http://www.w3.org/1999/xlink" x="0px" y="0px"
	 viewBox="0 0 50 50" style="enable-background:new 0 0 50 50;" xml:space="preserve">
<style type="text/css">
	.st0{fill:#275B4D;}
</style>
<g>
	<path class="st0" d="M31.3,14.1c-0.8,0-1.6,0.2-2.3,0.7c-0.7,0.5-1.2,1.1-1.4,1.9C29.3,16.7,30.8,15.7,31.3,14.1z"/>
	<path class="st0" d="M16.5,12.9c0.3,1.1,1,2.1,1.9,2.8c1,0.7,2.1,1,3.2,0.9C21,14.3,18.9,12.7,16.5,12.9z"/>
	<path class="st0" d="M25,0.3C11.4,0.3,0.3,11.4,0.3,25c0,13.6,11,24.7,24.7,24.7s24.7-11,24.7-24.7C49.7,11.4,38.6,0.3,25,0.3z
		 M38.7,24H25.1c0,0.3,0,0.6,0.1,0.9l0.7,2.5c0.1,0.4,0.4,0.7,0.8,0.9s0.8,0.2,1.2,0c0.3-0.1,0.6,0,0.7,0.3c0.1,0.3,0,0.6-0.3,0.7
		c-0.3,0.1-0.6,0.2-1,0.2c-0.3,0-0.6,0-0.8-0.1l0.1,0.2c0.2,0.8,1.1,1.3,1.9,1.1c0.9-0.3,1.9,0,2.6,0.6c0,0,0,0,0,0
		c0.1,0.1,1.9,1.2,3.6-0.2c0.2-0.2,0.6-0.2,0.7,0c0.2,0.2,0.2,0.6,0,0.7c-0.7,0.6-1.6,1-2.5,1c-0.3,0-0.5,0-0.8-0.1
		c-0.1,0-0.1,0-0.2,0c0.7,1.4,2,2.5,3.5,3l0.4,0.1c0.3,0.1,0.4,0.4,0.4,0.6c-0.1,0.2-0.3,0.4-0.5,0.4c0,0-0.1,0-0.2,0l-0.4-0.1
		c-0.6-0.2-1.1-0.4-1.6-0.7c0,0.3,0,0.8,0.3,1.3c0.1,0.3,0.1,0.6-0.2,0.7c-0.1,0.1-0.2,0.1-0.3,0.1c-0.2,0-0.4-0.1-0.5-0.3
		c-0.4-0.7-0.5-1.4-0.4-2.1c0-0.2,0.1-0.4,0.1-0.5c-0.8-0.7-1.5-1.7-1.9-2.7c-0.3-0.8-1.1-1.2-1.9-1c-0.2,0.1-0.5,0.1-0.7,0.1
		c0.1,0.1,0.1,0.2,0.2,0.3c0.6,1.3,0.6,2.6,0,3.5c-0.1,0.2-0.3,0.2-0.4,0.2c-0.1,0-0.2,0-0.3-0.1c-0.2-0.2-0.2-0.5-0.1-0.7
		c0.9-1.5-0.7-3.6-1-3.9c-0.4-0.3-0.7-0.7-0.8-1.3l-0.7-2.5l-0.3,2c-0.1,0.4,0.1,0.8,0.4,1.1c0.5,0.5,0.8,1.1,0.7,1.8
		c0,0.5-0.2,1-0.6,1.4c0.2,0.7,0.5,2.3-0.6,3.6c-0.1,0.1-0.3,0.2-0.4,0.2c-0.1,0-0.3,0-0.4-0.1c-0.2-0.2-0.2-0.5,0-0.7
		c0.6-0.7,0.6-1.6,0.5-2.1l-0.9,0.7c-0.1,0.1-0.2,0.1-0.3,0.1c-0.2,0-0.3-0.1-0.4-0.2c-0.2-0.2-0.1-0.5,0.1-0.7l1.5-1.1
		c0.3-0.2,0.5-0.6,0.5-0.9c0-0.4-0.1-0.7-0.4-1c-0.6-0.5-0.8-1.3-0.7-2.1l0.2-1.2c-0.9,1.4-2.2,2.6-3.8,3.2
		c-0.2,0.5-0.7,2.1,0.6,3.9c0.2,0.2,0.1,0.5-0.1,0.7c-0.1,0.1-0.2,0.1-0.3,0.1c-0.2,0-0.3-0.1-0.4-0.2c-1.2-1.5-1.2-3-1.1-4
		c-1.6,1-2.8,2.6-3.3,4.5l-0.3,1.3c-0.1,0.2-0.3,0.4-0.5,0.4c0,0-0.1,0-0.1,0c-0.3-0.1-0.5-0.4-0.4-0.6l0.3-1.3
		c0.2-0.7,0.5-1.4,0.8-2.1c-0.2,0.1-0.5,0.1-0.7,0.2c-1.2,0.4-1.8,1-2,1.8c-0.1,0.2-0.3,0.4-0.5,0.4c0,0-0.1,0-0.1,0
		c-0.3-0.1-0.5-0.3-0.4-0.6c0.5-2.4,3.7-2.9,4.6-3c0.9-1.1,2-1.9,3.4-2.4c0.7-0.3,1.4-0.7,2-1.2c-0.4,0.1-0.8,0.1-1.2,0.1
		c-1,0-1.9-0.3-2.7-0.8c-0.2-0.1-0.3-0.5-0.2-0.7c0.1-0.3,0.5-0.4,0.7-0.2c1.7,1.1,3.3,0.6,4.3,0.1c0.5-0.2,0.8-0.6,1-1.1
		c0.2-0.6,0.5-1.3,0.7-1.8c0.1-0.3,0.2-0.6,0.2-1H11.3c-0.3,0-0.5-0.3-0.5-0.6c0-0.3,0.3-0.5,0.5-0.5h12.8v-0.2
		c0-1.9-0.7-3.8-2.1-5.2c-0.2,0-0.4,0-0.6,0c-1.3,0-2.5-0.4-3.6-1.1c-1.3-1-2.2-2.4-2.5-4c0-0.1,0-0.3,0.1-0.4
		c0.1-0.1,0.2-0.2,0.3-0.2c3.3-0.6,6.5,1.7,7.1,5c0,0,1.4,1.9,1.8,2.9c0.4-1.1,1-2.1,1.8-2.9c0.2-1.2,0.9-2.3,1.9-3
		c1.1-0.7,2.3-1,3.6-0.8c0.1,0,0.1,0,0.2,0.1c0.2,0.1,0.3,0.3,0.3,0.5c-0.4,2.4-2.5,4-4.8,4c-0.2,0-0.3,0-0.5,0c-1.3,1.4-2,3.1-2,5
		h0c0,0,0,0,0,0v0.2h13.6c0.3,0,0.5,0.2,0.5,0.5C39.3,23.7,39,24,38.7,24z"/>
</g>
</svg>
