<?xml version="1.0" encoding="utf-8"?>
<!-- Generator: Adobe Illustrator 21.1.0, SVG Export Plug-In . SVG Version: 6.00 Build 0)  -->
<svg version="1.1" id="Слой_1" xmlns="http://www.w3.org/2000/svg" xmlns:xlink="http://www.w3.org/1999/xlink" x="0px" y="0px"
	 viewBox="0 0 50 50" style="enable-background:new 0 0 50 50;" xml:space="preserve">
<style type="text/css">
	.st0{fill:#FFFFFF;}
</style>
<g>
	<g>
		<path class="st0" d="M31.2,33l-3.7,0l0-12.8c3.6-1.1,6.2-4.4,6.2-8.3c0-4.8-3.9-8.7-8.7-8.7c-4.8,0-8.7,3.9-8.7,8.7
			c0,3.9,2.6,7.2,6.2,8.3l0,25.3c0,1.4,1.1,2.5,2.5,2.5c1.4,0,2.5-1.1,2.5-2.5h3.7c0.7,0,1.2-0.6,1.2-1.2l0-2.5
			c0-0.7-0.6-1.2-1.2-1.2l-3.7,0l0-2.5l3.7,0c0.7,0,1.2-0.6,1.2-1.2l0-2.5C32.5,33.6,31.9,33,31.2,33L31.2,33z M21.3,11.8
			c0-2.1,1.7-3.7,3.7-3.7c2.1,0,3.7,1.7,3.7,3.7c0,2.1-1.7,3.7-3.7,3.7C22.9,15.6,21.3,13.9,21.3,11.8L21.3,11.8z M21.3,11.8"/>
	</g>
</g>
</svg>
