<?xml version="1.0" encoding="utf-8"?>
<!-- Generator: Adobe Illustrator 21.1.0, SVG Export Plug-In . SVG Version: 6.00 Build 0)  -->
<svg version="1.1" id="Слой_1" xmlns="http://www.w3.org/2000/svg" xmlns:xlink="http://www.w3.org/1999/xlink" x="0px" y="0px"
	 viewBox="0 0 50 50" style="enable-background:new 0 0 50 50;" xml:space="preserve">
<style type="text/css">
	.st0{fill:#686868;}
</style>
<g>
	<path class="st0" d="M3.7,20.6h42.5c1,0,1.7-0.8,1.7-1.7c0-1-0.8-1.7-1.7-1.7H3.7c-1,0-1.7,0.8-1.7,1.7C2,19.8,2.8,20.6,3.7,20.6
		L3.7,20.6z M3.7,20.6"/>
	<path class="st0" d="M3.7,32.9h42.5c1,0,1.7-0.8,1.7-1.7c0-1-0.8-1.7-1.7-1.7H3.7c-1,0-1.7,0.8-1.7,1.7C2,32.1,2.8,32.9,3.7,32.9
		L3.7,32.9z M3.7,32.9"/>
</g>
</svg>
