<?xml version="1.0" encoding="utf-8"?>
<!-- Generator: Adobe Illustrator 21.1.0, SVG Export Plug-In . SVG Version: 6.00 Build 0)  -->
<svg version="1.1" id="Слой_1" xmlns="http://www.w3.org/2000/svg" xmlns:xlink="http://www.w3.org/1999/xlink" x="0px" y="0px"
	 viewBox="0 0 50 50" style="enable-background:new 0 0 50 50;" xml:space="preserve">
<style type="text/css">
	.st0{fill:#FFFFFF;}
</style>
<g>
	<g>
		<path class="st0" d="M35.1,31.3c-1.3-1.3-2.9-1.3-4.1,0c-1,1-1.9,1.9-2.9,2.9c-0.3,0.3-0.5,0.3-0.8,0.1c-0.6-0.3-1.3-0.6-1.9-1
			c-2.8-1.8-5.1-4-7.2-6.6c-1-1.3-1.9-2.6-2.6-4.1c-0.1-0.3-0.1-0.5,0.1-0.8c1-0.9,1.9-1.9,2.9-2.8c1.3-1.3,1.3-2.9,0-4.2
			c-0.8-0.8-1.5-1.5-2.3-2.3c-0.8-0.8-1.5-1.6-2.3-2.3c-1.3-1.2-2.9-1.2-4.1,0c-1,1-1.9,1.9-2.9,2.9c-0.9,0.9-1.4,1.9-1.5,3.2
			c-0.2,2,0.3,3.9,1,5.8c1.4,3.8,3.6,7.3,6.2,10.4c3.6,4.2,7.8,7.6,12.8,10c2.2,1.1,4.6,1.9,7.1,2.1c1.7,0.1,3.2-0.3,4.5-1.7
			c0.8-0.9,1.8-1.8,2.6-2.7c1.3-1.3,1.3-2.9,0-4.2C38.2,34.4,36.7,32.8,35.1,31.3L35.1,31.3z M35.1,31.3"/>
	</g>
	<path class="st0" d="M33.6,24.8l3-0.5c-0.5-2.8-1.8-5.2-3.7-7.2c-2.1-2.1-4.7-3.4-7.6-3.8l-0.4,3c2.2,0.3,4.3,1.3,5.9,2.9
		C32.2,20.8,33.2,22.7,33.6,24.8L33.6,24.8z M33.6,24.8"/>
	<path class="st0" d="M38.3,11.8c-3.5-3.5-7.8-5.6-12.7-6.3l-0.4,3c4.2,0.6,8,2.5,10.9,5.5c2.8,2.8,4.7,6.4,5.4,10.3l3-0.5
		C43.7,19.2,41.6,15.1,38.3,11.8L38.3,11.8z M38.3,11.8"/>
</g>
</svg>
